SplineFontDB: 3.0
FontName: BowlbyOne
FullName: Bowlby One
FamilyName: Bowlby One
Weight: Book
Copyright: Copyright (c) 2011 by vernon adams. All rights reserved.
Version: 1.000
ItalicAngle: 0
UnderlinePosition: -103
UnderlineWidth: 102
Ascent: 1638
Descent: 410
sfntRevision: 0x00010000
LayerCount: 2
Layer: 0 1 "Back"  1
Layer: 1 1 "Fore"  0
XUID: [1021 759 1887733602 6875173]
FSType: 0
OS2Version: 2
OS2_WeightWidthSlopeOnly: 0
OS2_UseTypoMetrics: 1
CreationTime: 1305893209
ModificationTime: 1309541049
PfmFamily: 17
TTFWeight: 400
TTFWidth: 5
LineGap: 0
VLineGap: 0
Panose: 2 0 5 5 6 0 0 2 0 4
OS2TypoAscent: -514
OS2TypoAOffset: 1
OS2TypoDescent: -28
OS2TypoDOffset: 1
OS2TypoLinegap: 0
OS2WinAscent: 0
OS2WinAOffset: 1
OS2WinDescent: 0
OS2WinDOffset: 1
HheadAscent: -1152
HheadAOffset: 1
HheadDescent: 494
HheadDOffset: 1
OS2SubXSize: 1331
OS2SubYSize: 1229
OS2SubXOff: 0
OS2SubYOff: 154
OS2SupXSize: 1331
OS2SupYSize: 1229
OS2SupXOff: 0
OS2SupYOff: 717
OS2StrikeYSize: 102
OS2StrikeYPos: 512
OS2Vendor: 'newt'
OS2CodePages: 00000001.00000000
OS2UnicodeRanges: 800000ef.4000a04b.00000000.00000000
Lookup: 258 0 0 "'kern' Horizontal Kerning in Latin lookup 0"  {"'kern' Horizontal Kerning in Latin lookup 0 subtable"  } ['kern' ('latn' <'dflt' > ) ]
DEI: 91125
TtTable: prep
PUSHW_2
 2048
 2048
MUL
DUP
PUSHB_1
 10
SWAP
WS
DUP
PUSHB_1
 0
SWAP
WCVTF
PUSHB_1
 16
RCVT
DUP
DUP
PUSHB_1
 40
ADD
FLOOR
DUP
ROLL
NEQ
IF
PUSHB_1
 10
RS
MUL
SWAP
DIV
PUSHB_1
 9
SWAP
WS
PUSHB_4
 5
 6
 3
 2
CALL
PUSHB_4
 7
 12
 3
 2
CALL
PUSHB_4
 13
 18
 3
 2
CALL
ELSE
PUSHB_2
 9
 10
RS
WS
EIF
PUSHB_3
 11
 40
 2
RCVT
GT
WS
PUSHB_4
 7
 12
 4
 2
CALL
EndTTInstrs
TtTable: fpgm
PUSHB_1
 0
FDEF
DUP
ABS
PUSHB_1
 32
ADD
FLOOR
SWAP
PUSHB_1
 0
LT
IF
NEG
EIF
ENDF
PUSHB_1
 1
FDEF
DUP
ABS
DUP
PUSHB_1
 192
LT
PUSHB_1
 4
MINDEX
AND
PUSHB_1
 11
RS
OR
IF
POP
SWAP
POP
ELSE
ROLL
IF
DUP
PUSHB_1
 80
LT
IF
POP
PUSHB_1
 64
EIF
ELSE
DUP
PUSHB_1
 56
LT
IF
POP
PUSHB_1
 56
EIF
EIF
DUP
PUSHB_1
 5
RCVT
SUB
ABS
PUSHB_1
 40
LT
IF
POP

StartChar: exclam
Encoding: 33 33 4
Width: 792
GlyphClass: 2
Flags: W
LayerCount: 2
Fore
SplineSet
388 1521 m 1,0,1
 700 1548 700 1548 706 1506 c 1,2,-1
 692 1318 l 1,3,4
 647 789 647 789 622 562 c 0,5,6
 619 543 619 543 528 543 c 2,7,-1
 468 543 l 1,8,-1
 448 544 l 1,9,-1
 407 543 l 1,10,-1
 367 543 l 1,11,-1
 283 542 l 1,12,-1
 252 542 l 1,13,-1
 237 541 l 1,14,-1
 198 541 l 1,15,16
 161 559 161 559 162 630 c 128,-1,17
 163 701 163 701 161 723 c 2,18,-1
 151 853 l 2,19,20
 149 885 149 885 146 918 c 128,-1,21
 143 951 143 951 141 983 c 2,22,-1
 114 1379 l 1,23,-1
 107 1500 l 2,24,25
 107 1516 107 1516 256 1516 c 2,26,-1
 324 1516 l 1,27,-1
 388 1521 l 1,0,1
127 -3 m 1,28,29
 127 328 127 328 146 328 c 2,30,-1
 342 328 l 2,31,32
 656 328 656 328 656 311 c 1,33,-1
 655 307 l 1,34,-1
 655 305 l 1,35,36
 654 301 654 301 654 296 c 2,37,-1
 654 285 l 1,38,39
 655 251 655 251 655 219 c 2,40,-1
 655 153 l 2,41,42
 655 41 655 41 659 -11 c 1,43,44
 648 -22 648 -22 463 -28 c 1,45,-1
 443 -28 l 1,46,-1
 241 -32 l 1,47,-1
 233 -32 l 1,48,49
 193 -34 193 -34 154 -34 c 1,50,-1
 144 -19 l 1,51,-1
 127 -3 l 1,28,29
EndSplineSet
EndChar

StartChar: quotedbl
Encoding: 34 34 5
Width: 1285
GlyphClass: 2
Flags: W
LayerCount: 2
Fore
SplineSet
603 917 m 2,0,1
 603 875 603 875 543 875 c 2,2,-1
 503 875 l 1,3,-1
 484 876 l 1,4,5
 288 873 288 873 252.5 872 c 128,-1,6
 217 871 217 871 193 892 c 1,7,8
 193 938 193 938 198 1031 c 1,9,-1
 203 1284 l 1,10,-1
 202 1315 l 1,11,-1
 208 1388 l 1,12,-1
 208 1444 l 1,13,-1
 206 1477 l 1,14,15
 206 1521 206 1521 215 1530 c 1,16,-1
 252 1529 l 1,17,-1
 383 1529 l 1,18,-1
 455 1531 l 1,19,20
 572 1531 572 1531 590 1517 c 1,21,-1
 589 1513 l 1,22,-1
 603 917 l 2,0,1
1128 1527 m 1,23,24
 1125 1527 1125 1527 1141 1221 c 128,-1,25
 1157 915 1157 915 1138 884 c 1,26,-1
 1015 880 l 1,27,28
 942 880 942 880 822 875 c 2,29,-1
 757 872 l 1,30,31
 736 900 736 900 736 938 c 2,32,-1
 736 1002 l 1,33,-1
 746 1293 l 1,34,35
 748 1316 748 1316 748 1340 c 2,36,-1
 748 1467 l 1,37,-1
 747 1482 l 1,38,39
 747 1525 747 1525 752 1531 c 1,40,-1
 1009 1531 l 1,41,-1
 1112 1532 l 2,42,43
 1128 1532 1128 1532 1128 1533 c 2,44,-1
 1128 1527 l 1,23,24
1152 874 m 1,45,46
 1152 863 1152 863 1136 863 c 1,47,-1
 1136 883 l 1,48,-1
 1135 883 l 1,49,-1
 1136 884 l 1,50,-1
 1152 874 l 1,45,46
EndSplineSet
EndChar

StartChar: numbersign
Encoding: 35 35 6
Width: 1548
GlyphClass: 2
Flags: W
LayerCount: 2
Fore
SplineSet
1124 754 m 1,0,-1
 1112 651 l 1,1,-1
 1219 651 l 2,2,3
 1266 651 1266 651 1268 648 c 1,4,-1
 1268 497 l 1,5,-1
 1269 470 l 1,6,-1
 1269 401 l 1,7,8
 1267 394 1267 394 1262 394 c 2,9,-1
 1084 398 l 1,10,11
 1055 202 1055 202 1056 166 c 0,12,13
 1061 -28 1061 -28 955 -29 c 1,14,-1
 865 -32 l 1,15,16
 768 -32 768 -32 752 -12 c 1,17,18
 756 12 756 12 758.5 37.5 c 128,-1,19
 761 63 761 63 764 89 c 2,20,-1
 770 138 l 2,21,22
 773 165 773 165 777.5 197 c 128,-1,23
 782 229 782 229 788 273 c 128,-1,24
 794 317 794 317 804 387 c 1,25,26
 780 382 780 382 748.5 381 c 128,-1,27
 717 380 717 380 677 371 c 1,28,-1
 638 46 l 1,29,30
 627 -36 627 -36 580 -36 c 2,31,-1
 359 -32 l 1,32,33
 352 -22 352 -22 345 -17 c 1,34,-1
 347 -16 l 1,35,-1
 337 0 l 1,36,37
 347 72 347 72 356 135 c 2,38,-1
 391 378 l 1,39,-1
 342 378 l 2,40,41
 269 378 269 378 254 386 c 128,-1,42
 239 394 239 394 239 439 c 2,43,-1
 239 579 l 1,44,-1
 237 613 l 1,45,46
 237 655 237 655 291 655 c 1,47,-1
 324 654 l 1,48,-1
 432 654 l 1,49,-1
 456 843 l 1,50,-1
 410 843 l 2,51,52
 305 843 305 843 305 863 c 2,53,-1
 308 1100 l 2,54,55
 308 1118 308 1118 406 1118 c 1,56,-1
 469 1116 l 1,57,-1
 474 1116 l 2,58,59
 497 1116 497 1116 529 1337 c 2,60,-1
 555 1520 l 1,61,62
 568 1530 568 1530 644 1530 c 2,63,-1
 761 1530 l 2,64,65
 812 1530 812 1530 822 1517 c 1,66,67
 804 1422 804 1422 794 1324 c 1,68,-1
 791 1298 l 2,69,70
 786 1253 786 1253 777 1200.5 c 128,-1,71
 768 1148 768 1148 761 1106 c 1,72,-1
 908 1106 l 1,73,74
 914 1142 914 1142 922 1244 c 0,75,76
 942 1481 942 1481 967 1522 c 1,77,-1
 1209 1522 l 2,78,79
 1218 1522 1218 1522 1218 1502 c 128,-1,80
 1218 1482 1218 1482 1212.5 1438.5 c 128,-1,81
 1207 1395 1207 1395 1201.5 1350.5 c 128,-1,82
 1196 1306 1196 1306 1190 1263 c 128,-1,83
 1184 1220 1184 1220 1179 1183 c 2,84,-1
 1168 1108 l 1,85,-1
 1198 1107 l 1,86,-1
 1247 1107 l 2,87,88
 1268 1107 1268 1107 1277 1108 c 1,89,-1
 1298 1108 l 1,90,-1
 1317 1109 l 1,91,92
 1325 1103 1325 1103 1325 1053 c 1,93,-1
 1324 1037 l 1,94,-1
 1324 945 l 1,95,-1
 1326 890 l 1,96,-1
 1326 874 l 2,97,98
 1326 852 1326 852 1227 852 c 1,99,-1
 1152 855 l 1,100,-1
 1138 855 l 1,101,-1
 1124 754 l 1,0,-1
848 902 m 1,102,-1
 729 908 l 1,103,-1
 717 908 l 1,104,-1
 694 868 l 1,105,106
 687 833 687 833 682 797.5 c 128,-1,107
 677 762 677 762 672 728 c 1,108,-1
 658 656 l 1,109,110
 660 610 660 610 697 603 c 1,111,-1
 706 603 l 1,112,-1
 713 604 l 1,113,-1
 846 610 l 2,114,115
 879 612 879 612 884 643 c 2,116,-1
 920 852 l 1,117,118
 914 902 914 902 869 902 c 2,119,-1
 848 902 l 1,102,-1
329 -22 m 1,120,121
 329 -13 329 -13 332.5 -13 c 128,-1,122
 336 -13 336 -13 344 -17 c 1,123,-1
 329 -22 l 1,120,121
EndSplineSet
EndChar

StartChar: dollar
Encoding: 36 36 7
Width: 1444
GlyphClass: 2
Flags: W
LayerCount: 2
Fore
SplineSet
1422 1089 m 1,0,-1
 1416 1090 l 1,1,2
 1301 1090 1301 1090 1238 1087 c 2,3,-1
 1178 1085 l 2,4,5
 1028 1080 1028 1080 966 1080 c 128,-1,6
 904 1080 904 1080 896.5 1087 c 128,-1,7
 889 1094 889 1094 882 1118 c 0,8,9
 855 1212 855 1212 750 1212 c 1,10,-1
 724 1206 l 1,11,12
 615 1177 615 1177 614 1122 c 1,13,14
 614 1039 614 1039 833 994 c 1,15,-1
 985 960 l 1,16,17
 1191 906 1191 906 1299 843 c 1,18,19
 1487 700 1487 700 1487 453 c 0,20,21
 1487 48 1487 48 908 -60 c 1,22,-1
 911 -234 l 1,23,-1
 912 -251 l 1,24,25
 910 -269 910 -269 824.5 -269 c 128,-1,26
 739 -269 739 -269 589 -263 c 1,27,-1
 561 -237 l 1,28,29
 562 -219 562 -219 562 -207 c 2,30,-1
 562 -176 l 2,31,32
 562 -63 562 -63 527.5 -52.5 c 128,-1,33
 493 -42 493 -42 468 -38 c 0,34,35
 69 30 69 30 28 453 c 1,36,37
 31 469 31 469 78 469 c 1,38,-1
 126 467 l 1,39,-1
 604 467 l 1,40,41
 615 462 615 462 625.5 413.5 c 128,-1,42
 636 365 636 365 661 334 c 128,-1,43
 686 303 686 303 772 303 c 128,-1,44
 858 303 858 303 882.5 349.5 c 128,-1,45
 907 396 907 396 907 431.5 c 128,-1,46
 907 467 907 467 875 490 c 128,-1,47
 843 513 843 513 816 514.5 c 128,-1,48
 789 516 789 516 759 527.5 c 128,-1,49
 729 539 729 539 687 550 c 2,50,-1
 649 560 l 1,51,52
 284 655 284 655 215.5 716 c 128,-1,53
 147 777 147 777 105 848.5 c 128,-1,54
 63 920 63 920 63 1027 c 0,55,56
 63 1354 63 1354 323 1471 c 0,57,58
 432 1520 432 1520 579 1554 c 1,59,60
 574 1632 574 1632 574 1690.5 c 128,-1,61
 574 1749 574 1749 580 1761 c 1,62,63
 622 1759 622 1759 658 1759 c 2,64,-1
 866 1762 l 2,65,66
 888 1762 888 1762 888 1679 c 1,67,-1
 884 1551 l 1,68,69
 1216 1525 1216 1525 1319.5 1392.5 c 128,-1,70
 1423 1260 1423 1260 1423 1091 c 1,71,-1
 1422 1089 l 1,0,-1
EndSplineSet
EndChar

StartChar: percent
Encoding: 37 37 8
Width: 2153
GlyphClass: 2
Flags: W
LayerCount: 2
Fore
SplineSet
1716 -62 m 0,0,1
 1284 -62 1284 -62 1284 430 c 2,2,-1
 1284 444 l 2,3,4
 1284 720 1284 720 1427 838 c 128,-1,5
 1570 956 1570 956 1730.5 956 c 128,-1,6
 1891 956 1891 956 2014 879 c 1,7,-1
 2013 879 l 1,8,9
 2107 805 2107 805 2152 669 c 1,10,-1
 2151 669 l 1,11,12
 2180 582 2180 582 2180 394 c 128,-1,13
 2180 206 2180 206 2049.5 72 c 128,-1,14
 1919 -62 1919 -62 1716 -62 c 0,0,1
477 1553 m 0,15,16
 907 1553 907 1553 907 1078 c 0,17,18
 907 707 907 707 666 586 c 0,19,20
 578 541 578 541 469 541 c 128,-1,21
 360 541 360 541 293.5 561.5 c 128,-1,22
 227 582 227 582 179 617.5 c 128,-1,23
 131 653 131 653 100 701 c 128,-1,24
 69 749 69 749 51 804 c 128,-1,25
 33 859 33 859 25.5 919 c 128,-1,26
 18 979 18 979 18 1012 c 0,27,28
 18 1286 18 1286 148 1430 c 1,29,30
 304 1553 304 1553 477 1553 c 0,15,16
1392 1493 m 1,31,32
 1412 1533 1412 1533 1432 1564 c 1,33,-1
 1480 1564 l 2,34,35
 1594 1564 1594 1564 1636 1571 c 1,36,-1
 1617 1532 l 1,37,38
 1526 1361 1526 1361 1446 1200 c 1,39,-1
 1352 1015 l 1,40,-1
 1352 1017 l 1,41,-1
 1264 851 l 1,42,43
 1168 674 1168 674 1109 546 c 1,44,-1
 799 -73 l 1,45,46
 785 -98 785 -98 581 -89 c 1,47,-1
 573 -89 l 1,48,-1
 568 -88 l 1,49,-1
 549 -37 l 1,50,51
 709 264 709 264 878.5 562.5 c 128,-1,52
 1048 861 1048 861 1213 1170 c 1,53,-1
 1392 1494 l 1,54,-1
 1392 1493 l 1,31,32
1648 1591 m 1,55,-1
 1664 1579 l 1,56,57
 1659 1574 1659 1574 1636 1571 c 1,58,-1
 1648 1591 l 1,55,-1
1604 408 m 1,59,60
 1611 140 1611 140 1734 140 c 128,-1,61
 1857 140 1857 140 1857 350 c 2,62,-1
 1857 379 l 1,63,-1
 1856 410 l 1,64,-1
 1856 510 l 1,65,-1
 1857 533 l 1,66,67
 1857 745 1857 745 1732 745 c 1,68,69
 1667 732 1667 732 1635.5 674 c 128,-1,70
 1604 616 1604 616 1604 444 c 2,71,-1
 1604 408 l 1,59,60
470 1347 m 1,72,73
 338 1343 338 1343 338 1072 c 2,74,-1
 338 992 l 2,75,76
 338 740 338 740 473 740 c 0,77,78
 587 740 587 740 587 961 c 2,79,-1
 587 1002 l 1,80,-1
 586 1023 l 1,81,-1
 586 1109 l 1,82,-1
 587 1131 l 1,83,84
 587 1347 587 1347 470 1347 c 1,72,73
EndSplineSet
EndChar

StartChar: ampersand
Encoding: 38 38 9
Width: 1815
GlyphClass: 2
Flags: W
LayerCount: 2
Fore
SplineSet
1388 1194 m 0,0,1
 1388 997 1388 997 1083 776 c 1,2,-1
 1100 758 l 1,3,4
 1132 729 1132 729 1144 717.5 c 128,-1,5
 1156 706 1156 706 1165 699 c 1,6,-1
 1165 700 l 1,7,-1
 1273 597 l 1,8,9
 1330 674 1330 674 1332 718 c 1,10,11
 1332 762 1332 762 1351.5 777 c 128,-1,12
 1371 792 1371 792 1460 792 c 2,13,-1
 1522 792 l 1,14,-1
 1642 788 l 1,15,-1
 1722 788 l 2,16,17
 1784 788 1784 788 1791 771 c 1,18,-1
 1786 736 l 1,19,20
 1763 484 1763 484 1584 305 c 1,21,-1
 1779 103 l 1,22,23
 1811 68 1811 68 1826 48 c 1,24,-1
 1846 29 l 2,25,26
 1880 -3 1880 -3 1882 -19 c 1,27,28
 1882 -35 1882 -35 1822 -35 c 1,29,-1
 1775 -34 l 1,30,-1
 1516 -34 l 2,31,32
 1416 -34 1416 -34 1302 -30 c 1,33,34
 1270 -13 1270 -13 1243 14 c 1,35,-1
 1204 47 l 1,36,-1
 1151 20 l 1,37,38
 936 -59 936 -59 794 -69 c 1,39,-1
 705 -72 l 1,40,41
 406 -72 406 -72 211.5 53.5 c 128,-1,42
 17 179 17 179 17 370 c 0,43,44
 17 665 17 665 417 811 c 1,45,46
 171 968 171 968 171 1189 c 128,-1,47
 171 1410 171 1410 460 1506 c 1,48,49
 600 1551 600 1551 760 1551 c 0,50,51
 1251 1551 1251 1551 1360 1319 c 0,52,53
 1388 1260 1388 1260 1388 1194 c 0,0,1
1012 281 m 1,54,55
 968 316 968 316 945.5 342.5 c 128,-1,56
 923 369 923 369 915 377 c 2,57,-1
 764 521 l 1,58,59
 750 521 750 521 740.5 539.5 c 128,-1,60
 731 558 731 558 696 584.5 c 128,-1,61
 661 611 661 611 645 612 c 1,62,63
 593 588 593 588 547.5 522.5 c 128,-1,64
 502 457 502 457 502 379.5 c 128,-1,65
 502 302 502 302 579.5 251.5 c 128,-1,66
 657 201 657 201 759 201 c 128,-1,67
 861 201 861 201 1012 281 c 1,54,55
792 1326 m 0,68,69
 594 1326 594 1326 595 1169 c 1,70,71
 604 1070 604 1070 762 975 c 1,72,-1
 761 976 l 1,73,74
 774 968 774 968 788.5 968 c 128,-1,75
 803 968 803 968 813 973 c 1,76,77
 967 1090 967 1090 967 1174 c 128,-1,78
 967 1258 967 1258 906.5 1292 c 128,-1,79
 846 1326 846 1326 792 1326 c 0,68,69
EndSplineSet
EndChar

StartChar: quotesingle
Encoding: 39 39 10
Width: 803
GlyphClass: 2
Flags: W
LayerCount: 2
Fore
SplineSet
608 918 m 0,0,1
 608 870 608 870 397 870 c 2,2,-1
 286 870 l 1,3,-1
 247 871 l 1,4,-1
 222 871 l 1,5,6
 198 885 198 885 198 910 c 128,-1,7
 198 935 198 935 199.5 961 c 128,-1,8
 201 987 201 987 202 1015 c 2,9,-1
 209 1230 l 2,10,11
 211 1279 211 1279 214 1424 c 1,12,-1
 214 1461 l 1,13,-1
 213 1479 l 1,14,15
 213 1520 213 1520 220 1529 c 1,16,-1
 286 1529 l 2,17,18
 599 1529 599 1529 599 1516 c 2,19,-1
 602 1331 l 2,20,21
 608 1022 608 1022 608 918 c 0,0,1
EndSplineSet
EndChar

StartChar: parenleft
Encoding: 40 40 11
Width: 832
GlyphClass: 2
Flags: W
LayerCount: 2
Fore
SplineSet
805 -306 m 1,0,-1
 782 -336 l 1,1,-1
 732 -336 l 1,2,-1
 396 -328 l 1,3,4
 366 -311 366 -311 279 -37 c 1,5,-1
 260 13 l 2,6,7
 160 275 160 275 140 616 c 1,8,9
 163 835 163 835 254.5 1170.5 c 128,-1,10
 346 1506 346 1506 381 1520 c 1,11,12
 417 1532 417 1532 786 1532 c 1,13,14
 794 1526 794 1526 796 1519 c 1,15,-1
 742 1314 l 1,16,17
 615 875 615 875 620.5 588.5 c 128,-1,18
 626 302 626 302 748 -106 c 1,19,-1
 805 -306 l 1,0,-1
809 -300 m 1,20,-1
 806 -310 l 1,21,-1
 805 -306 l 1,22,-1
 809 -300 l 1,20,-1
EndSplineSet
EndChar

StartChar: parenright
Encoding: 41 41 12
Width: 835
GlyphClass: 2
Flags: W
LayerCount: 2
Fore
SplineSet
379 1543 m 1,0,-1
 442 1544 l 2,1,2
 455 1544 455 1544 470 1522 c 1,3,-1
 470 1524 l 1,4,-1
 525 1373 l 1,5,6
 711 854 711 854 708.5 650 c 128,-1,7
 706 446 706 446 610 96 c 128,-1,8
 514 -254 514 -254 454 -314 c 1,9,10
 334 -320 334 -320 285 -320 c 2,11,-1
 253 -320 l 1,12,-1
 223 -319 l 1,13,-1
 162 -319 l 2,14,15
 94 -319 94 -319 60 -322 c 1,16,-1
 70 -294 l 1,17,18
 115 -192 115 -192 173.5 98 c 128,-1,19
 232 388 232 388 232 618 c 128,-1,20
 232 848 232 848 105 1295 c 2,21,-1
 41 1521 l 1,22,23
 50 1535 50 1535 61 1543 c 1,24,-1
 379 1543 l 1,0,-1
455 -316 m 1,25,26
 462 -316 462 -316 472 -311 c 1,27,28
 472 -333 472 -333 457 -337 c 1,29,30
 457 -336 457 -336 459 -334 c 1,31,-1
 453 -323 l 1,32,-1
 453 -338 l 1,33,-1
 449 -338 l 1,34,-1
 445 -320 l 1,35,-1
 455 -316 l 1,25,26
48 -321 m 1,36,37
 50 -321 50 -321 52 -321 c 128,-1,38
 54 -321 54 -321 59 -322 c 1,39,-1
 60 -322 l 1,40,41
 59 -325 59 -325 59 -331 c 1,42,-1
 48 -321 l 1,36,37
453 -338 m 1,43,44
 454 -338 454 -338 454.5 -337.5 c 128,-1,45
 455 -337 455 -337 456 -337 c 1,46,47
 455 -337 455 -337 454.5 -337.5 c 128,-1,48
 454 -338 454 -338 453 -338 c 1,43,44
EndSplineSet
EndChar

StartChar: asterisk
Encoding: 42 42 13
Width: 930
GlyphClass: 2
Flags: W
LayerCount: 2
Fore
SplineSet
747 1448 m 1,0,-1
 641 1246 l 1,1,-1
 707 1252 l 1,2,3
 735 1258 735 1258 797 1258 c 2,4,-1
 810 1258 l 2,5,6
 855 1258 855 1258 857.5 1247 c 128,-1,7
 860 1236 860 1236 860 1200.5 c 128,-1,8
 860 1165 860 1165 854 1131 c 1,9,-1
 854 1073 l 2,10,11
 854 1069 854 1069 766 1069 c 2,12,-1
 648 1069 l 1,13,-1
 690 1004 l 1,14,-1
 689 1004 l 1,15,16
 698 987 698 987 705 974 c 128,-1,17
 712 961 712 961 718 944 c 1,18,-1
 732 921 l 1,19,20
 746 905 746 905 756 876 c 1,21,-1
 627 793 l 1,22,-1
 628 795 l 1,23,-1
 589 774 l 1,24,-1
 590 775 l 1,25,26
 577 785 577 785 535.5 860 c 128,-1,27
 494 935 494 935 484 953 c 1,28,29
 389 769 389 769 383 769 c 0,30,31
 333 769 333 769 276 826 c 1,32,-1
 205 871 l 1,33,-1
 197 873 l 1,34,35
 204 903 204 903 268 1003 c 1,36,-1
 290 1048 l 1,37,-1
 238 1047 l 1,38,-1
 193 1046 l 1,39,-1
 179 1046 l 2,40,41
 117 1046 117 1046 103 1062 c 128,-1,42
 89 1078 89 1078 89 1158.5 c 128,-1,43
 89 1239 89 1239 108 1256 c 1,44,45
 194 1256 194 1256 308 1250 c 1,46,-1
 252 1337 l 1,47,48
 183 1439 183 1439 205 1448 c 0,49,50
 236 1461 236 1461 287.5 1499.5 c 128,-1,51
 339 1538 339 1538 373 1538 c 0,52,53
 376 1538 376 1538 398 1496 c 2,54,-1
 490 1324 l 1,55,-1
 506 1389 l 1,56,-1
 524 1430 l 1,57,-1
 534 1449 l 2,58,59
 539 1458 539 1458 553.5 1489.5 c 128,-1,60
 568 1521 568 1521 584 1537 c 1,61,62
 747 1462 747 1462 747 1448 c 1,0,-1
759 869 m 1,63,-1
 758 878 l 1,64,-1
 781 891 l 1,65,66
 800 867 800 867 800 844 c 1,67,-1
 759 852 l 1,68,-1
 759 869 l 1,63,-1
197 873 m 1,69,-1
 196 872 l 1,70,71
 195 873 195 873 195 874 c 2,72,-1
 197 873 l 1,69,-1
195 874 m 2,73,74
 193 874 193 874 193 875 c 2,75,-1
 195 874 l 2,73,74
EndSplineSet
EndChar

StartChar: plus
Encoding: 43 43 14
Width: 1271
GlyphClass: 2
Flags: W
LayerCount: 2
Fore
SplineSet
491 1037 m 2,0,1
 491 1078 491 1078 530 1078 c 1,2,-1
 549 1077 l 1,3,-1
 658 1077 l 1,4,-1
 718 1079 l 1,5,6
 786 1079 786 1079 796 1067 c 1,7,-1
 793 674 l 1,8,-1
 1180 676 l 1,9,10
 1189 672 1189 672 1189 625 c 2,11,-1
 1189 503 l 1,12,-1
 1188 465 l 1,13,-1
 1188 408 l 2,14,15
 1188 397 1188 397 1187 391 c 1,16,-1
 1183 391 l 1,17,18
 1170 390 1170 390 1159 390 c 2,19,-1
 866 390 l 1,20,-1
 788 391 l 1,21,22
 792 239 792 239 792 173 c 2,23,-1
 792 20 l 2,24,25
 792 -13 792 -13 716 -13 c 2,26,-1
 629 -12 l 1,27,-1
 565 -12 l 2,28,29
 537 -12 537 -12 503 -14 c 1,30,-1
 498 372 l 1,31,-1
 470 371 l 1,32,-1
 368 371 l 1,33,-1
 346 372 l 1,34,-1
 324 371 l 1,35,-1
 188 371 l 1,36,-1
 149 372 l 1,37,-1
 112 372 l 1,38,39
 97 380 97 380 97 447 c 1,40,-1
 98 462 l 1,41,-1
 98 531 l 1,42,-1
 97 564 l 1,43,-1
 97 628 l 2,44,45
 97 681 97 681 134 681 c 0,46,47
 318 681 318 681 488 683 c 1,48,-1
 488 749 l 1,49,-1
 491 1004 l 1,50,-1
 491 1037 l 2,0,1
EndSplineSet
EndChar

StartChar: comma
Encoding: 44 44 15
Width: 735
GlyphClass: 2
Flags: W
LayerCount: 2
Fore
SplineSet
534 422 m 1,0,1
 671 422 671 422 671 411 c 2,2,-1
 671 407 l 1,3,4
 619 254 619 254 588 151 c 2,5,-1
 575 108 l 1,6,7
 569 84 569 84 561 61 c 128,-1,8
 553 38 553 38 545 14 c 2,9,-1
 461 -235 l 1,10,11
 443 -250 443 -250 258 -250 c 1,12,-1
 216 -249 l 1,13,-1
 27 -249 l 1,14,15
 7 -227 7 -227 35 -101 c 2,16,-1
 43 -66 l 2,17,18
 54 -19 54 -19 65.5 32.5 c 128,-1,19
 77 84 77 84 98 174 c 0,20,21
 148 392 148 392 169 417 c 1,22,23
 182 419 182 419 242 419 c 2,24,-1
 408 419 l 1,25,-1
 534 422 l 1,0,1
EndSplineSet
EndChar

StartChar: hyphen
Encoding: 45 45 16
Width: 859
GlyphClass: 2
Flags: W
LayerCount: 2
Fore
SplineSet
804 375 m 2,0,-1
 73 355 l 1,1,2
 60 366 60 366 50 379 c 1,3,-1
 51 407 l 1,4,-1
 51 437 l 1,5,-1
 53 567 l 1,6,-1
 53 582 l 1,7,-1
 51 648 l 1,8,9
 51 732 51 732 62 732 c 2,10,-1
 283 732 l 1,11,-1
 354 731 l 1,12,-1
 658 734 l 1,13,-1
 692 734 l 1,14,-1
 730 733 l 1,15,-1
 798 733 l 1,16,17
 812 719 812 719 812 564 c 2,18,-1
 812 550 l 1,19,-1
 811 508 l 1,20,-1
 811 393 l 1,21,22
 809 375 809 375 804 375 c 2,0,-1
EndSplineSet
EndChar

StartChar: period
Encoding: 46 46 17
Width: 775
GlyphClass: 2
Flags: W
LayerCount: 2
Fore
SplineSet
569 416 m 1,0,1
 649 416 649 416 649 407 c 2,2,-1
 652 254 l 2,3,4
 653 219 653 219 653 179.5 c 128,-1,5
 653 140 653 140 655 102 c 1,6,-1
 655 33 l 1,7,-1
 656 20 l 1,8,9
 656 -18 656 -18 653 -18 c 2,10,-1
 646 -17 l 1,11,12
 327 -35 327 -35 153 -35 c 1,13,-1
 130 1 l 1,14,15
 129 8 129 8 129 14 c 2,16,-1
 129 25 l 1,17,-1
 132 129 l 1,18,-1
 132 183 l 2,19,20
 132 403 132 403 146 417 c 1,21,22
 322 415 322 415 500 415 c 2,23,-1
 546 415 l 1,24,-1
 569 416 l 1,0,1
EndSplineSet
EndChar

StartChar: slash
Encoding: 47 47 18
Width: 804
GlyphClass: 2
Flags: W
LayerCount: 2
Fore
SplineSet
794 1565 m 1,0,-1
 804 1566 l 1,1,2
 846 1566 846 1566 846 1555 c 1,3,4
 833 1492 833 1492 811 1432 c 2,5,-1
 782 1355 l 1,6,7
 692 1096 692 1096 602 821 c 1,8,-1
 580 758 l 2,9,10
 521 590 521 590 464.5 418 c 128,-1,11
 408 246 408 246 345 81 c 2,12,-1
 327 34 l 1,13,-1
 329 34 l 1,14,15
 310 -20 310 -20 286 -44 c 128,-1,16
 262 -68 262 -68 192 -70 c 1,17,-1
 149 -70 l 1,18,19
 113 -75 113 -75 41 -75 c 2,20,-1
 -10 -75 l 1,21,22
 -54 20 -54 20 -10 64 c 1,23,-1
 50 229 l 2,24,25
 203 651 203 651 515 1476 c 1,26,-1
 549 1563 l 1,27,28
 569 1568 569 1568 629 1568 c 1,29,-1
 748 1565 l 1,30,-1
 794 1565 l 1,0,-1
EndSplineSet
EndChar

StartChar: zero
Encoding: 48 48 19
Width: 1462
GlyphClass: 2
Flags: W
LayerCount: 2
Fore
SplineSet
762 1237 m 1,0,1
 543 1237 543 1237 543 790 c 0,2,3
 543 456 543 456 593 363 c 128,-1,4
 643 270 643 270 727 270 c 0,5,6
 921 270 921 270 921 686 c 2,7,-1
 921 705 l 1,8,9
 925 766 925 766 925 848 c 0,10,11
 926 1238 926 1238 762 1237 c 1,0,1
751 1571 m 2,12,13
 1440 1571 1440 1571 1440 727 c 0,14,15
 1440 535 1440 535 1366 339 c 0,16,17
 1216 -55 1216 -55 721 -59 c 1,18,19
 421 -59 421 -59 256.5 98.5 c 128,-1,20
 92 256 92 256 50 504 c 1,21,22
 40 552 40 552 37 596 c 128,-1,23
 34 640 34 640 31 678 c 2,24,-1
 26 744 l 1,25,26
 26 1140 26 1140 220 1339.5 c 128,-1,27
 414 1539 414 1539 737 1571 c 1,28,-1
 751 1571 l 2,12,13
EndSplineSet
EndChar

StartChar: one
Encoding: 49 49 20
Width: 1579
GlyphClass: 2
Flags: W
LayerCount: 2
Fore
SplineSet
1119 1410 m 1,0,-1
 1117 1116 l 1,1,2
 1117 823 1117 823 1122 610 c 1,3,-1
 1131 -11 l 1,4,5
 1103 -34 1103 -34 1002 -34 c 1,6,-1
 916 -32 l 1,7,-1
 899 -32 l 1,8,-1
 858 -33 l 1,9,-1
 817 -33 l 1,10,-1
 754 -34 l 1,11,12
 629 -34 629 -34 554 -31 c 1,13,-1
 538 -6 l 2,14,15
 528 10 528 10 528 109 c 128,-1,16
 528 208 528 208 531 372.5 c 128,-1,17
 534 537 534 537 536 706 c 2,18,-1
 540 980 l 1,19,20
 375 868 375 868 294 844 c 128,-1,21
 213 820 213 820 212 828 c 1,22,-1
 212 934 l 1,23,-1
 211 979 l 1,24,-1
 211 1158 l 2,25,26
 211 1242 211 1242 218 1245 c 128,-1,27
 225 1248 225 1248 246 1259.5 c 128,-1,28
 267 1271 267 1271 281.5 1278 c 128,-1,29
 296 1285 296 1285 315.5 1292 c 128,-1,30
 335 1299 335 1299 343 1304 c 128,-1,31
 351 1309 351 1309 359.5 1313 c 128,-1,32
 368 1317 368 1317 373 1320 c 2,33,-1
 445 1356 l 2,34,35
 621 1444 621 1444 672 1525 c 1,36,-1
 980 1519 l 1,37,38
 1072 1519 1072 1519 1116 1523 c 1,39,40
 1119 1516 1119 1516 1119 1467 c 2,41,-1
 1119 1410 l 1,0,-1
EndSplineSet
EndChar

StartChar: two
Encoding: 50 50 21
Width: 1458
GlyphClass: 2
Flags: W
LayerCount: 2
Fore
SplineSet
1332 387 m 1,0,1
 1436 387 1436 387 1436 219 c 1,2,-1
 1431 23 l 1,3,-1
 1431 3 l 2,4,5
 1431 -21 1431 -21 1409 -24 c 1,6,-1
 997 -15 l 1,7,8
 556 -15 556 -15 98 -35 c 1,9,-1
 85 -18 l 1,10,11
 68 -6 68 -6 68 82.5 c 128,-1,12
 68 171 68 171 70 239 c 1,13,-1
 70 246 l 1,14,15
 72 308 72 308 72 371 c 0,16,17
 72 386 72 386 231 492 c 2,18,-1
 404 607 l 1,19,20
 842 906 842 906 842 1051.5 c 128,-1,21
 842 1197 842 1197 739 1197 c 128,-1,22
 636 1197 636 1197 611 1082 c 0,23,24
 601 1035 601 1035 587 1028 c 1,25,26
 564 1027 564 1027 542 1027 c 2,27,-1
 191 1027 l 1,28,-1
 146 1028 l 1,29,-1
 107 1028 l 2,30,31
 73 1028 73 1028 68 1037 c 1,32,33
 76 1157 76 1157 95 1215 c 1,34,35
 190 1564 190 1564 773 1564 c 0,36,37
 1033 1564 1033 1564 1226 1448.5 c 128,-1,38
 1419 1333 1419 1333 1419 1071 c 128,-1,39
 1419 809 1419 809 1100 571 c 1,40,-1
 900 430 l 1,41,42
 890 420 890 420 870 402 c 2,43,-1
 844 378 l 1,44,-1
 1332 387 l 1,0,1
EndSplineSet
EndChar

StartChar: three
Encoding: 51 51 22
Width: 1454
GlyphClass: 2
Flags: W
LayerCount: 2
Fore
SplineSet
819 1083 m 0,0,1
 819 1209 819 1209 696 1209 c 0,2,3
 600 1209 600 1209 578 1092 c 1,4,-1
 579 1093 l 1,5,-1
 566 1053 l 2,6,7
 561 1039 561 1039 553 1033 c 1,8,9
 362 1033 362 1033 162 1039 c 1,10,-1
 125 1039 l 1,11,-1
 108 1038 l 1,12,13
 56 1038 56 1038 49 1057 c 1,14,15
 54 1100 54 1100 56.5 1143 c 128,-1,16
 59 1186 59 1186 69 1214 c 0,17,18
 130 1389 130 1389 254 1469 c 1,19,-1
 254 1468 l 1,20,21
 423 1566 423 1566 712 1566 c 0,22,23
 1221 1566 1221 1566 1348 1270 c 0,24,25
 1374 1210 1374 1210 1374 1134 c 0,26,27
 1374 896 1374 896 1061 798 c 1,28,29
 1251 739 1251 739 1329.5 654.5 c 128,-1,30
 1408 570 1408 570 1408 437 c 0,31,32
 1408 128 1408 128 1117 10 c 0,33,34
 1013 -33 1013 -33 918 -45 c 0,35,36
 372 -114 372 -114 133 120 c 1,37,38
 34 206 34 206 24 446 c 0,39,40
 24 459 24 459 59 459 c 128,-1,41
 94 459 94 459 158.5 460.5 c 128,-1,42
 223 462 223 462 283 463 c 2,43,-1
 530 467 l 2,44,45
 545 467 545 467 547 454 c 0,46,47
 566 297 566 297 700.5 297 c 128,-1,48
 835 297 835 297 835 434 c 0,49,50
 835 618 835 618 612 608 c 0,51,52
 589 607 589 607 583 607 c 2,53,-1
 572 607 l 2,54,55
 527 607 527 607 515.5 627 c 128,-1,56
 504 647 504 647 504 773.5 c 128,-1,57
 504 900 504 900 541 900 c 2,58,-1
 579 900 l 1,59,-1
 600 899 l 1,60,-1
 621 899 l 2,61,62
 819 899 819 899 819 1083 c 0,0,1
EndSplineSet
EndChar

StartChar: four
Encoding: 52 52 23
Width: 1433
GlyphClass: 2
Flags: W
LayerCount: 2
Fore
SplineSet
706 212 m 2,0,1
 706 255 706 255 629.5 255 c 128,-1,2
 553 255 553 255 479 224 c 1,3,-1
 193 221 l 2,4,5
 164 220 164 220 134 218 c 0,6,7
 19 210 19 210 -3 244 c 1,8,-1
 -3 352 l 2,9,10
 -3 476 -3 476 3 605 c 1,11,12
 87 816 87 816 299 1140 c 1,13,-1
 299 1139 l 1,14,15
 306 1148 306 1148 312.5 1160 c 128,-1,16
 319 1172 319 1172 344 1210.5 c 128,-1,17
 369 1249 369 1249 422 1330.5 c 128,-1,18
 475 1412 475 1412 531 1503 c 1,19,20
 541 1513 541 1513 590.5 1513 c 128,-1,21
 640 1513 640 1513 651 1514 c 2,22,-1
 741 1517 l 2,23,24
 942 1524 942 1524 1074 1524 c 2,25,-1
 1259 1524 l 1,26,-1
 1276 1518 l 1,27,-1
 1276 1470 l 1,28,-1
 1269 892 l 1,29,-1
 1270 796 l 1,30,-1
 1270 772 l 1,31,-1
 1268 717 l 1,32,33
 1268 618 1268 618 1334 618 c 2,34,-1
 1399 618 l 1,35,-1
 1421 619 l 1,36,37
 1451 619 1451 619 1454 583 c 1,38,-1
 1450 579 l 1,39,-1
 1456 327 l 1,40,41
 1456 221 1456 221 1442 221 c 2,42,-1
 1384 221 l 1,43,-1
 1361 220 l 1,44,-1
 1276 220 l 1,45,46
 1279 150 1279 150 1279 61 c 128,-1,47
 1279 -28 1279 -28 1259 -31 c 1,48,49
 1157 -29 1157 -29 1057 -29 c 2,50,-1
 1020 -29 l 2,51,52
 820 -29 820 -29 729 -35 c 1,53,-1
 728 -34 l 1,54,-1
 728 -35 l 1,55,-1
 704 -2 l 1,56,-1
 706 176 l 1,57,-1
 706 212 l 2,0,1
1463 593 m 1,58,-1
 1468 581 l 1,59,-1
 1454 581 l 1,60,-1
 1454 583 l 1,61,-1
 1463 593 l 1,58,-1
1468 581 m 1,62,-1
 1475 581 l 1,63,64
 1475 575 1475 575 1471 575 c 1,65,-1
 1468 581 l 1,62,-1
778 711 m 1,66,-1
 781 845 l 1,67,68
 781 1180 781 1180 712 1186 c 1,69,70
 689 1173 689 1173 678 1157 c 1,71,-1
 627 1066 l 2,72,73
 607 1030 607 1030 587 993.5 c 128,-1,74
 567 957 567 957 547 922 c 2,75,-1
 491 824 l 2,76,77
 417 693 417 693 385 634 c 1,78,-1
 398 607 l 1,79,-1
 398 581 l 1,80,-1
 420 559 l 1,81,-1
 452 559 l 1,82,-1
 732 564 l 1,83,84
 774 584 774 584 779 618 c 1,85,-1
 779 639 l 1,86,-1
 778 661 l 1,87,-1
 778 711 l 1,66,-1
EndSplineSet
EndChar

StartChar: five
Encoding: 53 53 24
Width: 1469
GlyphClass: 2
Flags: W
LayerCount: 2
Fore
SplineSet
721 296 m 0,0,1
 845 296 845 296 845 496.5 c 128,-1,2
 845 697 845 697 724 697 c 0,3,4
 648 697 648 697 631 624 c 1,5,-1
 631 623 l 1,6,7
 622 575 622 575 605 573 c 1,8,9
 524 576 524 576 398 576 c 2,10,-1
 168 576 l 2,11,12
 131 576 131 576 131 673 c 2,13,-1
 131 715 l 1,14,-1
 132 729 l 1,15,-1
 129 949 l 2,16,17
 127 1051 127 1051 127 1147 c 2,18,-1
 127 1380 l 2,19,20
 127 1400 127 1400 129 1422 c 1,21,-1
 129 1458 l 2,22,23
 129 1514 129 1514 147 1540 c 1,24,25
 184 1538 184 1538 216 1538 c 2,26,-1
 283 1538 l 1,27,-1
 1267 1529 l 1,28,-1
 1282 1530 l 1,29,30
 1318 1530 1318 1530 1327 1516 c 1,31,-1
 1327 1321 l 2,32,33
 1327 1174 1327 1174 1319.5 1168.5 c 128,-1,34
 1312 1163 1312 1163 1302 1163 c 2,35,-1
 1283 1163 l 2,36,37
 952 1163 952 1163 626 1159 c 1,38,39
 618 1133 618 1133 618.5 1101.5 c 128,-1,40
 619 1070 619 1070 617 1044 c 2,41,-1
 610 948 l 2,42,43
 610 942 610 942 609.5 927.5 c 128,-1,44
 609 913 609 913 609 908 c 1,45,46
 756 1007 756 1007 951 1007 c 128,-1,47
 1146 1007 1146 1007 1279 872 c 128,-1,48
 1412 737 1412 737 1412 528 c 128,-1,49
 1412 319 1412 319 1273 129.5 c 128,-1,50
 1134 -60 1134 -60 736 -60 c 0,51,52
 322 -60 322 -60 155 155 c 1,53,54
 102 235 102 235 76 396 c 1,55,56
 83 412 83 412 161 412 c 1,57,-1
 184 411 l 1,58,-1
 351 411 l 1,59,-1
 626 406 l 1,60,61
 635 400 635 400 639 382 c 0,62,63
 658 296 658 296 721 296 c 0,0,1
649 616 m 1,64,-1
 631 623 l 2,65,66
 631 624 631 624 631.5 624 c 128,-1,67
 632 624 632 624 632 625 c 2,68,-1
 649 616 l 1,64,-1
EndSplineSet
EndChar

StartChar: six
Encoding: 54 54 25
Width: 1457
GlyphClass: 2
Flags: W
LayerCount: 2
Fore
SplineSet
779 720 m 1,0,1
 584 720 584 720 584 475 c 0,2,3
 584 323 584 323 681 261 c 1,4,-1
 693 276 l 1,5,6
 696 275 696 275 703 275 c 1,7,-1
 699 255 l 1,8,-1
 714 250 l 1,9,-1
 713 251 l 1,10,11
 767 235 767 235 772 235 c 0,12,13
 883 235 883 235 927 309.5 c 128,-1,14
 971 384 971 384 970 492 c 0,15,16
 966 716 966 716 779 720 c 1,0,1
780 1209 m 0,17,18
 602 1209 602 1209 602 917 c 2,19,-1
 602 877 l 1,20,-1
 603 848 l 1,21,-1
 603 841 l 1,22,23
 728 988 728 988 934.5 988 c 128,-1,24
 1141 988 1141 988 1288 852.5 c 128,-1,25
 1435 717 1435 717 1435 512 c 0,26,27
 1435 160 1435 160 1091 13 c 0,28,29
 955 -45 955 -45 802 -54 c 1,30,31
 446 -48 446 -48 309 73 c 1,32,-1
 309 72 l 1,33,34
 139 244 139 244 96 412.5 c 128,-1,35
 53 581 53 581 53 753 c 0,36,37
 53 1104 53 1104 252 1332 c 0,38,39
 452 1560 452 1560 788 1578 c 1,40,41
 1309 1563 1309 1563 1367 1141 c 1,42,43
 1268 1119 1268 1119 1065.5 1119 c 128,-1,44
 863 1119 863 1119 861 1115 c 1,45,-1
 859 1175 l 1,46,47
 837 1209 837 1209 780 1209 c 0,17,18
EndSplineSet
EndChar

StartChar: seven
Encoding: 55 55 26
Width: 1462
GlyphClass: 2
Flags: W
LayerCount: 2
Fore
SplineSet
125 1109 m 2,0,1
 99 1109 99 1109 76 1141 c 1,2,-1
 76 1421 l 1,3,-1
 72 1485 l 1,4,5
 72 1547 72 1547 99 1547 c 0,6,7
 418 1547 418 1547 1163 1533 c 2,8,-1
 1370 1529 l 2,9,10
 1394 1529 1394 1529 1394 1383 c 2,11,-1
 1394 1336 l 2,12,13
 1394 1120 1394 1120 1364 1051 c 0,14,15
 1317 939 1317 939 1170.5 690 c 128,-1,16
 1024 441 1024 441 804 -17 c 1,17,18
 799 -32 799 -32 777 -32 c 2,19,-1
 687 -31 l 1,20,-1
 638 -31 l 1,21,-1
 588 -30 l 1,22,-1
 499 -30 l 1,23,-1
 434 -31 l 1,24,25
 193 -31 193 -31 193 -13.5 c 128,-1,26
 193 4 193 4 202 18 c 128,-1,27
 211 32 211 32 219 52 c 1,28,-1
 641 894 l 2,29,30
 653 918 653 918 667.5 946.5 c 128,-1,31
 682 975 682 975 696.5 1003.5 c 128,-1,32
 711 1032 711 1032 725.5 1060.5 c 128,-1,33
 740 1089 740 1089 754 1113 c 1,34,-1
 684 1113 l 2,35,36
 533 1113 533 1113 365 1109 c 1,37,-1
 125 1109 l 2,0,1
EndSplineSet
EndChar

StartChar: eight
Encoding: 56 56 27
Width: 1451
GlyphClass: 2
Flags: W
LayerCount: 2
Fore
SplineSet
307 764 m 1,0,1
 84 867 84 867 84 1102.5 c 128,-1,2
 84 1338 84 1338 280 1453 c 128,-1,3
 476 1568 476 1568 734.5 1568 c 128,-1,4
 993 1568 993 1568 1189.5 1452 c 128,-1,5
 1386 1336 1386 1336 1386 1099.5 c 128,-1,6
 1386 863 1386 863 1140 776 c 1,7,8
 1300 697 1300 697 1365.5 616 c 128,-1,9
 1431 535 1431 535 1431 417 c 0,10,11
 1431 129 1431 129 1188 19 c 0,12,13
 1016 -59 1016 -59 703 -59 c 0,14,15
 85 -59 85 -59 37 391 c 1,16,17
 59 640 59 640 307 764 c 1,0,1
546 436 m 1,18,19
 570 242 570 242 743 242 c 128,-1,20
 916 242 916 242 916 444 c 128,-1,21
 916 646 916 646 732 646 c 0,22,23
 650 646 650 646 598 584.5 c 128,-1,24
 546 523 546 523 546 436 c 1,18,19
573 1071 m 0,25,26
 573 881 573 881 733.5 881 c 128,-1,27
 894 881 894 881 894 1071.5 c 128,-1,28
 894 1262 894 1262 728 1262 c 0,29,30
 654 1262 654 1262 613.5 1201 c 128,-1,31
 573 1140 573 1140 573 1071 c 0,25,26
EndSplineSet
EndChar

StartChar: nine
Encoding: 57 57 28
Width: 1456
GlyphClass: 2
Flags: W
LayerCount: 2
Fore
SplineSet
1430 780 m 0,0,1
 1430 -69 1430 -69 632 -69 c 0,2,3
 132 -69 132 -69 113 378 c 1,4,5
 129 399 129 399 142 410 c 1,6,-1
 603 403 l 1,7,8
 611 400 611 400 628 349 c 128,-1,9
 645 298 645 298 720 298 c 0,10,11
 862 298 862 298 881 570 c 1,12,-1
 881 600 l 1,13,-1
 882 622 l 1,14,-1
 882 628 l 1,15,16
 760 549 760 549 574 546.5 c 128,-1,17
 388 544 388 544 223.5 665 c 128,-1,18
 59 786 59 786 50 1002 c 1,19,20
 70 1265 70 1265 273 1412.5 c 128,-1,21
 476 1560 476 1560 779 1560 c 128,-1,22
 1082 1560 1082 1560 1252 1360 c 1,23,-1
 1252 1361 l 1,24,25
 1430 1138 1430 1138 1430 780 c 0,0,1
707 1261 m 0,26,27
 505 1261 505 1261 511.5 1024 c 128,-1,28
 518 787 518 787 705 787 c 128,-1,29
 892 787 892 787 892 1024 c 128,-1,30
 892 1261 892 1261 707 1261 c 0,26,27
EndSplineSet
EndChar

StartChar: colon
Encoding: 58 58 29
Width: 771
GlyphClass: 2
Flags: W
LayerCount: 2
Fore
SplineSet
476 -35 m 2,0,-1
 194 -34 l 2,1,2
 166 -34 166 -34 147 -35 c 1,3,-1
 124 2 l 1,4,-1
 124 35 l 2,5,6
 124 201 124 201 135 408 c 0,7,8
 135 419 135 419 333 419 c 1,9,-1
 389 418 l 1,10,-1
 541 418 l 2,11,12
 629 418 629 418 645 406 c 1,13,-1
 645 218 l 1,14,-1
 647 124 l 1,15,-1
 647 20 l 2,16,17
 647 4 647 4 648 -12 c 1,18,19
 628 -35 628 -35 476 -35 c 2,0,-1
648 974 m 1,20,-1
 647 939 l 1,21,-1
 647 931 l 1,22,-1
 652 795 l 1,23,-1
 645 748 l 1,24,25
 654 708 654 708 654 674.5 c 128,-1,26
 654 641 654 641 642 641 c 0,27,28
 374 626 374 626 152 626 c 1,29,-1
 129 662 l 1,30,31
 128 677 128 677 128 690 c 2,32,-1
 128 737 l 1,33,-1
 130 807 l 1,34,-1
 130 867 l 2,35,36
 130 1063 130 1063 145 1078 c 1,37,38
 174 1077 174 1077 200 1077 c 2,39,-1
 255 1077 l 1,40,-1
 327 1078 l 1,41,-1
 396 1078 l 1,42,-1
 511 1079 l 1,43,-1
 556 1079 l 2,44,45
 646 1079 646 1079 646 1068 c 0,46,47
 648 1022 648 1022 648 974 c 1,20,-1
EndSplineSet
EndChar

StartChar: semicolon
Encoding: 59 59 30
Width: 733
GlyphClass: 2
Flags: W
LayerCount: 2
Fore
SplineSet
464.5 439.5 m 128,-1,1
 496 440 496 440 583 440 c 128,-1,2
 670 440 670 440 670 429 c 2,3,-1
 670 417 l 1,4,5
 632 313 632 313 574 132 c 2,6,-1
 527 -15 l 1,7,-1
 513 -64 l 1,8,-1
 491 -118 l 2,9,10
 483 -140 483 -140 473.5 -161 c 128,-1,11
 464 -182 464 -182 456 -203 c 1,12,13
 446 -219 446 -219 236 -219 c 1,14,-1
 77 -217 l 1,15,-1
 27 -217 l 1,16,-1
 9 -199 l 1,17,-1
 10 -196 l 1,18,-1
 16 -164 l 2,19,20
 32 -80 32 -80 37 -60 c 128,-1,21
 42 -40 42 -40 46 -18 c 0,22,23
 51 16 51 16 65 87 c 0,24,25
 131 438 131 438 165 438 c 2,26,-1
 195 438 l 1,27,-1
 226 437 l 1,28,-1
 288 437 l 2,29,30
 323 437 323 437 350.5 437.5 c 128,-1,31
 378 438 378 438 405.5 438.5 c 128,-1,0
 433 439 433 439 464.5 439.5 c 128,-1,1
173 595 m 1,32,33
 145 635 145 635 145 671 c 2,34,-1
 145 684 l 1,35,-1
 146 689 l 1,36,-1
 149 781 l 2,37,38
 150 790 150 790 150.5 813 c 128,-1,39
 151 836 151 836 152 866 c 1,40,41
 154 895 154 895 155 969 c 128,-1,42
 156 1043 156 1043 167 1059 c 1,43,-1
 204 1059 l 1,44,-1
 278 1060 l 1,45,-1
 352 1060 l 1,46,-1
 472 1061 l 1,47,-1
 538 1061 l 2,48,49
 666 1061 666 1061 666 1058 c 0,50,51
 673 811 673 811 673 649 c 2,52,-1
 673 615 l 1,53,-1
 669 616 l 1,54,-1
 667 614 l 1,55,56
 627 612 627 612 583 611 c 128,-1,57
 539 610 539 610 499 608 c 2,58,-1
 173 595 l 1,32,33
EndSplineSet
EndChar

StartChar: less
Encoding: 60 60 31
Width: 1271
GlyphClass: 2
Flags: W
LayerCount: 2
Fore
SplineSet
1196.5 199 m 128,-1,1
 1199 176 1199 176 1199 116.5 c 128,-1,2
 1199 57 1199 57 1191 -10 c 1,3,-1
 1191 -12 l 2,4,5
 1191 -38 1191 -38 1180 -38 c 1,6,-1
 1174 -37 l 1,7,8
 696 151 696 151 450 247 c 128,-1,9
 204 343 204 343 198 345.5 c 128,-1,10
 192 348 192 348 180 352 c 0,11,12
 88 384 88 384 89 452 c 1,13,-1
 89 510 l 1,14,-1
 90 531 l 1,15,-1
 90 577 l 1,16,-1
 89 594 l 1,17,18
 89 656 89 656 119 693 c 1,19,-1
 1042 1041 l 1,20,21
 1108 1069 1108 1069 1176 1091 c 1,22,-1
 1180 1091 l 2,23,24
 1195 1091 1195 1091 1195 1022 c 2,25,-1
 1195 949 l 2,26,27
 1195 830 1195 830 1182 807 c 1,28,29
 900 699 900 699 724.5 628.5 c 128,-1,30
 549 558 549 558 464 524 c 1,31,32
 565 485 565 485 861 372.5 c 128,-1,33
 1157 260 1157 260 1169.5 253.5 c 128,-1,34
 1182 247 1182 247 1188 234.5 c 128,-1,0
 1194 222 1194 222 1196.5 199 c 128,-1,1
1175 1112 m 1,35,-1
 1182 1113 l 1,36,-1
 1185 1094 l 1,37,-1
 1175 1091 l 1,38,-1
 1175 1112 l 1,35,-1
EndSplineSet
EndChar

StartChar: equal
Encoding: 61 61 32
Width: 1273
GlyphClass: 2
Flags: W
LayerCount: 2
Fore
SplineSet
1188 160 m 1,0,1
 1188 124 1188 124 1175 124 c 2,2,-1
 890 120 l 1,3,-1
 118 105 l 1,4,-1
 97 131 l 1,5,6
 94 167 94 167 94 201 c 2,7,-1
 94 244 l 2,8,9
 94 252 94 252 95 261 c 1,10,-1
 95 280 l 1,11,-1
 96 300 l 1,12,-1
 96 325 l 1,13,-1
 95 340 l 1,14,-1
 95 355 l 2,15,16
 95 405 95 405 107 431 c 0,17,18
 108 431 108 431 109 430.5 c 128,-1,19
 110 430 110 430 109.5 430.5 c 128,-1,20
 109 431 109 431 111 431 c 2,21,-1
 133 431 l 1,22,23
 581 403 581 403 891 403 c 1,24,-1
 929 404 l 2,25,26
 989 406 989 406 1052 406 c 128,-1,27
 1115 406 1115 406 1178 411 c 1,28,29
 1187 396 1187 396 1187 276 c 2,30,-1
 1187 173 l 1,31,-1
 1188 160 l 1,0,1
209 933 m 1,32,-1
 1178 929 l 1,33,34
 1185 912 1185 912 1185 786 c 2,35,-1
 1185 661 l 1,36,37
 1184 661 1184 661 1184 662 c 2,38,-1
 898 652 l 1,39,40
 701 643 701 643 507.5 637.5 c 128,-1,41
 314 632 314 632 118 623 c 1,42,-1
 97 650 l 1,43,-1
 97 656 l 1,44,45
 95 684 95 684 95 713 c 2,46,-1
 95 797 l 1,47,-1
 96 825 l 1,48,-1
 96 849 l 1,49,-1
 95 863 l 1,50,-1
 95 875 l 2,51,52
 95 933 95 933 107 933 c 2,53,-1
 209 933 l 1,32,-1
1185 661 m 1,54,55
 1187 658 1187 658 1195 650 c 1,56,-1
 1185 639 l 1,57,-1
 1185 661 l 1,54,55
EndSplineSet
EndChar

StartChar: greater
Encoding: 62 62 33
Width: 1269
GlyphClass: 2
Flags: W
LayerCount: 2
Fore
SplineSet
1198 419 m 2,0,1
 1198 407 1198 407 1182 391 c 1,2,-1
 1185 391 l 1,3,4
 743 216 743 216 494 108 c 1,5,-1
 357 51 l 2,6,7
 199 -15 199 -15 120 -42 c 1,8,-1
 89 -8 l 1,9,10
 89 114 89 114 99 240 c 1,11,12
 113 272 113 272 298 341 c 128,-1,13
 483 410 483 410 530 428 c 1,14,-1
 562 441 l 1,15,16
 739 504 739 504 801 532 c 1,17,18
 622 605 622 605 452 677.5 c 128,-1,19
 282 750 282 750 107 812 c 1,20,21
 103 822 103 822 103 843 c 1,22,-1
 104 853 l 1,23,-1
 104 940 l 2,24,25
 104 986 104 986 102.5 1032.5 c 128,-1,26
 101 1079 101 1079 101 1083 c 1,27,28
 115 1072 115 1072 524 920 c 1,29,-1
 635 878 l 2,30,31
 922 770 922 770 1064 713 c 1,32,-1
 1186 663 l 1,33,34
 1198 639 1198 639 1198 536 c 2,35,-1
 1198 419 l 2,0,1
104 1083 m 2,36,37
 103 1083 103 1083 103 1082.5 c 128,-1,38
 103 1082 103 1082 101 1082 c 128,-1,39
 99 1082 99 1082 98 1085 c 1,40,-1
 104 1083 l 2,36,37
EndSplineSet
EndChar

StartChar: question
Encoding: 63 63 34
Width: 1121
GlyphClass: 2
Flags: W
LayerCount: 2
Fore
SplineSet
52 1123 m 1,0,1
 54 1303 54 1303 54 1480 c 0,2,3
 54 1545 54 1545 357 1564 c 0,4,5
 399 1566 399 1566 435 1568 c 2,6,-1
 474 1570 l 1,7,8
 711 1570 711 1570 872 1497 c 1,9,-1
 917 1474 l 1,10,-1
 916 1475 l 1,11,12
 1000 1422 1000 1422 1043 1354 c 1,13,-1
 1055 1329 l 1,14,15
 1090 1244 1090 1244 1094 1201 c 1,16,-1
 1094 1196 l 1,17,18
 1130 972 1130 972 927 825 c 0,19,20
 861 777 861 777 786 724 c 128,-1,21
 711 671 711 671 713 608.5 c 128,-1,22
 715 546 715 546 715 493 c 1,23,-1
 721 493 l 1,24,25
 700 485 700 485 689 485 c 2,26,-1
 569 483 l 1,27,28
 437 483 437 483 202 475 c 1,29,30
 191 481 191 481 191 564 c 0,31,32
 191 689 191 689 335.5 821.5 c 128,-1,33
 480 954 480 954 498 1048 c 1,34,35
 486 1141 486 1141 361 1141 c 1,36,-1
 356 1140 l 1,37,38
 231 1137 231 1137 85 1080 c 1,39,-1
 52 1107 l 1,40,-1
 52 1123 l 1,0,1
208 -35 m 1,41,42
 186 -2 186 -2 186 42 c 2,43,-1
 186 98 l 1,44,-1
 187 117 l 1,45,-1
 187 200 l 1,46,-1
 186 221 l 1,47,48
 186 318 186 318 204 342 c 1,49,-1
 290 339 l 2,50,51
 382 336 382 336 449 335 c 128,-1,52
 516 334 516 334 586 332 c 0,53,54
 707 327 707 327 707 276 c 2,55,-1
 709 78 l 1,56,-1
 710 46 l 1,57,-1
 710 -14 l 1,58,59
 663 -20 663 -20 612 -18.5 c 128,-1,60
 561 -17 561 -17 511 -20 c 2,61,-1
 457 -23 l 2,62,63
 431 -25 431 -25 406 -27 c 128,-1,64
 381 -29 381 -29 354 -30 c 2,65,-1
 279 -33 l 2,66,67
 243 -35 243 -35 208 -35 c 1,41,42
709 -15 m 1,68,-1
 711 -15 l 1,69,-1
 709 -15 l 1,70,-1
 710 -14 l 1,71,-1
 712 -14 l 1,72,-1
 711 -15 l 1,73,-1
 724 -13 l 1,74,75
 724 -36 724 -36 709 -36 c 1,76,-1
 709 -15 l 1,68,-1
EndSplineSet
EndChar

StartChar: at
Encoding: 64 64 35
Width: 1671
GlyphClass: 2
Flags: W
LayerCount: 2
Fore
SplineSet
1286 445 m 1,0,1
 1486 530 1486 530 1486 818 c 0,2,3
 1486 1218 1486 1218 1182 1342 c 1,4,5
 1058 1394 1058 1394 911 1394 c 0,6,7
 619 1394 619 1394 427 1215.5 c 128,-1,8
 235 1037 235 1037 235 744.5 c 128,-1,9
 235 452 235 452 430 285 c 128,-1,10
 625 118 625 118 826 118 c 128,-1,11
 1027 118 1027 118 1125 146 c 1,12,13
 1130 131 1130 131 1131 124 c 128,-1,14
 1132 117 1132 117 1136 106 c 2,15,-1
 1159 35 l 1,16,17
 1023 -12 1023 -12 826.5 -12 c 128,-1,18
 630 -12 630 -12 457 86 c 0,19,20
 79 300 79 300 79 754.5 c 128,-1,21
 79 1209 79 1209 488 1427 c 0,22,23
 667 1522 667 1522 920.5 1522 c 128,-1,24
 1174 1522 1174 1522 1353.5 1389.5 c 128,-1,25
 1533 1257 1533 1257 1575.5 1135.5 c 128,-1,26
 1618 1014 1618 1014 1618 930 c 0,27,28
 1618 621 1618 621 1424 426 c 1,29,30
 1336 339 1336 339 1245 329 c 1,31,32
 1129 338 1129 338 1068 499 c 1,33,-1
 1035 499 l 1,34,35
 912 349 912 349 767.5 349 c 128,-1,36
 623 349 623 349 534 436 c 128,-1,37
 445 523 445 523 445 647 c 2,38,-1
 445 682 l 2,39,40
 445 843 445 843 556 970 c 128,-1,41
 667 1097 667 1097 822 1097 c 128,-1,42
 977 1097 977 1097 1055 1021 c 1,43,-1
 1127 914 l 1,44,-1
 1137 950 l 2,45,46
 1145 981 1145 981 1156 1018.5 c 128,-1,47
 1167 1056 1167 1056 1175 1088 c 1,48,-1
 1259 1085 l 1,49,-1
 1191 703 l 1,50,51
 1176 636 1176 636 1176 594 c 0,52,53
 1176 444 1176 444 1286 445 c 1,0,1
1038 658 m 0,54,55
 1058 707 1058 707 1058 768 c 128,-1,56
 1058 829 1058 829 1012 889.5 c 128,-1,57
 966 950 966 950 866.5 950 c 128,-1,58
 767 950 767 950 701 879 c 128,-1,59
 635 808 635 808 620 703 c 1,60,61
 620 490 620 490 795 488 c 128,-1,62
 970 486 970 486 1038 658 c 0,54,55
EndSplineSet
EndChar

StartChar: A
Encoding: 65 65 36
Width: 1639
GlyphClass: 2
Flags: W
LayerCount: 2
Fore
SplineSet
1697 -11 m 1,0,1
 1695 -24 1695 -24 1609 -24 c 2,2,-1
 1550 -24 l 1,3,-1
 1488 -25 l 1,4,-1
 1427 -25 l 1,5,-1
 1330 -26 l 1,6,7
 1089 -26 1089 -26 1082 -7 c 1,8,-1
 1077 14 l 1,9,10
 1069 120 1069 120 1030 213 c 1,11,-1
 602 209 l 1,12,13
 588 153 588 153 572.5 95 c 128,-1,14
 557 37 557 37 543 -19 c 1,15,16
 533 -29 533 -29 448 -29 c 1,17,-1
 423 -28 l 1,18,-1
 365 -28 l 1,19,-1
 105 -34 l 1,20,-1
 75 -34 l 1,21,-1
 47 -35 l 1,22,-1
 -23 -35 l 1,23,24
 -31 -28 -31 -28 -38 -17 c 1,25,26
 23 198 23 198 93.5 412.5 c 128,-1,27
 164 627 164 627 233 841 c 2,28,-1
 256 912 l 1,29,-1
 255 912 l 1,30,-1
 282 995 l 2,31,32
 323 1121 323 1121 366 1245.5 c 128,-1,33
 409 1370 409 1370 429 1437.5 c 128,-1,34
 449 1505 449 1505 452 1507 c 1,35,-1
 618 1507 l 1,36,-1
 973 1512 l 1,37,-1
 1069 1507 l 1,38,-1
 1148 1512 l 1,39,40
 1208 1512 1208 1512 1208 1488 c 1,41,42
 1326 1157 1326 1157 1466.5 712 c 128,-1,43
 1607 267 1607 267 1663 96 c 1,44,-1
 1677 46 l 1,45,46
 1682 22 1682 22 1697 -11 c 1,0,1
707 535 m 1,47,-1
 748 534 l 1,48,-1
 903 534 l 2,49,50
 945 534 945 534 987 535 c 1,51,52
 978 593 978 593 972.5 641 c 128,-1,53
 967 689 967 689 964 710 c 1,54,-1
 926 881 l 2,55,56
 911 947 911 947 895.5 1013 c 128,-1,57
 880 1079 880 1079 866 1146 c 1,58,-1
 851 1180 l 2,59,60
 845 1192 845 1192 820 1203 c 1,61,62
 791 1194 791 1194 730 919 c 128,-1,63
 669 644 669 644 659 601 c 1,64,-1
 648 535 l 1,65,-1
 707 535 l 1,47,-1
EndSplineSet
EndChar

StartChar: B
Encoding: 66 66 37
Width: 1571
GlyphClass: 2
Flags: W
LayerCount: 2
Fore
SplineSet
132 -33 m 1,0,1
 104 22 104 22 104 431.5 c 128,-1,2
 104 841 104 841 109 1116 c 1,3,-1
 108 1136 l 1,4,-1
 108 1198 l 2,5,6
 108 1306 108 1306 113 1494 c 1,7,-1
 111 1496 l 1,8,-1
 165 1499 l 2,9,10
 403 1513 403 1513 504 1513 c 2,11,-1
 970 1513 l 2,12,13
 1493 1513 1493 1513 1493 1111 c 0,14,15
 1493 905 1493 905 1229 767 c 1,16,17
 1537 683 1537 683 1537 432.5 c 128,-1,18
 1537 182 1537 182 1355.5 77 c 128,-1,19
 1174 -28 1174 -28 942 -28 c 1,20,-1
 644 -24 l 1,21,22
 431 -24 431 -24 132 -33 c 1,0,1
731 279 m 1,23,24
 990 280 990 280 990 462 c 0,25,26
 990 612 990 612 843 642 c 1,27,28
 802 649 802 649 727 652 c 1,29,-1
 698 652 l 1,30,-1
 680 596 l 1,31,32
 673 491 673 491 673 393 c 128,-1,33
 673 295 673 295 694 279 c 1,34,-1
 731 279 l 1,23,24
739 1217 m 0,35,36
 652 1217 652 1217 652 1157 c 0,37,38
 652 1066 652 1066 657 938 c 2,39,-1
 659 885 l 2,40,41
 661 847 661 847 703 840 c 1,42,-1
 752 846 l 2,43,44
 966 872 966 872 966 1044.5 c 128,-1,45
 966 1217 966 1217 739 1217 c 0,35,36
EndSplineSet
EndChar

StartChar: C
Encoding: 67 67 38
Width: 1556
GlyphClass: 2
Flags: W
LayerCount: 2
Fore
SplineSet
49 797 m 1,0,1
 127 1538 127 1538 859 1538 c 0,2,3
 1173 1538 1173 1538 1336.5 1400 c 128,-1,4
 1500 1262 1500 1262 1521 1033 c 2,5,-1
 1530 939 l 1,6,7
 1514 923 1514 923 1315 923 c 1,8,-1
 1156 925 l 1,9,-1
 1143 925 l 1,10,-1
 1056 927 l 1,11,-1
 1032 926 l 1,12,-1
 1012 926 l 2,13,14
 987 926 987 926 972.5 994.5 c 128,-1,15
 958 1063 958 1063 938 1103 c 128,-1,16
 918 1143 918 1143 864 1143 c 0,17,18
 771 1143 771 1143 732 1084 c 1,19,20
 674 999 674 999 674 753 c 2,21,-1
 674 729 l 1,22,-1
 670 628 l 1,23,24
 670 352 670 352 826 346 c 1,25,26
 907 346 907 346 936.5 443 c 128,-1,27
 966 540 966 540 974 552 c 1,28,-1
 1012 552 l 1,29,-1
 1058 551 l 1,30,-1
 1220 551 l 1,31,-1
 1269 552 l 1,32,-1
 1364 551 l 1,33,-1
 1422 551 l 1,34,-1
 1481 550 l 1,35,-1
 1521 550 l 1,36,37
 1533 548 1533 548 1538 529 c 1,38,-1
 1535 496 l 1,39,40
 1513 209 1513 209 1301.5 72 c 128,-1,41
 1090 -65 1090 -65 800 -65 c 128,-1,42
 510 -65 510 -65 325 79 c 0,43,44
 49 293 49 293 49 797 c 1,0,1
EndSplineSet
EndChar

StartChar: D
Encoding: 68 68 39
Width: 1648
GlyphClass: 2
Flags: W
LayerCount: 2
Fore
SplineSet
514 1512 m 1,0,-1
 701 1515 l 1,1,2
 1190 1515 1190 1515 1388 1353 c 1,3,4
 1454 1304 1454 1304 1539.5 1151.5 c 128,-1,5
 1625 999 1625 999 1625 697 c 128,-1,6
 1625 395 1625 395 1406.5 187.5 c 128,-1,7
 1188 -20 1188 -20 882 -23 c 1,8,-1
 878 -27 l 1,9,-1
 853 -27 l 1,10,-1
 587 -24 l 1,11,12
 390 -24 390 -24 134 -33 c 1,13,14
 115 3 115 3 115 52 c 1,15,-1
 116 88 l 1,16,-1
 116 244 l 1,17,-1
 118 466 l 1,18,-1
 118 832 l 1,19,20
 116 928 116 928 116 1020 c 2,21,-1
 116 1184 l 1,22,-1
 117 1207 l 1,23,-1
 117 1493 l 2,24,25
 117 1512 117 1512 400 1512 c 2,26,-1
 514 1512 l 1,0,-1
810 1212 m 0,27,28
 779 1214 779 1214 748 1214 c 128,-1,29
 717 1214 717 1214 686 1216 c 1,30,31
 673 1198 673 1198 662 1176 c 2,32,-1
 644 1139 l 1,33,-1
 644 1083 l 2,34,35
 644 913 644 913 652 614 c 1,36,-1
 658 325 l 1,37,38
 664 294 664 294 698 288 c 1,39,40
 807 291 807 291 857 302 c 1,41,42
 1054 372 1054 372 1054 782 c 128,-1,43
 1054 1192 1054 1192 810 1212 c 0,27,28
EndSplineSet
EndChar

StartChar: E
Encoding: 69 69 40
Width: 1306
GlyphClass: 2
Flags: W
LayerCount: 2
Fore
SplineSet
109 1501 m 1,0,-1
 1267 1506 l 1,1,-1
 1267 1224 l 1,2,3
 1266 1207 1266 1207 1266.5 1190.5 c 128,-1,4
 1267 1174 1267 1174 1265 1157 c 1,5,6
 1260 1141 1260 1141 1206 1141 c 2,7,-1
 1199 1141 l 2,8,9
 943 1141 943 1141 695 1149 c 1,10,11
 694 1135 694 1135 692 1116.5 c 128,-1,12
 690 1098 690 1098 689 1084 c 2,13,-1
 684 1046 l 2,14,15
 680 1016 680 1016 677 914 c 1,16,-1
 987 921 l 2,17,18
 1047 923 1047 923 1103 923 c 2,19,-1
 1119 923 l 2,20,21
 1218 923 1218 923 1218 899 c 1,22,-1
 1217 891 l 1,23,-1
 1217 867 l 1,24,-1
 1222 610 l 1,25,-1
 1221 609 l 1,26,-1
 1221 610 l 1,27,28
 916 595 916 595 735 595 c 2,29,-1
 688 595 l 1,30,-1
 688 353 l 1,31,-1
 1186 370 l 1,32,33
 1278 370 1278 370 1288 357 c 1,34,35
 1287 337 1287 337 1287 320 c 2,36,-1
 1287 184 l 1,37,-1
 1294 11 l 1,38,39
 1294 -15 1294 -15 1272 -18 c 1,40,-1
 940 -15 l 2,41,42
 843 -15 843 -15 743.5 -17.5 c 128,-1,43
 644 -20 644 -20 550 -22 c 2,44,-1
 386 -26 l 2,45,46
 254 -30 254 -30 128 -32 c 1,47,-1
 125 -30 l 1,48,-1
 126 -30 l 1,49,-1
 107 -11 l 1,50,-1
 107 24 l 1,51,-1
 113 1093 l 1,52,-1
 114 1238 l 1,53,-1
 109 1501 l 1,0,-1
EndSplineSet
EndChar

StartChar: F
Encoding: 70 70 41
Width: 1265
GlyphClass: 2
Flags: W
LayerCount: 2
Fore
SplineSet
1223 1511 m 1,0,1
 1270 1511 1270 1511 1270 1463 c 2,2,-1
 1269 1370 l 1,3,4
 1269 1246 1269 1246 1265 1126 c 1,5,6
 1152 1116 1152 1116 945 1116 c 2,7,-1
 714 1115 l 1,8,-1
 714 1086 l 1,9,-1
 712 998 l 1,10,-1
 712 971 l 2,11,12
 712 954 712 954 715 930 c 1,13,14
 959 951 959 951 1083.5 951 c 128,-1,15
 1208 951 1208 951 1233 933 c 1,16,-1
 1233 598 l 2,17,18
 1233 543 1233 543 1180 543 c 2,19,-1
 1167 543 l 1,20,-1
 1113 545 l 1,21,22
 898 534 898 534 716 530 c 1,23,-1
 723 132 l 1,24,-1
 722 98 l 1,25,-1
 722 4 l 2,26,27
 722 -25 722 -25 704 -28 c 1,28,-1
 132 -33 l 1,29,30
 113 5 113 5 113 106 c 2,31,-1
 119 1497 l 2,32,33
 119 1510 119 1510 255 1510 c 1,34,-1
 280 1509 l 1,35,-1
 348 1509 l 1,36,-1
 831 1514 l 1,37,-1
 1174 1510 l 1,38,-1
 1208 1510 l 1,39,-1
 1223 1511 l 1,0,1
EndSplineSet
EndChar

StartChar: G
Encoding: 71 71 42
Width: 1681
GlyphClass: 2
Flags: W
LayerCount: 2
Fore
SplineSet
1025 1049 m 1,0,1
 1001 1157 1001 1157 894 1157 c 0,2,3
 665 1157 665 1157 665 770 c 2,4,-1
 665 669 l 2,5,6
 665 463 665 463 728.5 397.5 c 128,-1,7
 792 332 792 332 909.5 332 c 128,-1,8
 1027 332 1027 332 1114 361 c 1,9,-1
 1119 519 l 1,10,-1
 1047 525 l 1,11,-1
 1037 520 l 1,12,-1
 933 520 l 1,13,-1
 921 519 l 1,14,-1
 896 545 l 1,15,16
 894 558 894 558 894 572 c 2,17,-1
 894 823 l 2,18,19
 894 840 894 840 918 857 c 1,20,-1
 985 857 l 2,21,22
 1098 857 1098 857 1180 855 c 1,23,-1
 1190 855 l 1,24,25
 1264 853 1264 853 1339 853 c 2,26,-1
 1399 853 l 1,27,-1
 1422 854 l 1,28,29
 1599 854 1599 854 1625 831 c 1,30,-1
 1613 72 l 1,31,-1
 1613 58 l 1,32,-1
 1614 54 l 1,33,-1
 1611 46 l 1,34,-1
 1612 46 l 1,35,36
 1611 44 1611 44 1611.5 43.5 c 128,-1,37
 1612 43 1612 43 1611 41 c 0,38,39
 1548 -7 1548 -7 1352 -31 c 128,-1,40
 1156 -55 1156 -55 1115 -55 c 2,41,-1
 1067 -55 l 2,42,43
 1060 -55 1060 -55 1054 -54 c 1,44,-1
 1003 -57 l 1,45,46
 943 -62 943 -62 911 -62 c 0,47,48
 491 -62 491 -62 271.5 149 c 128,-1,49
 52 360 52 360 52 708 c 0,50,51
 52 1538 52 1538 929 1539 c 0,52,53
 1539 1539 1539 1539 1576 1112 c 0,54,55
 1580 1070 1580 1070 1586 1031 c 1,56,57
 1580 1016 1580 1016 1543 1016 c 2,58,-1
 1035 1025 l 1,59,60
 1030 1027 1030 1027 1025 1052 c 1,61,-1
 1025 1049 l 1,0,1
EndSplineSet
EndChar

StartChar: H
Encoding: 72 72 43
Width: 1654
GlyphClass: 2
Flags: W
LayerCount: 2
Fore
SplineSet
966 1430 m 2,0,1
 966 1515 966 1515 1000 1515 c 1,2,-1
 1020 1514 l 1,3,4
 1060 1514 1060 1514 1100 1514 c 1,5,-1
 1301 1520 l 1,6,7
 1559 1520 1559 1520 1559 1479 c 2,8,-1
 1559 1408 l 1,9,-1
 1560 1384 l 1,10,-1
 1559 1332 l 1,11,-1
 1559 1177 l 1,12,-1
 1564 539 l 2,13,14
 1564 517 1564 517 1562 497 c 1,15,-1
 1562 449 l 2,16,17
 1562 405 1562 405 1564 365 c 1,18,-1
 1564 328 l 1,19,-1
 1563 238 l 1,20,-1
 1565 -14 l 1,21,22
 1552 -33 1552 -33 1434 -33 c 2,23,-1
 1260 -33 l 2,24,25
 1124 -33 1124 -33 971 -27 c 1,26,27
 966 -21 966 -21 961.5 -14.5 c 128,-1,28
 957 -8 957 -8 952 -2 c 1,29,-1
 952 158 l 1,30,-1
 954 465 l 2,31,32
 954 510 954 510 943.5 518 c 128,-1,33
 933 526 933 526 883 526 c 2,34,-1
 869 526 l 2,35,36
 773 526 773 526 719 517 c 1,37,-1
 719 377 l 1,38,-1
 717 -10 l 1,39,40
 701 -26 701 -26 466 -26 c 2,41,-1
 418 -26 l 2,42,43
 205 -26 205 -26 121 -20 c 1,44,45
 102 -14 102 -14 102 122 c 1,46,-1
 108 343 l 1,47,-1
 118 1239 l 1,48,-1
 118 1287 l 1,49,50
 119 1306 119 1306 119 1393.5 c 128,-1,51
 119 1481 119 1481 130 1505 c 1,52,-1
 135 1505 l 1,53,54
 185 1503 185 1503 232 1503 c 2,55,-1
 344 1503 l 1,56,-1
 465 1505 l 1,57,-1
 503 1505 l 2,58,59
 688 1505 688 1505 708 1452 c 0,60,61
 715 1433 715 1433 715 1405 c 2,62,-1
 712 1280 l 1,63,-1
 712 1233 l 1,64,-1
 706 1035 l 2,65,66
 706 1018 706 1018 709 977 c 1,67,-1
 771 977 l 1,68,-1
 796 976 l 1,69,-1
 876 976 l 2,70,71
 922 976 922 976 966 983 c 1,72,-1
 966 1220 l 1,73,-1
 967 1294 l 1,74,-1
 967 1363 l 1,75,-1
 966 1379 l 1,76,-1
 966 1430 l 2,0,1
EndSplineSet
EndChar

StartChar: I
Encoding: 73 73 44
Width: 842
GlyphClass: 2
Flags: W
LayerCount: 2
Fore
SplineSet
114 389 m 1,0,1
 114 817 114 817 123 1393 c 1,2,-1
 123 1426 l 1,3,4
 119 1460 119 1460 119 1482.5 c 128,-1,5
 119 1505 119 1505 124 1512 c 1,6,7
 330 1499 330 1499 496.5 1499 c 128,-1,8
 663 1499 663 1499 720 1505 c 1,9,10
 722 1502 722 1502 723 1488 c 1,11,-1
 716 1488 l 1,12,-1
 716 1126 l 1,13,-1
 723 312 l 2,14,15
 723 303 723 303 726 297 c 1,16,-1
 726 295 l 1,17,18
 729 289 729 289 729 267.5 c 128,-1,19
 729 246 729 246 730.5 208 c 128,-1,20
 732 170 732 170 733 135 c 2,21,-1
 737 -9 l 1,22,23
 732 -21 732 -21 719 -26 c 1,24,-1
 685 -26 l 1,25,-1
 125 -35 l 1,26,27
 111 -28 111 -28 99 -20 c 1,28,-1
 100 -3 l 1,29,-1
 103 107 l 2,30,31
 105 179 105 179 104.5 248 c 128,-1,32
 104 317 104 317 114 389 c 1,0,1
EndSplineSet
EndChar

StartChar: J
Encoding: 74 74 45
Width: 1383
GlyphClass: 2
Flags: W
LayerCount: 2
Fore
SplineSet
1288 569 m 2,0,1
 1288 -58 1288 -58 618 -58 c 0,2,3
 278 -58 278 -58 100 124 c 1,4,5
 -10 238 -10 238 -10 424 c 2,6,-1
 -10 450 l 1,7,-1
 -11 462 l 1,8,9
 -11 501 -11 501 1 501 c 2,10,-1
 130 497 l 1,11,-1
 170 497 l 1,12,-1
 250 496 l 1,13,-1
 285 496 l 1,14,-1
 298 497 l 1,15,-1
 467 494 l 1,16,17
 515 490 515 490 519 416 c 0,18,19
 523 346 523 346 597 346 c 0,20,21
 691 346 691 346 691 522 c 2,22,-1
 691 548 l 1,23,-1
 688 548 l 1,24,-1
 684 690 l 2,25,26
 672 1140 672 1140 684 1495 c 1,27,-1
 683 1496 l 1,28,29
 683 1507 683 1507 702 1510 c 1,30,-1
 751 1509 l 1,31,-1
 1117 1509 l 1,32,-1
 1190 1510 l 1,33,-1
 1288 1510 l 2,34,35
 1298 1510 1298 1510 1298 1466 c 2,36,-1
 1298 1418 l 1,37,-1
 1297 1401 l 1,38,-1
 1295 1350 l 2,39,40
 1288 1150 1288 1150 1288 786 c 2,41,-1
 1288 569 l 2,0,1
EndSplineSet
EndChar

StartChar: K
Encoding: 75 75 46
Width: 1646
GlyphClass: 2
Flags: W
LayerCount: 2
Fore
SplineSet
153 -33 m 2,0,1
 134 -33 134 -33 110 -9 c 1,2,-1
 110 143 l 1,3,-1
 112 300 l 1,4,-1
 112 865 l 1,5,-1
 115 1360 l 1,6,-1
 112 1446 l 1,7,8
 112 1502 112 1502 123 1514 c 1,9,10
 144 1515 144 1515 180 1515 c 2,11,-1
 265 1515 l 2,12,13
 314 1515 314 1515 356 1514 c 2,14,-1
 497 1512 l 1,15,16
 527 1515 527 1515 605.5 1515 c 128,-1,17
 684 1515 684 1515 704 1495 c 1,18,19
 699 1250 699 1250 699 915 c 1,20,-1
 734 909 l 1,21,22
 753 959 753 959 782 1013 c 128,-1,23
 811 1067 811 1067 834 1117 c 2,24,-1
 845 1141 l 2,25,26
 867 1189 867 1189 888.5 1232.5 c 128,-1,27
 910 1276 910 1276 945.5 1367 c 128,-1,28
 981 1458 981 1458 1021 1507 c 1,29,30
 1074 1508 1074 1508 1120 1508 c 2,31,-1
 1221 1508 l 2,32,33
 1327 1508 1327 1508 1425.5 1504.5 c 128,-1,34
 1524 1501 1524 1501 1627 1501 c 1,35,36
 1341 985 1341 985 1222 788 c 1,37,-1
 1245 751 l 1,38,39
 1297 687 1297 687 1416 475 c 128,-1,40
 1535 263 1535 263 1624 119 c 2,41,-1
 1648 80 l 1,42,43
 1692 11 1692 11 1692 -1 c 128,-1,44
 1692 -13 1692 -13 1686 -21 c 1,45,-1
 1680 -21 l 1,46,47
 1638 -19 1638 -19 1589.5 -19 c 128,-1,48
 1541 -19 1541 -19 1499 -21 c 1,49,-1
 1050 -21 l 1,50,51
 885 290 885 290 730 604 c 1,52,53
 714 455 714 455 706 226 c 1,54,-1
 706 213 l 1,55,-1
 708 -14 l 1,56,57
 695 -32 695 -32 603 -32 c 1,58,-1
 582 -31 l 1,59,-1
 528 -31 l 1,60,-1
 378 -32 l 1,61,-1
 245 -33 l 1,62,-1
 153 -33 l 2,0,1
EndSplineSet
EndChar

StartChar: L
Encoding: 76 76 47
Width: 1265
GlyphClass: 2
Flags: W
LayerCount: 2
Fore
SplineSet
1269 380 m 1,0,1
 1263 364 1263 364 1263 324 c 2,2,-1
 1263 301 l 2,3,4
 1263 249 1263 249 1270 225 c 1,5,-1
 1270 107 l 2,6,7
 1270 52 1270 52 1269 -8 c 1,8,9
 1265 -29 1265 -29 936.5 -31 c 128,-1,10
 608 -33 608 -33 531 -33.5 c 128,-1,11
 454 -34 454 -34 390 -34 c 2,12,-1
 282 -34 l 2,13,14
 211 -34 211 -34 133 -32 c 1,15,16
 117 -3 117 -3 117 67 c 1,17,-1
 119 132 l 1,18,-1
 119 359 l 1,19,-1
 120 549 l 1,20,-1
 120 737 l 1,21,-1
 121 1040 l 1,22,-1
 121 1110 l 2,23,24
 121 1142 121 1142 119 1198 c 1,25,-1
 119 1209 l 1,26,-1
 116 1353 l 1,27,28
 116 1482 116 1482 137 1518 c 1,29,30
 152 1517 152 1517 164 1517 c 2,31,-1
 240 1517 l 1,32,-1
 408 1519 l 1,33,34
 695 1519 695 1519 724 1483 c 1,35,-1
 716 1134 l 1,36,-1
 713 841 l 1,37,-1
 712 829 l 1,38,-1
 708 413 l 1,39,-1
 748 390 l 1,40,41
 928 401 928 401 1097.5 401 c 128,-1,42
 1267 401 1267 401 1268 392 c 128,-1,43
 1269 383 1269 383 1269 381 c 2,44,-1
 1269 380 l 1,0,1
EndSplineSet
EndChar

StartChar: M
Encoding: 77 77 48
Width: 2193
GlyphClass: 2
Flags: W
LayerCount: 2
Fore
SplineSet
359 1514 m 1,0,-1
 937 1498 l 1,1,2
 957 1376 957 1376 1023 1042 c 2,3,-1
 1094 684 l 1,4,-1
 1129 684 l 1,5,-1
 1256 1333 l 1,6,-1
 1266 1398 l 2,7,8
 1282 1497 1282 1497 1288 1506 c 1,9,-1
 1292 1506 l 1,10,-1
 1943 1512 l 1,11,-1
 1982 1511 l 1,12,-1
 2094 1511 l 1,13,14
 2102 1508 2102 1508 2104 1474 c 1,15,-1
 2114 1096 l 1,16,17
 2147 -22 2147 -22 2112 -26 c 0,18,19
 2100 -28 2100 -28 2085 -29 c 2,20,-1
 2040 -31 l 2,21,22
 2000 -33 2000 -33 1960 -33 c 2,23,-1
 1908 -33 l 1,24,25
 1835 -34 1835 -34 1764 -34 c 2,26,-1
 1622 -34 l 1,27,28
 1587 -4 1587 -4 1587 234 c 1,29,-1
 1589 548 l 1,30,-1
 1589 706 l 2,31,32
 1589 749 1589 749 1588 787 c 1,33,-1
 1550 794 l 1,34,35
 1512 655 1512 655 1423 255 c 2,36,-1
 1414 215 l 2,37,38
 1401 158 1401 158 1389.5 99.5 c 128,-1,39
 1378 41 1378 41 1364 -16 c 1,40,41
 1350 -30 1350 -30 1312 -30 c 2,42,-1
 1245 -30 l 1,43,-1
 1133 -27 l 1,44,-1
 1072 -28 l 1,45,-1
 1025 -28 l 1,46,-1
 946 -29 l 1,47,-1
 922 -29 l 2,48,49
 874 -29 874 -29 867 -8 c 1,50,-1
 868 -9 l 1,51,-1
 777 388 l 2,52,53
 768 426 768 426 756.5 463 c 128,-1,54
 745 500 745 500 743 538 c 1,55,-1
 668 862 l 1,56,-1
 631 860 l 1,57,58
 619 560 619 560 619 435 c 2,59,-1
 619 166 l 1,60,-1
 620 -18 l 2,61,62
 620 -20 620 -20 619 -20 c 2,63,-1
 546 -20 l 1,64,-1
 521 -19 l 1,65,-1
 166 -22 l 1,66,-1
 142 -22 l 2,67,68
 132 -22 132 -22 130 -23 c 1,69,70
 130 -18 130 -18 134 -6 c 1,71,-1
 134 0 l 1,72,-1
 135 4 l 1,73,74
 130 84 130 84 130 179 c 2,75,-1
 134 1296 l 1,76,-1
 133 1348 l 1,77,-1
 133 1398 l 1,78,-1
 131 1492 l 2,79,80
 131 1502 131 1502 142 1513 c 1,81,-1
 279 1513 l 1,82,-1
 359 1514 l 1,0,-1
EndSplineSet
EndChar

StartChar: N
Encoding: 78 78 49
Width: 1727
GlyphClass: 2
Flags: W
LayerCount: 2
Fore
SplineSet
126 -34 m 1,0,1
 90 -10 90 -10 90 13 c 2,2,-1
 90 31 l 1,3,-1
 91 51 l 1,4,-1
 96 441 l 1,5,6
 96 1081 96 1081 108 1412 c 1,7,-1
 110 1495 l 2,8,9
 110 1501 110 1501 292.5 1504 c 128,-1,10
 475 1507 475 1507 535 1508 c 128,-1,11
 595 1509 595 1509 647 1509.5 c 128,-1,12
 699 1510 699 1510 739 1510.5 c 128,-1,13
 779 1511 779 1511 791.5 1509.5 c 128,-1,14
 804 1508 804 1508 808 1495 c 128,-1,15
 812 1482 812 1482 817 1467 c 1,16,-1
 817 1470 l 1,17,-1
 823 1450 l 1,18,19
 920 1175 920 1175 1004.5 959.5 c 128,-1,20
 1089 744 1089 744 1111 683 c 1,21,-1
 1145 685 l 1,22,-1
 1149 1500 l 2,23,24
 1149 1508 1149 1508 1295 1508 c 1,25,-1
 1546 1503 l 1,26,-1
 1620 1503 l 1,27,28
 1627 1128 1627 1128 1627 700 c 1,29,-1
 1626 633 l 1,30,-1
 1626 263 l 1,31,-1
 1628 87 l 1,32,-1
 1628 37 l 1,33,-1
 1629 -10 l 1,34,35
 1623 -18 1623 -18 1580 -18 c 2,36,-1
 1554 -18 l 1,37,-1
 1240 -22 l 1,38,-1
 1089 -22 l 2,39,40
 1016 -22 1016 -22 942 -21 c 1,41,42
 927 -6 927 -6 883 123.5 c 128,-1,43
 839 253 839 253 833 270 c 2,44,-1
 642 777 l 1,45,-1
 606 772 l 1,46,-1
 605 670 l 1,47,-1
 605 399 l 1,48,-1
 609 128 l 1,49,-1
 609 16 l 2,50,51
 609 -28 609 -28 589 -31 c 1,52,53
 490 -28 490 -28 400 -28 c 2,54,-1
 369 -28 l 1,55,-1
 218 -32 l 1,56,-1
 198 -32 l 1,57,-1
 126 -34 l 1,0,1
EndSplineSet
EndChar

StartChar: O
Encoding: 79 79 50
Width: 1645
GlyphClass: 2
Flags: W
LayerCount: 2
Fore
SplineSet
605 667 m 0,0,1
 605 308 605 308 802 299 c 1,2,3
 1036 299 1036 299 1046 639 c 0,4,5
 1048 731 1048 731 1048 788 c 0,6,7
 1048 1178 1048 1178 833 1178 c 0,8,9
 657 1178 657 1178 626 932 c 0,10,11
 618 868 618 868 614 811 c 2,12,-1
 610 760 l 1,13,-1
 609 755 l 1,14,-1
 609 752 l 1,15,16
 605 720 605 720 605 667 c 0,0,1
35 752 m 1,17,-1
 37 774 l 1,18,19
 79 1278 79 1278 438 1460 c 1,20,21
 624 1552 624 1552 864.5 1552 c 128,-1,22
 1105 1552 1105 1552 1236 1473 c 0,23,24
 1608 1250 1608 1250 1608 768 c 0,25,26
 1608 418 1608 418 1460 230 c 1,27,-1
 1414 169 l 1,28,29
 1322 62 1322 62 1151.5 3 c 128,-1,30
 981 -56 981 -56 831 -57 c 0,31,32
 531 -59 531 -59 350 58 c 0,33,34
 35 263 35 263 35 752 c 1,17,-1
EndSplineSet
EndChar

StartChar: P
Encoding: 80 80 51
Width: 1527
GlyphClass: 2
Flags: W
LayerCount: 2
Fore
SplineSet
117 661 m 1,0,-1
 119 1072 l 1,1,-1
 119 1489 l 1,2,3
 122 1490 122 1490 140 1490 c 2,4,5
 140 1490 140 1490 178 1490 c 0,6,7
 198 1490 198 1490 207 1492 c 1,8,-1
 331 1497 l 2,9,10
 367 1499 367 1499 405 1499 c 2,11,-1
 564 1499 l 1,12,-1
 858 1506 l 1,13,14
 910 1506 910 1506 990 1501 c 1,15,-1
 997 1501 l 1,16,17
 1023 1503 1023 1503 1040 1503 c 0,18,19
 1245 1503 1245 1503 1388 1369.5 c 128,-1,20
 1531 1236 1531 1236 1531 979 c 0,21,22
 1531 539 1531 539 945 488 c 1,23,-1
 729 479 l 1,24,25
 719 252 719 252 719 106 c 1,26,-1
 720 75 l 1,27,-1
 720 -6 l 1,28,29
 716 -20 716 -20 705 -25 c 1,30,-1
 134 -34 l 1,31,32
 117 12 117 12 117 120 c 2,33,-1
 117 661 l 1,0,-1
697 773 m 1,34,35
 1007 779 1007 779 1007 1000 c 0,36,37
 1007 1062 1007 1062 992 1090 c 1,38,39
 947 1203 947 1203 711 1203 c 0,40,41
 696 1203 696 1203 696 908 c 1,42,-1
 694 833 l 1,43,-1
 697 773 l 1,34,35
EndSplineSet
EndChar

StartChar: Q
Encoding: 81 81 52
Width: 1642
GlyphClass: 2
Flags: W
LayerCount: 2
Fore
SplineSet
1617 842 m 128,-1,1
 1617 565 1617 565 1474 366 c 1,2,-1
 1529 366 l 1,3,-1
 1594 368 l 1,4,5
 1662 365 1662 365 1662 324 c 1,6,-1
 1661 313 l 1,7,-1
 1661 303 l 1,8,9
 1660 298 1660 298 1660 290 c 2,10,-1
 1660 242 l 1,11,-1
 1661 229 l 1,12,-1
 1662 132 l 1,13,-1
 1661 106 l 1,14,-1
 1661 57 l 1,15,-1
 1660 22 l 1,16,-1
 1661 5 l 1,17,-1
 1661 -23 l 1,18,19
 1657 -37 1657 -37 1638 -46 c 1,20,21
 1518 -30 1518 -30 1399 -30 c 1,22,-1
 793 -70 l 1,23,24
 408 -70 408 -70 199 251 c 1,25,26
 186 251 186 251 186 249 c 1,27,-1
 172 263 l 1,28,29
 49 456 49 456 49 740 c 0,30,31
 49 1284 49 1284 474 1474 c 0,32,33
 650 1552 650 1552 848 1552 c 0,34,35
 1216 1552 1216 1552 1416.5 1335.5 c 128,-1,0
 1617 1119 1617 1119 1617 842 c 128,-1,1
1049 812 m 1,36,37
 1049 1199 1049 1199 827 1199 c 128,-1,38
 605 1199 605 1199 605 767 c 0,39,40
 605 467 605 467 663 377.5 c 128,-1,41
 721 288 721 288 816 288 c 1,42,-1
 828 289 l 1,43,-1
 846 289 l 1,44,-1
 866 287 l 1,45,46
 1034 287 1034 287 1046 664 c 1,47,-1
 1046 682 l 1,48,-1
 1049 812 l 1,36,37
EndSplineSet
EndChar

StartChar: R
Encoding: 82 82 53
Width: 1561
GlyphClass: 2
Flags: W
LayerCount: 2
Fore
SplineSet
707 -13 m 1,0,1
 704 -22 704 -22 117 -30 c 1,2,-1
 111 -28 l 1,3,4
 106 -28 106 -28 103 -26 c 1,5,-1
 105 64 l 1,6,-1
 104 94 l 1,7,-1
 108 509 l 1,8,-1
 108 582 l 1,9,-1
 109 657 l 1,10,-1
 110 916 l 1,11,-1
 111 950 l 1,12,-1
 108 1177 l 1,13,-1
 112 1496 l 2,14,15
 112 1504 112 1504 169 1504 c 2,16,-1
 233 1503 l 1,17,-1
 294 1503 l 1,18,-1
 421 1502 l 1,19,-1
 559 1504 l 1,20,-1
 880 1507 l 2,21,22
 971 1507 971 1507 1130 1502 c 128,-1,23
 1289 1497 1289 1497 1405 1397 c 128,-1,24
 1521 1297 1521 1297 1521 1092 c 128,-1,25
 1521 887 1521 887 1235 750 c 1,26,27
 1427 690 1427 690 1484 494 c 1,28,29
 1513 399 1513 399 1519.5 308.5 c 128,-1,30
 1526 218 1526 218 1532 173 c 1,31,-1
 1542 122 l 1,32,33
 1558 33 1558 33 1570 -8 c 1,34,35
 1529 -39 1529 -39 1007 -17 c 1,36,-1
 1001 -17 l 2,37,38
 970 -17 970 -17 935 278 c 2,39,-1
 930 321 l 1,40,41
 926 432 926 432 888.5 472.5 c 128,-1,42
 851 513 851 513 759 506 c 1,43,-1
 706 506 l 1,44,-1
 706 202 l 1,45,-1
 707 170 l 1,46,-1
 707 -13 l 1,0,1
1571 -8 m 1,47,-1
 1571 -6 l 2,48,49
 1571 -5 1571 -5 1576 -5 c 1,50,-1
 1571 -8 l 1,47,-1
1571 -8 m 1,51,-1
 1570 -8 l 1,52,-1
 1571 -9 l 1,53,-1
 1571 -8 l 1,51,-1
1018 1040 m 0,54,55
 1018 1204 1018 1204 769 1204 c 2,56,-1
 711 1204 l 1,57,58
 700 1189 700 1189 700 1122 c 2,59,-1
 700 967 l 2,60,61
 700 878 700 878 705 831 c 1,62,63
 1018 838 1018 838 1018 1040 c 0,54,55
EndSplineSet
EndChar

StartChar: S
Encoding: 83 83 54
Width: 1484
GlyphClass: 2
Flags: W
LayerCount: 2
Fore
SplineSet
1473 478 m 0,0,1
 1473 3 1473 3 736 -63 c 1,2,3
 460 -63 460 -63 315.5 12 c 128,-1,4
 171 87 171 87 131 167 c 1,5,6
 69 253 69 253 53 414 c 1,7,8
 56 413 56 413 62 413 c 2,9,-1
 591 422 l 2,10,11
 609 422 609 422 627.5 380 c 128,-1,12
 646 338 646 338 672 312 c 128,-1,13
 698 286 698 286 779.5 286 c 128,-1,14
 861 286 861 286 887 333 c 128,-1,15
 913 380 913 380 913 413 c 128,-1,16
 913 446 913 446 884.5 479 c 128,-1,17
 856 512 856 512 795.5 527 c 128,-1,18
 735 542 735 542 714 547 c 128,-1,19
 693 552 693 552 682.5 553 c 128,-1,20
 672 554 672 554 664 557 c 1,21,-1
 666 557 l 1,22,-1
 609 572 l 1,23,24
 306 632 306 632 185.5 742 c 128,-1,25
 65 852 65 852 65 1030 c 0,26,27
 64 1209 64 1209 216 1383.5 c 128,-1,28
 368 1558 368 1558 722 1558 c 128,-1,29
 1076 1558 1076 1558 1241 1454 c 1,30,-1
 1240 1454 l 1,31,32
 1389 1345 1389 1345 1408.5 1258.5 c 128,-1,33
 1428 1172 1428 1172 1433 1123 c 1,34,-1
 1407 1097 l 1,35,36
 1348 1095 1348 1095 1291 1093 c 128,-1,37
 1234 1091 1234 1091 1158 1089 c 128,-1,38
 1082 1087 1082 1087 996 1087 c 128,-1,39
 910 1087 910 1087 896 1094 c 0,40,41
 873 1106 873 1106 860 1147.5 c 128,-1,42
 847 1189 847 1189 767 1189 c 2,43,-1
 763 1189 l 2,44,45
 688 1189 688 1189 654 1158.5 c 128,-1,46
 620 1128 620 1128 620 1092 c 0,47,48
 619 1031 619 1031 778 992 c 1,49,-1
 813 983 l 1,50,51
 847 973 847 973 940 952 c 128,-1,52
 1033 931 1033 931 1105 907 c 1,53,-1
 1105 908 l 1,54,55
 1473 781 1473 781 1473 478 c 0,0,1
EndSplineSet
EndChar

StartChar: T
Encoding: 84 84 55
Width: 1318
GlyphClass: 2
Flags: W
LayerCount: 2
Fore
SplineSet
1277 1505 m 2,0,1
 1336 1505 1336 1505 1336 1479 c 2,2,-1
 1336 1215 l 1,3,-1
 1337 1135 l 2,4,5
 1337 1102 1337 1102 1333.5 1102 c 128,-1,6
 1330 1102 1330 1102 968 1105 c 1,7,8
 966 1032 966 1032 966 992 c 2,9,-1
 966 661 l 1,10,-1
 971 -14 l 1,11,12
 966 -28 966 -28 951 -29 c 1,13,-1
 740 -26 l 1,14,-1
 739 -27 l 1,15,-1
 673 -26 l 1,16,-1
 480 -26 l 2,17,18
 406 -26 406 -26 379 -27 c 1,19,-1
 362 -12 l 1,20,21
 346 4 346 4 350 150.5 c 128,-1,22
 354 297 354 297 356 395 c 2,23,-1
 367 927 l 1,24,-1
 365 952 l 2,25,26
 358 1051 358 1051 350 1071 c 128,-1,27
 342 1091 342 1091 298 1091 c 1,28,-1
 258 1089 l 1,29,-1
 10 1093 l 1,30,31
 -3 1119 -3 1119 -3 1210 c 1,32,-1
 -1 1298 l 1,33,-1
 -1 1325 l 1,34,35
 -3 1415 -3 1415 -3 1453 c 128,-1,36
 -3 1491 -3 1491 -4 1496 c 1,37,-1
 -2 1496 l 1,38,-1
 4 1494 l 1,39,-1
 1277 1505 l 2,0,1
EndSplineSet
EndChar

StartChar: U
Encoding: 85 85 56
Width: 1615
GlyphClass: 2
Flags: W
LayerCount: 2
Fore
SplineSet
134 1501 m 1,0,1
 192 1504 192 1504 417 1504 c 128,-1,2
 642 1504 642 1504 666 1501 c 2,3,-1
 697 1497 l 1,4,5
 701 1394 701 1394 702.5 1274 c 128,-1,6
 704 1154 704 1154 705 1082 c 128,-1,7
 706 1010 706 1010 706 952 c 2,8,-1
 700 550 l 1,9,10
 700 350 700 350 816 350 c 0,11,12
 864 350 864 350 898 392.5 c 128,-1,13
 932 435 932 435 934 490 c 1,14,-1
 938 500 l 1,15,-1
 941 837 l 1,16,-1
 942 867 l 1,17,18
 942 1097 942 1097 936 1315 c 2,19,-1
 934 1388 l 1,20,21
 932 1422 932 1422 932 1462 c 128,-1,22
 932 1502 932 1502 943 1515 c 1,23,24
 1305 1515 1305 1515 1525 1512 c 1,25,-1
 1533 1504 l 1,26,-1
 1542 1499 l 1,27,-1
 1553 1492 l 1,28,29
 1545 1294 1545 1294 1545 1006 c 2,30,-1
 1545 834 l 1,31,-1
 1546 775 l 1,32,-1
 1543 494 l 1,33,34
 1543 -62 1543 -62 833 -62 c 0,35,36
 430 -62 430 -62 236 160 c 1,37,38
 121 290 121 290 104 493 c 1,39,-1
 104 1395 l 2,40,41
 104 1476 104 1476 113 1501 c 1,42,-1
 134 1501 l 1,0,1
EndSplineSet
EndChar

StartChar: V
Encoding: 86 86 57
Width: 1555
GlyphClass: 2
Flags: W
LayerCount: 2
Fore
SplineSet
1068 -25 m 1,0,-1
 942 -22 l 1,1,-1
 867 -22 l 1,2,3
 831 -26 831 -26 740.5 -26 c 128,-1,4
 650 -26 650 -26 412 -31 c 1,5,6
 375 0 375 0 338.5 176 c 128,-1,7
 302 352 302 352 253 515 c 128,-1,8
 204 678 204 678 187 738 c 2,9,-1
 157 844 l 2,10,11
 134 923 134 923 75 1123.5 c 128,-1,12
 16 1324 16 1324 -21 1500 c 1,13,14
 -21 1508 -21 1508 260 1508 c 2,15,-1
 565 1508 l 2,16,17
 584 1508 584 1508 593 1495 c 1,18,19
 614 1373 614 1373 636 1244.5 c 128,-1,20
 658 1116 658 1116 680.5 985.5 c 128,-1,21
 703 855 703 855 726 726 c 128,-1,22
 749 597 749 597 771 473 c 1,23,-1
 779 420 l 1,24,-1
 819 420 l 1,25,-1
 828 472 l 1,26,27
 862 684 862 684 946 1101 c 1,28,-1
 970 1214 l 2,29,30
 985 1284 985 1284 998 1356.5 c 128,-1,31
 1011 1429 1011 1429 1025 1498 c 1,32,33
 1061 1510 1061 1510 1275 1510 c 2,34,-1
 1579 1510 l 1,35,36
 1591 1503 1591 1503 1594 1497 c 1,37,-1
 1393 770 l 2,38,39
 1374 704 1374 704 1367 669 c 1,40,-1
 1320 485 l 1,41,42
 1208 5 1208 5 1158 -27 c 1,43,44
 1117 -27 1117 -27 1073 -25 c 1,45,-1
 1068 -25 l 1,0,-1
EndSplineSet
EndChar

StartChar: W
Encoding: 87 87 58
Width: 2130
GlyphClass: 2
Flags: W
LayerCount: 2
Fore
SplineSet
815 1506 m 2,0,-1
 989 1507 l 1,1,-1
 1378 1507 l 2,2,3
 1382 1507 1382 1507 1384 1505 c 1,4,-1
 1420 1271 l 1,5,6
 1429 1205 1429 1205 1440 1132 c 128,-1,7
 1451 1059 1451 1059 1462 985.5 c 128,-1,8
 1473 912 1473 912 1484.5 840 c 128,-1,9
 1496 768 1496 768 1505 704 c 2,10,-1
 1513 650 l 1,11,-1
 1551 650 l 1,12,13
 1577 945 1577 945 1649 1411 c 1,14,-1
 1653 1434 l 2,15,16
 1655 1448 1655 1448 1654 1462 c 0,17,18
 1653 1511 1653 1511 1808 1511 c 128,-1,19
 1963 1511 1963 1511 2185 1493 c 1,20,21
 2188 1490 2188 1490 2193 1470 c 1,22,23
 2156 1299 2156 1299 2114 1122 c 128,-1,24
 2072 945 2072 945 2032 760 c 2,25,-1
 2024 723 l 2,26,27
 2019 704 2019 704 2010 682.5 c 128,-1,28
 2001 661 2001 661 2002 645 c 1,29,-1
 1932 328 l 1,30,-1
 1900 171 l 2,31,32
 1874 47 1874 47 1863 -20 c 1,33,-1
 1858 -18 l 1,34,35
 1787 -22 1787 -22 1645 -22 c 2,36,-1
 1489 -22 l 1,37,-1
 1435 -21 l 1,38,39
 1335 -21 1335 -21 1229 -25 c 0,40,41
 1221 -25 1221 -25 1209 69.5 c 128,-1,42
 1197 164 1197 164 1192 200 c 128,-1,43
 1187 236 1187 236 1183.5 264 c 128,-1,44
 1180 292 1180 292 1178 302 c 2,45,-1
 1169 352 l 1,46,47
 1140 538 1140 538 1105 795 c 1,48,-1
 1068 796 l 1,49,50
 1014 513 1014 513 987.5 272.5 c 128,-1,51
 961 32 961 32 952 0.5 c 128,-1,52
 943 -31 943 -31 924 -33 c 1,53,54
 762 -28 762 -28 638.5 -28 c 128,-1,55
 515 -28 515 -28 303 -35 c 1,56,57
 277 -14 277 -14 259 86 c 1,58,-1
 253 125 l 1,59,60
 218 310 218 310 176.5 496.5 c 128,-1,61
 135 683 135 683 95 869 c 2,62,-1
 74 966 l 2,63,64
 46 1096 46 1096 16 1234 c 0,65,66
 -45 1506 -45 1506 -27 1514 c 1,67,68
 -5 1511 -5 1511 22 1511 c 2,69,-1
 34 1511 l 1,70,-1
 129 1514 l 1,71,-1
 267 1517 l 1,72,73
 330 1517 330 1517 372 1514 c 1,74,-1
 435 1514 l 2,75,76
 450 1514 450 1514 468 1512 c 1,77,-1
 482 1512 l 2,78,79
 514 1512 514 1512 556 1150 c 128,-1,80
 598 788 598 788 603 748 c 2,81,-1
 610 691 l 1,82,-1
 649 690 l 1,83,84
 722 1145 722 1145 728.5 1213 c 128,-1,85
 735 1281 735 1281 740 1329 c 0,86,87
 757 1475 757 1475 780 1507 c 1,88,89
 788 1506 788 1506 797 1506 c 128,-1,90
 806 1506 806 1506 815 1506 c 2,0,-1
EndSplineSet
EndChar

StartChar: X
Encoding: 88 88 59
Width: 1600
GlyphClass: 2
Flags: W
LayerCount: 2
Fore
SplineSet
169 1506 m 1,0,-1
 552 1498 l 2,1,2
 586 1498 586 1498 622 1499 c 1,3,4
 659 1462 659 1462 779 1174 c 1,5,-1
 794 1134 l 1,6,-1
 828 1067 l 1,7,-1
 859 1137 l 2,8,9
 866 1155 866 1155 880 1186.5 c 128,-1,10
 894 1218 894 1218 948 1341.5 c 128,-1,11
 1002 1465 1002 1465 1031 1498 c 1,12,-1
 1036 1495 l 1,13,-1
 1150 1499 l 1,14,15
 1462 1511 1462 1511 1623 1511 c 1,16,17
 1632 1506 1632 1506 1632 1488 c 1,18,-1
 1631 1480 l 1,19,-1
 1395 1102 l 1,20,21
 1382 1079 1382 1079 1367.5 1057.5 c 128,-1,22
 1353 1036 1353 1036 1339 1013 c 2,23,-1
 1167 740 l 1,24,-1
 1306 526 l 1,25,-1
 1330 484 l 2,26,27
 1341 466 1341 466 1354 447 c 128,-1,28
 1367 428 1367 428 1378 411 c 1,29,-1
 1378 412 l 1,30,-1
 1558 134 l 1,31,-1
 1558 135 l 1,32,-1
 1648 -8 l 2,33,34
 1651 -11 1651 -11 1651 -19.5 c 128,-1,35
 1651 -28 1651 -28 1601 -32 c 1,36,-1
 1088 -36 l 2,37,38
 1030 -36 1030 -36 1005 -22 c 1,39,40
 995 1 995 1 982.5 25 c 128,-1,41
 970 49 970 49 959 73 c 2,42,-1
 798 410 l 1,43,44
 757 335 757 335 686 178.5 c 128,-1,45
 615 22 615 22 563 -30 c 1,46,47
 391 -26 391 -26 230 -26 c 1,48,-1
 165 -27 l 1,49,-1
 -22 -27 l 1,50,51
 -27 -26 -27 -26 -27 5 c 128,-1,52
 -27 36 -27 36 25 97.5 c 128,-1,53
 77 159 77 159 79 165 c 1,54,-1
 455 754 l 1,55,-1
 363 905 l 1,56,57
 241 1122 241 1122 150 1272 c 2,58,-1
 11 1502 l 2,59,60
 10 1502 10 1502 10 1503 c 2,61,-1
 10 1506 l 1,62,-1
 169 1506 l 1,0,-1
1648 -8 m 1,63,-1
 1648 -5 l 1,64,-1
 1650 -8 l 1,65,-1
 1648 -8 l 1,63,-1
1648 -5 m 2,66,67
 1647 -4 1647 -4 1647 -2 c 2,68,-1
 1648 -5 l 2,66,67
EndSplineSet
EndChar

StartChar: Y
Encoding: 89 89 60
Width: 1524
GlyphClass: 2
Flags: W
LayerCount: 2
Fore
SplineSet
789 863 m 1,0,1
 805 903 805 903 1004 1501 c 1,2,3
 1004 1509 1004 1509 1097 1509 c 2,4,-1
 1262 1509 l 2,5,6
 1334 1509 1334 1509 1357 1507 c 1,7,-1
 1530 1507 l 1,8,-1
 1563 1508 l 1,9,10
 1573 1503 1573 1503 1578 1483 c 1,11,-1
 1548 1424 l 1,12,-1
 1548 1425 l 1,13,-1
 1483 1300 l 1,14,15
 1339 1036 1339 1036 1293 937 c 1,16,-1
 1259 872 l 2,17,18
 1182 723 1182 723 1072 498 c 1,19,20
 1070 472 1070 472 1070 446 c 2,21,-1
 1070 -17 l 1,22,23
 1065 -33 1065 -33 1050 -33 c 2,24,-1
 477 -37 l 1,25,26
 455 -9 455 -9 455 27 c 2,27,-1
 457 152 l 1,28,-1
 457 181 l 1,29,-1
 458 211 l 1,30,-1
 459 284 l 1,31,32
 459 500 459 500 388.5 652 c 128,-1,33
 318 804 318 804 285 873 c 1,34,-1
 136 1171 l 1,35,36
 116 1208 116 1208 99.5 1241 c 128,-1,37
 83 1274 83 1274 47 1340 c 1,38,-1
 47 1339 l 1,39,40
 -33 1459 -33 1459 -33 1501 c 0,41,42
 -33 1506 -33 1506 -1 1506 c 2,43,-1
 256 1506 l 2,44,45
 455 1506 455 1506 577 1503 c 1,46,47
 608 1497 608 1497 669.5 1281.5 c 128,-1,48
 731 1066 731 1066 744 1022 c 2,49,-1
 789 863 l 1,0,1
EndSplineSet
EndChar

StartChar: Z
Encoding: 90 90 61
Width: 1395
GlyphClass: 2
Flags: W
LayerCount: 2
Fore
SplineSet
1287 1506 m 2,0,1
 1353 1506 1353 1506 1353 1445 c 1,2,-1
 1351 1389 l 1,3,-1
 1351 1379 l 1,4,-1
 1348 1179 l 1,5,-1
 1348 1166 l 1,6,7
 1334 1067 1334 1067 1129 844 c 2,8,-1
 1052 760 l 1,9,10
 948 638 948 638 843 510 c 2,11,-1
 729 371 l 1,12,-1
 782 371 l 1,13,-1
 1362 379 l 2,14,15
 1377 379 1377 379 1377 201 c 2,16,-1
 1377 89 l 1,17,-1
 1379 24 l 1,18,19
 1379 -25 1379 -25 1322 -25 c 2,20,-1
 1296 -25 l 1,21,-1
 97 -35 l 2,22,23
 50 -35 50 -35 26 -1 c 1,24,-1
 26 84 l 2,25,26
 26 280 26 280 19 339 c 1,27,-1
 176 523 l 1,28,29
 233 594 233 594 379 777 c 128,-1,30
 525 960 525 960 657 1116 c 1,31,32
 624 1116 624 1116 583 1115.5 c 128,-1,33
 542 1115 542 1115 501 1114.5 c 128,-1,34
 460 1114 460 1114 423 1113.5 c 128,-1,35
 386 1113 386 1113 362 1113 c 2,36,-1
 288 1111 l 2,37,38
 206 1108 206 1108 69 1108 c 1,39,40
 60 1113 60 1113 60 1129 c 2,41,-1
 60 1155 l 2,42,43
 60 1166 60 1166 59 1176 c 1,44,-1
 59 1195 l 1,45,-1
 60 1203 l 1,46,-1
 60 1262 l 1,47,-1
 51 1491 l 1,48,-1
 51 1495 l 2,49,50
 51 1496 51 1496 52 1497 c 1,51,52
 54 1497 54 1497 262 1495 c 128,-1,53
 470 1493 470 1493 1070 1503 c 1,54,-1
 1287 1506 l 2,0,1
EndSplineSet
EndChar

StartChar: bracketleft
Encoding: 91 91 62
Width: 1035
GlyphClass: 2
Flags: W
LayerCount: 2
Fore
SplineSet
210 -339 m 1,0,1
 172 -298 172 -298 172 -246 c 1,2,-1
 174 -189 l 1,3,-1
 174 -112 l 1,4,-1
 175 -85 l 1,5,-1
 175 49 l 2,6,7
 175 1021 175 1021 198 1523 c 0,8,9
 198 1531 198 1531 228 1531 c 2,10,-1
 342 1529 l 1,11,-1
 380 1529 l 1,12,-1
 876 1537 l 1,13,14
 944 1537 944 1537 966 1507 c 128,-1,15
 988 1477 988 1477 988 1403 c 2,16,-1
 987 1285 l 2,17,18
 987 1206 987 1206 985 1194 c 1,19,20
 941 1192 941 1192 862.5 1192 c 128,-1,21
 784 1192 784 1192 647 1204 c 1,22,23
 641 730 641 730 641 457 c 128,-1,24
 641 184 641 184 646 27 c 1,25,-1
 936 31 l 1,26,-1
 973 31 l 1,27,28
 992 12 992 12 992 -112 c 1,29,-1
 990 -212 l 1,30,-1
 990 -237 l 1,31,-1
 992 -266 l 1,32,33
 992 -327 992 -327 969 -330 c 1,34,-1
 210 -339 l 1,0,1
987 1194 m 1,35,-1
 986 1193 l 1,36,-1
 987 1194 l 1,35,-1
EndSplineSet
EndChar

StartChar: backslash
Encoding: 92 92 63
Width: 809
GlyphClass: 2
Flags: W
LayerCount: 2
Fore
SplineSet
727.5 306 m 128,-1,1
 792 133 792 133 824.5 40 c 128,-1,2
 857 -53 857 -53 858 -62.5 c 128,-1,3
 859 -72 859 -72 838 -72 c 2,4,-1
 798 -72 l 1,5,-1
 776 -73 l 1,6,-1
 659 -73 l 1,7,8
 659 -73 659 -73 628 -72 c 1,9,10
 628 -72 628 -72 565 -72 c 0,11,12
 537 -72 537 -72 521 -74 c 1,13,-1
 422 222 l 1,14,15
 136 1089 136 1089 -26 1565 c 1,16,-1
 -20 1569 l 1,17,18
 86 1563 86 1563 158 1563 c 128,-1,19
 230 1563 230 1563 248.5 1563.5 c 128,-1,20
 267 1564 267 1564 268 1564 c 2,21,-1
 267 1556 l 1,22,23
 267 1541 267 1541 540 813 c 1,24,-1
 598 656 l 2,25,0
 663 479 663 479 727.5 306 c 128,-1,1
EndSplineSet
EndChar

StartChar: bracketright
Encoding: 93 93 64
Width: 1036
GlyphClass: 2
Flags: W
LayerCount: 2
Fore
SplineSet
362 -327 m 2,0,1
 292 -326 292 -326 186 -326 c 128,-1,2
 80 -326 80 -326 77 -302 c 1,3,-1
 77 -299 l 1,4,5
 72 -142 72 -142 72 -60 c 128,-1,6
 72 22 72 22 99 22 c 2,7,-1
 234 22 l 2,8,9
 318 22 318 22 416 25 c 1,10,-1
 416 140 l 2,11,12
 416 451 416 451 402 1173 c 1,13,-1
 252 1173 l 1,14,-1
 86 1170 l 1,15,16
 69 1187 69 1187 64 1195 c 1,17,-1
 64 1394 l 1,18,-1
 65 1447 l 1,19,-1
 65 1479 l 1,20,-1
 64 1492 l 1,21,22
 64 1534 64 1534 76 1547 c 1,23,-1
 158 1547 l 1,24,-1
 348 1545 l 1,25,-1
 380 1545 l 1,26,-1
 456 1546 l 1,27,-1
 560 1546 l 1,28,-1
 633 1547 l 1,29,-1
 880 1537 l 1,30,-1
 880 1466 l 1,31,-1
 879 1417 l 1,32,-1
 879 1242 l 2,33,34
 879 1088 879 1088 876 935.5 c 128,-1,35
 873 783 873 783 870 628 c 2,36,-1
 866 452 l 1,37,-1
 856 -214 l 1,38,-1
 856 -293 l 2,39,40
 856 -315 856 -315 845 -326 c 1,41,42
 769 -330 769 -330 698 -330 c 2,43,-1
 665 -330 l 1,44,-1
 362 -327 l 2,0,1
880 1547 m 1,45,-1
 890 1537 l 1,46,-1
 880 1537 l 1,47,-1
 880 1547 l 1,45,-1
EndSplineSet
EndChar

StartChar: asciicircum
Encoding: 94 94 65
Width: 1275
GlyphClass: 2
Flags: W
LayerCount: 2
Fore
SplineSet
776 1537 m 1,0,-1
 1158 782 l 1,1,2
 1146 756 1146 756 1007 756 c 1,3,-1
 904 759 l 1,4,-1
 882 759 l 2,5,6
 863 759 863 759 833 827 c 128,-1,7
 803 895 803 895 794 913 c 2,8,-1
 754 995 l 1,9,10
 691 1134 691 1134 647 1218 c 1,11,-1
 439 781 l 2,12,13
 437 779 437 779 434 776.5 c 128,-1,14
 431 774 431 774 429 772 c 1,15,-1
 409 772 l 1,16,-1
 197 770 l 1,17,-1
 170 771 l 2,18,19
 159 771 159 771 155 769 c 1,20,21
 191 849 191 849 230 928.5 c 128,-1,22
 269 1008 269 1008 307 1087 c 2,23,-1
 384 1248 l 2,24,25
 418 1320 418 1320 453 1391.5 c 128,-1,26
 488 1463 488 1463 522 1535 c 1,27,-1
 524 1537 l 1,28,29
 584 1536 584 1536 644 1536 c 2,30,-1
 738 1536 l 2,31,32
 772 1536 772 1536 776 1537 c 1,0,-1
137 769 m 1,33,-1
 154 768 l 2,34,35
 153 768 153 768 153 767 c 2,36,-1
 151 761 l 1,37,-1
 145 761 l 1,38,-1
 137 769 l 1,33,-1
133 768 m 1,39,-1
 134 771 l 1,40,-1
 137 768 l 1,41,-1
 133 768 l 1,39,-1
154 767 m 1,42,43
 154 762 154 762 151 761 c 1,44,-1
 154 767 l 1,42,43
155 769 m 1,45,-1
 154 768 l 1,46,-1
 155 769 l 1,45,-1
EndSplineSet
EndChar

StartChar: underscore
Encoding: 95 95 66
Width: 1050
GlyphClass: 2
Flags: W
LayerCount: 2
Fore
SplineSet
1075.5 -220.5 m 128,-1,1
 1075 -249 1075 -249 1075 -264 c 128,-1,2
 1075 -279 1075 -279 1048 -279 c 2,3,-1
 980 -278 l 1,4,-1
 938 -278 l 1,5,-1
 894 -277 l 1,6,7
 477 -277 477 -277 14 -302 c 1,8,-1
 -9 -272 l 1,9,-1
 -9 -269 l 1,10,11
 -15 -236 -15 -236 -15 -202 c 128,-1,12
 -15 -168 -15 -168 0 -168 c 2,13,-1
 326 -168 l 1,14,-1
 700 -166 l 1,15,16
 1036 -166 1036 -166 1056 -179 c 128,-1,0
 1076 -192 1076 -192 1075.5 -220.5 c 128,-1,1
1073 -277 m 1,17,-1
 1074 -275 l 1,18,-1
 1091 -286 l 1,19,-1
 1073 -277 l 1,17,-1
EndSplineSet
EndChar

StartChar: grave
Encoding: 96 96 67
Width: 633
GlyphClass: 2
Flags: W
LayerCount: 2
Fore
SplineSet
214 1430 m 1,0,-1
 205 1426 l 1,1,2
 194 1437 194 1437 186.5 1447.5 c 128,-1,3
 179 1458 179 1458 169 1470 c 1,4,-1
 169 1469 l 1,5,-1
 138 1507 l 1,6,7
 50 1612 50 1612 -7.5 1671 c 128,-1,8
 -65 1730 -65 1730 -91 1761 c 128,-1,9
 -117 1792 -117 1792 -117 1801.5 c 128,-1,10
 -117 1811 -117 1811 -108 1819 c 1,11,12
 94 1801 94 1801 332 1801 c 2,13,-1
 362 1801 l 1,14,-1
 368 1802 l 1,15,16
 388 1788 388 1788 430.5 1715.5 c 128,-1,17
 473 1643 473 1643 491 1613.5 c 128,-1,18
 509 1584 509 1584 531.5 1547 c 128,-1,19
 554 1510 554 1510 573.5 1485 c 128,-1,20
 593 1460 593 1460 593 1445 c 128,-1,21
 593 1430 593 1430 532 1430 c 2,22,-1
 214 1430 l 1,0,-1
EndSplineSet
EndChar

StartChar: a
Encoding: 97 97 68
Width: 1575
GlyphClass: 2
Flags: W
LayerCount: 2
Fore
SplineSet
682 795 m 1,0,1
 680 791 680 791 610 791 c 2,2,-1
 94 791 l 1,3,4
 116 1106 116 1106 480 1204 c 0,5,6
 583 1231 583 1231 695 1235 c 1,7,-1
 755 1238 l 1,8,-1
 787 1241 l 2,9,10
 793 1241 793 1241 799 1238 c 1,11,-1
 812 1238 l 1,12,-1
 857 1240 l 2,13,14
 871 1240 871 1240 887.5 1237.5 c 128,-1,15
 904 1235 904 1235 920 1233 c 2,16,-1
 949 1229 l 2,17,18
 960 1227 960 1227 971 1228 c 128,-1,19
 982 1229 982 1229 994 1227 c 0,20,21
 1428 1170 1428 1170 1466 710 c 0,22,23
 1479 550 1479 550 1479 522 c 1,24,-1
 1474 453 l 1,25,-1
 1474 337 l 1,26,27
 1475 335 1475 335 1475 320 c 2,28,-1
 1473 252 l 1,29,-1
 1473 243 l 1,30,31
 1476 237 1476 237 1476 229 c 2,32,-1
 1475 220 l 1,33,-1
 1475 199 l 2,34,35
 1475 104 1475 104 1504 19 c 1,36,-1
 1514 -3 l 1,37,-1
 1062 -3 l 1,38,-1
 1026 -2 l 1,39,-1
 996 -2 l 2,40,41
 981 -2 981 -2 965 -3 c 1,42,43
 936 50 936 50 904 161 c 1,44,45
 881 111 881 111 851 88 c 128,-1,46
 821 65 821 65 813 65 c 1,47,48
 408 -132 408 -132 165 58 c 0,49,50
 35 159 35 159 35 364 c 128,-1,51
 35 569 35 569 261 625 c 0,52,53
 322 640 322 640 485 654 c 2,54,-1
 518 657 l 1,55,-1
 564 664 l 1,56,-1
 574 663 l 1,57,-1
 598 663 l 2,58,59
 633 663 633 663 651 668 c 1,60,-1
 705 675 l 1,61,62
 888 685 888 685 882 789 c 0,63,64
 879 840 879 840 879 868 c 128,-1,65
 879 896 879 896 851 927 c 128,-1,66
 823 958 823 958 783 958 c 2,67,-1
 778 958 l 2,68,69
 682 958 682 958 682 795 c 1,0,1
892 432 m 1,70,-1
 893 464 l 1,71,72
 893 513 893 513 885 560 c 1,73,74
 854 543 854 543 819.5 532.5 c 128,-1,75
 785 522 785 522 736.5 498 c 128,-1,76
 688 474 688 474 688 413 c 128,-1,77
 688 352 688 352 718 314 c 128,-1,78
 748 276 748 276 803 276 c 128,-1,79
 858 276 858 276 889 330 c 1,80,-1
 891 340 l 1,81,-1
 892 402 l 1,82,-1
 892 432 l 1,70,-1
EndSplineSet
EndChar

StartChar: b
Encoding: 98 98 69
Width: 1524
GlyphClass: 2
Flags: W
LayerCount: 2
Fore
SplineSet
1476 677 m 1,0,-1
 1478 659 l 1,1,-1
 1478 653 l 1,2,-1
 1477 602 l 1,3,4
 1473 220 1473 220 1278 63 c 0,5,6
 1154 -36 1154 -36 975 -36 c 128,-1,7
 796 -36 796 -36 640 111 c 1,8,-1
 594 79 l 1,9,-1
 551 -5 l 1,10,-1
 39 -5 l 1,11,-1
 38 775 l 1,12,-1
 38 1555 l 1,13,14
 346 1557 346 1557 637 1557 c 1,15,16
 639 1487 639 1487 639 1441 c 2,17,-1
 639 1246 l 2,18,19
 639 1216 639 1216 638 1159 c 128,-1,20
 637 1102 637 1102 637 1080 c 1,21,22
 824 1239 824 1239 1003.5 1239 c 128,-1,23
 1183 1239 1183 1239 1302 1120 c 1,24,25
 1325 1101 1325 1101 1334 1085 c 128,-1,26
 1343 1069 1343 1069 1352 1061 c 1,27,-1
 1352 1062 l 1,28,-1
 1362 1054 l 1,29,30
 1477 901 1477 901 1477 703 c 2,31,-1
 1477 690 l 2,32,33
 1477 685 1477 685 1476 677 c 1,0,-1
858 559 m 2,34,35
 858 882 858 882 730.5 882 c 128,-1,36
 603 882 603 882 603 524 c 0,37,38
 603 387 603 387 652 332 c 128,-1,39
 701 277 701 277 734 277 c 0,40,41
 793 277 793 277 825.5 359.5 c 128,-1,42
 858 442 858 442 858 522 c 2,43,-1
 858 528 l 2,44,45
 858 531 858 531 857 533 c 1,46,-1
 857 535 l 1,47,48
 858 539 858 539 858 546 c 2,49,-1
 858 559 l 2,34,35
EndSplineSet
EndChar

StartChar: c
Encoding: 99 99 70
Width: 1520
GlyphClass: 2
Flags: W
LayerCount: 2
Fore
SplineSet
663 499 m 1,0,1
 673 344 673 344 755 344 c 128,-1,2
 837 344 837 344 837 519 c 1,3,4
 914 523 914 523 1069 523 c 2,5,-1
 1107 523 l 1,6,-1
 1203 522 l 1,7,-1
 1299 522 l 1,8,-1
 1492 521 l 1,9,10
 1461 200 1461 200 1189 67 c 1,11,12
 1173 62 1173 62 1159 55.5 c 128,-1,13
 1145 49 1145 49 1134 44 c 2,14,-1
 1096 26 l 1,15,16
 933 -35 933 -35 862 -35 c 128,-1,17
 791 -35 791 -35 786 -31 c 1,18,-1
 706 -36 l 1,19,20
 591 -36 591 -36 422.5 7 c 128,-1,21
 254 50 254 50 138 186 c 2,22,-1
 120 207 l 1,23,24
 32 321 32 321 7 508 c 1,25,-1
 4 529 l 2,26,27
 0 553 0 553 0 642.5 c 128,-1,28
 0 732 0 732 71.5 886 c 128,-1,29
 143 1040 143 1040 282 1114 c 2,30,-1
 417 1186 l 1,31,32
 570 1240 570 1240 723.5 1240 c 128,-1,33
 877 1240 877 1240 948 1218 c 2,34,-1
 968 1212 l 2,35,36
 967 1212 967 1212 967 1213 c 1,37,-1
 969 1213 l 1,38,39
 1309 1122 1309 1122 1420 915 c 1,40,-1
 1422 908 l 1,41,42
 1472 806 1472 806 1489 682 c 1,43,-1
 1466 690 l 1,44,-1
 840 690 l 1,45,-1
 835 727 l 1,46,47
 816 845 816 845 781 880 c 1,48,-1
 761 892 l 1,49,50
 642 883 642 883 662 551 c 1,51,52
 662 511 662 511 674 499 c 1,53,-1
 663 499 l 1,0,1
EndSplineSet
EndChar

StartChar: d
Encoding: 100 100 71
Width: 1528
GlyphClass: 2
Flags: W
LayerCount: 2
Fore
SplineSet
892 127 m 1,0,1
 479 -239 479 -239 134 163 c 0,2,3
 33 280 33 280 33 484 c 0,4,5
 33 1007 33 1007 298 1186 c 0,6,7
 357 1226 357 1226 431 1234 c 1,8,-1
 446 1233 l 1,9,-1
 531 1239 l 1,10,11
 645 1239 645 1239 808 1132 c 1,12,-1
 829 1119 l 2,13,14
 835 1115 835 1115 841.5 1111.5 c 128,-1,15
 848 1108 848 1108 857 1098 c 1,16,-1
 888 1112 l 1,17,18
 871 1163 871 1163 871 1182 c 2,19,-1
 871 1188 l 1,20,-1
 874 1289 l 1,21,-1
 874 1554 l 1,22,-1
 1172 1554 l 1,23,-1
 1472 1555 l 1,24,-1
 1473 -6 l 1,25,-1
 963 -6 l 1,26,27
 943 25 943 25 932 57 c 1,28,-1
 892 127 l 1,0,1
657 564 m 1,29,-1
 656 544 l 1,30,-1
 656 510 l 2,31,32
 656 455 656 455 677 397 c 1,33,-1
 676 398 l 1,34,35
 682 370 682 370 715.5 322.5 c 128,-1,36
 749 275 749 275 772.5 275 c 128,-1,37
 796 275 796 275 804 280 c 1,38,39
 912 328 912 328 908 528.5 c 128,-1,40
 904 729 904 729 862 804.5 c 128,-1,41
 820 880 820 880 782 880 c 0,42,43
 706 880 706 880 681.5 751 c 128,-1,44
 657 622 657 622 657 596 c 2,45,-1
 657 564 l 1,29,-1
EndSplineSet
EndChar

StartChar: e
Encoding: 101 101 72
Width: 1475
GlyphClass: 2
Flags: W
LayerCount: 2
Fore
SplineSet
717 -32 m 1,0,-1
 680 -36 l 1,1,-1
 591 -26 l 1,2,3
 583 -29 583 -29 561 -29 c 128,-1,4
 539 -29 539 -29 450 -2 c 1,5,-1
 450 -3 l 1,6,-1
 426 4 l 2,7,8
 412 9 412 9 408 9.5 c 128,-1,9
 404 10 404 10 328 33 c 128,-1,10
 252 56 252 56 145 166.5 c 128,-1,11
 38 277 38 277 20.5 367 c 128,-1,12
 3 457 3 457 -4 483 c 128,-1,13
 -11 509 -11 509 -11 524 c 2,14,-1
 -11 588 l 2,15,16
 -11 595 -11 595 -10 602 c 1,17,-1
 -10 617 l 2,18,19
 -10 829 -10 829 116 983 c 128,-1,20
 242 1137 242 1137 454 1201 c 1,21,-1
 478 1208 l 1,22,23
 532 1218 532 1218 554 1227 c 1,24,-1
 553 1226 l 1,25,26
 598 1239 598 1239 655 1239 c 128,-1,27
 712 1239 712 1239 746 1235 c 2,28,-1
 788 1231 l 1,29,30
 866 1227 866 1227 940 1208 c 1,31,-1
 940 1209 l 1,32,-1
 961 1200 l 1,33,34
 1172 1134 1172 1134 1288 1002 c 1,35,-1
 1288 1003 l 1,36,37
 1394 877 1394 877 1394 817 c 1,38,-1
 1402 790 l 1,39,-1
 1407 761 l 1,40,41
 1426 692 1426 692 1426 665 c 2,42,-1
 1426 618 l 2,43,44
 1426 598 1426 598 1427 580 c 1,45,-1
 603 580 l 1,46,-1
 603 547 l 1,47,48
 609 526 609 526 609 459 c 128,-1,49
 609 392 609 392 652 315 c 1,50,-1
 652 316 l 1,51,-1
 663 295 l 1,52,53
 681 276 681 276 715 265 c 1,54,55
 794 282 794 282 822 434 c 1,56,57
 856 444 856 444 924 444 c 1,58,-1
 1052 441 l 1,59,-1
 1421 441 l 1,60,61
 1409 320 1409 320 1349 217 c 1,62,-1
 1350 217 l 1,63,64
 1274 98 1274 98 1098.5 32.5 c 128,-1,65
 923 -33 923 -33 847 -33 c 128,-1,66
 771 -33 771 -33 763 -31 c 1,67,-1
 740 -31 l 1,68,-1
 731 -32 l 1,69,-1
 717 -32 l 1,0,-1
873 725 m 1,70,71
 829 958 829 958 743 958 c 0,72,73
 629 958 629 958 604 708 c 1,74,75
 652 712 652 712 722 712 c 2,76,-1
 852 712 l 1,77,-1
 873 725 l 1,70,71
EndSplineSet
EndChar

StartChar: f
Encoding: 102 102 73
Width: 893
GlyphClass: 2
Flags: W
LayerCount: 2
Fore
SplineSet
164 1182 m 1,0,-1
 162 1232 l 1,1,2
 162 1422 162 1422 286 1533 c 1,3,4
 340 1571 340 1571 520 1571 c 128,-1,5
 700 1571 700 1571 832 1568 c 1,6,-1
 832 1355 l 1,7,-1
 780 1355 l 2,8,9
 758 1355 758 1355 746 1356 c 1,10,11
 669 1327 669 1327 669 1180 c 1,12,-1
 668 1175 l 1,13,-1
 668 1147 l 1,14,15
 698 1141 698 1141 736 1141 c 2,16,-1
 796 1141 l 2,17,18
 818 1141 818 1141 828 1140 c 1,19,-1
 828 833 l 1,20,-1
 665 833 l 1,21,-1
 665 -1 l 1,22,-1
 456 -2 l 2,23,24
 313 -2 313 -2 161 0 c 1,25,-1
 161 834 l 1,26,-1
 47 834 l 1,27,-1
 46 985 l 1,28,-1
 46 1135 l 1,29,-1
 164 1135 l 1,30,-1
 164 1182 l 1,0,-1
EndSplineSet
EndChar

StartChar: g
Encoding: 103 103 74
Width: 1599
GlyphClass: 2
Flags: W
LayerCount: 2
Fore
SplineSet
749 33 m 2,0,1
 749 -104 749 -104 843 -104 c 128,-1,2
 937 -104 937 -104 937 93 c 2,3,-1
 937 113 l 1,4,5
 934 113 934 113 934 109 c 1,6,7
 932 111 932 111 932 116 c 2,8,-1
 932 147 l 1,9,-1
 936 184 l 1,10,-1
 936 190 l 2,11,12
 936 196 936 196 933 218 c 128,-1,13
 930 240 930 240 927 265 c 1,14,15
 860 144 860 144 606.5 144 c 128,-1,16
 353 144 353 144 195.5 289 c 128,-1,17
 38 434 38 434 38 672 c 128,-1,18
 38 910 38 910 194.5 1075 c 128,-1,19
 351 1240 351 1240 580 1240 c 128,-1,20
 809 1240 809 1240 944 1127 c 1,21,-1
 966 1104 l 2,22,23
 971 1098 971 1098 996 1082 c 1,24,-1
 1010 1126 l 1,25,-1
 1010 1196 l 1,26,-1
 1269 1196 l 1,27,-1
 1529 1197 l 1,28,-1
 1530 264 l 2,29,30
 1530 239 1530 239 1528 211 c 1,31,-1
 1528 207 l 1,32,33
 1527 193 1527 193 1527 177 c 2,34,-1
 1527 136 l 1,35,-1
 1529 83 l 1,36,-1
 1523 27 l 2,37,38
 1523 22 1523 22 1524 21 c 0,39,40
 1532 3 1532 3 1492 -103.5 c 128,-1,41
 1452 -210 1452 -210 1330.5 -301 c 128,-1,42
 1209 -392 1209 -392 1118 -406 c 1,43,44
 1105 -419 1105 -419 1083.5 -420.5 c 128,-1,45
 1062 -422 1062 -422 1044 -429 c 1,46,-1
 1044 -428 l 1,47,48
 948 -460 948 -460 872 -460 c 2,49,-1
 782 -460 l 2,50,51
 768 -460 768 -460 767 -458 c 1,52,-1
 737 -458 l 1,53,54
 729 -461 729 -461 706 -461 c 0,55,56
 654 -461 654 -461 549 -438 c 2,57,-1
 517 -431 l 1,58,59
 285 -383 285 -383 188 -268.5 c 128,-1,60
 91 -154 91 -154 49 36 c 1,61,62
 73 34 73 34 96 34 c 2,63,-1
 143 34 l 1,64,-1
 307 37 l 1,65,-1
 750 37 l 1,66,-1
 749 34 l 1,67,-1
 749 33 l 2,0,1
833 972 m 0,68,69
 700 972 700 972 700 688 c 2,70,-1
 700 670 l 1,71,-1
 703 653 l 1,72,-1
 703 644 l 1,73,-1
 702 637 l 1,74,-1
 702 631 l 2,75,76
 702 491 702 491 754.5 442.5 c 128,-1,77
 807 394 807 394 842 394 c 0,78,79
 906 394 906 394 950 558 c 1,80,-1
 945 558 l 1,81,82
 960 598 960 598 960 638 c 2,83,-1
 960 670 l 1,84,-1
 961 682 l 1,85,86
 949 972 949 972 833 972 c 0,68,69
EndSplineSet
EndChar

StartChar: h
Encoding: 104 104 75
Width: 1438
GlyphClass: 2
Flags: W
LayerCount: 2
Fore
SplineSet
620 1066 m 1,0,1
 776 1239 776 1239 965.5 1239 c 128,-1,2
 1155 1239 1155 1239 1269 1093 c 1,3,4
 1375 925 1375 925 1375 764 c 1,5,-1
 1373 665 l 1,6,-1
 1373 587 l 1,7,-1
 1374 424 l 1,8,-1
 1374 171 l 1,9,-1
 1375 -1 l 1,10,-1
 807 -1 l 1,11,-1
 806 511 l 1,12,-1
 809 622 l 1,13,14
 809 802 809 802 710.5 802 c 128,-1,15
 612 802 612 802 612 592 c 2,16,-1
 612 464 l 1,17,-1
 613 422 l 1,18,-1
 613 0 l 1,19,-1
 326 -1 l 1,20,-1
 41 -1 l 1,21,-1
 40 783 l 1,22,-1
 40 1568 l 1,23,24
 190 1570 190 1570 324 1570 c 2,25,-1
 619 1570 l 1,26,-1
 620 1066 l 1,0,1
EndSplineSet
EndChar

StartChar: i
Encoding: 105 105 76
Width: 764
GlyphClass: 2
Flags: W
LayerCount: 2
Fore
SplineSet
680 1578 m 1,0,-1
 681 1304 l 1,1,-1
 65 1304 l 1,2,-1
 65 1374 l 2,3,4
 65 1410 65 1410 63 1441 c 1,5,-1
 62 1576 l 1,6,-1
 680 1578 l 1,0,-1
62 1586 m 1,7,-1
 62 1576 l 1,8,-1
 52 1576 l 1,9,-1
 62 1586 l 1,7,-1
675 1189 m 2,10,-1
 683 614 l 1,11,-1
 682 489 l 1,12,-1
 682 436 l 1,13,-1
 685 383 l 1,14,-1
 685 352 l 1,15,-1
 684 348 l 1,16,-1
 684 317 l 1,17,-1
 685 308 l 1,18,-1
 686 158 l 2,19,20
 686 12 686 12 675 1 c 1,21,-1
 657 -1 l 1,22,-1
 293 -1 l 1,23,-1
 251 -5 l 1,24,25
 95 -5 95 -5 61 -1 c 1,26,-1
 61 6 l 1,27,-1
 60 25 l 1,28,-1
 60 70 l 2,29,30
 60 276 60 276 66 397 c 1,31,-1
 77 1167 l 1,32,-1
 77 1197 l 1,33,-1
 155 1198 l 1,34,-1
 172 1197 l 1,35,-1
 201 1197 l 1,36,-1
 226 1196 l 1,37,-1
 239 1197 l 1,38,-1
 311 1197 l 1,39,-1
 326 1198 l 1,40,-1
 667 1194 l 1,41,-1
 672 1195 l 2,42,43
 675 1195 675 1195 675 1189 c 2,10,-1
EndSplineSet
EndChar

StartChar: j
Encoding: 106 106 77
Width: 918
GlyphClass: 2
Flags: W
LayerCount: 2
Fore
SplineSet
254 1294 m 1,0,-1
 251 1554 l 1,1,-1
 543 1554 l 1,2,-1
 835 1555 l 1,3,4
 835 1555 835 1555 836 1294 c 1,5,-1
 254 1294 l 1,0,-1
95 -534 m 1,6,7
 28 -524 28 -524 41 -487 c 1,8,-1
 41 -484 l 1,9,10
 44 -475 44 -475 44 -469 c 2,11,-1
 44 -450 l 1,12,-1
 47 -354 l 1,13,-1
 47 -126 l 1,14,-1
 80 -126 l 2,15,16
 230 -126 230 -126 244 -2 c 0,17,18
 248 33 248 33 248 66 c 2,19,-1
 248 81 l 1,20,-1
 250 208 l 1,21,-1
 250 1196 l 1,22,-1
 542 1196 l 1,23,-1
 835 1197 l 1,24,25
 838 711 838 711 838 -108 c 2,26,-1
 838 -112 l 1,27,28
 841 -132 841 -132 841 -182.5 c 128,-1,29
 841 -233 841 -233 806.5 -323 c 128,-1,30
 772 -413 772 -413 717 -451 c 1,31,-1
 718 -451 l 1,32,33
 589 -535 589 -535 340 -535 c 1,34,-1
 234 -532 l 1,35,-1
 228 -532 l 1,36,-1
 222 -533 l 1,37,-1
 204 -533 l 2,38,39
 198 -533 198 -533 194 -531 c 1,40,-1
 176 -531 l 1,41,42
 161 -536 161 -536 140 -536 c 128,-1,43
 119 -536 119 -536 101 -534 c 1,44,-1
 95 -534 l 1,6,7
39 -126 m 1,45,-1
 47 -116 l 1,46,-1
 47 -126 l 1,47,-1
 39 -126 l 1,45,-1
EndSplineSet
EndChar

StartChar: k
Encoding: 107 107 78
Width: 1632
GlyphClass: 2
Flags: W
LayerCount: 2
Fore
SplineSet
1500 1199 m 1,0,1
 1492 1150 1492 1150 1458 1102.5 c 128,-1,2
 1424 1055 1424 1055 1398 1012 c 128,-1,3
 1372 969 1372 969 1218 704 c 1,4,5
 1300 527 1300 527 1363 399 c 128,-1,6
 1426 271 1426 271 1438 246 c 2,7,-1
 1559 -1 l 1,8,-1
 871 -1 l 1,9,-1
 802 205 l 2,10,11
 751 358 751 358 699 527 c 1,12,-1
 661 441 l 1,13,-1
 661 1 l 1,14,15
 552 -2 552 -2 489 -2 c 2,16,-1
 206 -2 l 2,17,18
 111 -2 111 -2 20 0 c 1,19,-1
 20 1569 l 1,20,-1
 338 1569 l 1,21,-1
 656 1570 l 1,22,23
 656 1509 656 1509 656.5 1438 c 128,-1,24
 657 1367 657 1367 657.5 1290.5 c 128,-1,25
 658 1214 658 1214 658.5 1135 c 128,-1,26
 659 1056 659 1056 659.5 979 c 128,-1,27
 660 902 660 902 660.5 829.5 c 128,-1,28
 661 757 661 757 661 694 c 1,29,-1
 699 806 l 1,30,31
 729 903 729 903 764 1003.5 c 128,-1,32
 799 1104 799 1104 831 1198 c 1,33,-1
 1367 1198 l 1,34,-1
 1386 1197 l 1,35,-1
 1463 1197 l 2,36,37
 1472 1197 1472 1197 1480.5 1198 c 128,-1,38
 1489 1199 1489 1199 1500 1199 c 1,0,1
EndSplineSet
EndChar

StartChar: l
Encoding: 108 108 79
Width: 770
GlyphClass: 2
Flags: W
LayerCount: 2
Fore
SplineSet
316 1571 m 2,0,1
 492 1571 492 1571 676 1569 c 1,2,-1
 676 -1 l 1,3,-1
 64 -1 l 1,4,-1
 62 1570 l 1,5,-1
 316 1571 l 2,0,1
EndSplineSet
EndChar

StartChar: m
Encoding: 109 109 80
Width: 2224
GlyphClass: 2
Flags: W
LayerCount: 2
Fore
SplineSet
2173 789 m 1,0,-1
 2176 753 l 1,1,-1
 2174 714 l 1,2,3
 2176 660 2176 660 2176 613 c 2,4,-1
 2176 -1 l 1,5,-1
 1570 -1 l 1,6,-1
 1569 587 l 1,7,-1
 1570 609 l 1,8,9
 1570 754 1570 754 1484 754 c 128,-1,10
 1398 754 1398 754 1398 594 c 1,11,-1
 1400 525 l 1,12,-1
 1400 0 l 1,13,-1
 1122 -1 l 1,14,-1
 845 -1 l 1,15,-1
 844 536 l 1,16,-1
 846 601 l 1,17,18
 846 729 846 729 766 755 c 1,19,20
 672 749 672 749 672 610 c 1,21,-1
 674 550 l 1,22,-1
 674 0 l 1,23,-1
 352 -1 l 1,24,-1
 32 -1 l 1,25,-1
 31 600 l 1,26,-1
 31 1197 l 1,27,-1
 305 1198 l 1,28,-1
 580 1198 l 1,29,-1
 587 1174 l 2,30,31
 602 1125 602 1125 612.5 1084.5 c 128,-1,32
 623 1044 623 1044 630.5 1017 c 128,-1,33
 638 990 638 990 643 970 c 1,34,35
 744 1146 744 1146 874 1215 c 0,36,37
 920 1239 920 1239 958 1239 c 2,38,-1
 1031 1239 l 2,39,40
 1109 1239 1109 1239 1200 1167.5 c 128,-1,41
 1291 1096 1291 1096 1349 996 c 1,42,43
 1534 1239 1534 1239 1734 1239 c 128,-1,44
 1934 1239 1934 1239 2075 1070 c 0,45,46
 2120 1016 2120 1016 2139 951 c 1,47,-1
 2146 924 l 2,48,49
 2153 897 2153 897 2162 864 c 1,50,51
 2173 828 2173 828 2173 789 c 1,0,-1
EndSplineSet
EndChar

StartChar: n
Encoding: 110 110 81
Width: 1460
GlyphClass: 2
Flags: W
LayerCount: 2
Fore
SplineSet
1396 190 m 1,0,-1
 1397 -1 l 1,1,-1
 812 -1 l 1,2,-1
 810 499 l 1,3,-1
 814 601 l 1,4,5
 814 754 814 754 730 754 c 128,-1,6
 646 754 646 754 646 609 c 2,7,-1
 646 588 l 2,8,9
 646 574 646 574 647 565 c 1,10,-1
 647 550 l 1,11,-1
 648 533 l 1,12,-1
 648 0 l 1,13,-1
 350 -1 l 1,14,-1
 51 -1 l 1,15,-1
 50 599 l 1,16,-1
 50 1197 l 1,17,-1
 316 1196 l 1,18,-1
 584 1197 l 1,19,20
 589 1178 589 1178 593.5 1163 c 128,-1,21
 598 1148 598 1148 602.5 1131 c 128,-1,22
 607 1114 607 1114 613 1092.5 c 128,-1,23
 619 1071 619 1071 627 1041 c 2,24,-1
 646 966 l 1,25,26
 646 966 646 966 666 1016 c 0,27,28
 684 1062 684 1062 695 1078 c 1,29,-1
 711 1098 l 1,30,31
 814 1240 814 1240 995 1240 c 128,-1,32
 1176 1240 1176 1240 1287.5 1114 c 128,-1,33
 1399 988 1399 988 1399 824 c 0,34,35
 1399 812 1399 812 1396 805 c 1,36,-1
 1396 190 l 1,0,-1
EndSplineSet
EndChar

StartChar: o
Encoding: 111 111 82
Width: 1569
GlyphClass: 2
Flags: W
LayerCount: 2
Fore
SplineSet
765 1238 m 1,0,-1
 844 1239 l 1,1,2
 1014 1239 1014 1239 1166 1150 c 1,3,-1
 1186 1141 l 1,4,5
 1421 1027 1421 1027 1488 795 c 0,6,7
 1513 711 1513 711 1512 653 c 128,-1,8
 1511 595 1511 595 1511 593 c 2,9,-1
 1511 585 l 1,10,11
 1507 419 1507 419 1435 288 c 1,12,-1
 1436 288 l 1,13,14
 1226 -36 1226 -36 756 -36 c 0,15,16
 540 -36 540 -36 374 46 c 0,17,18
 22 222 22 222 22 604 c 0,19,20
 22 642 22 642 25 648 c 1,21,-1
 25 664 l 1,22,23
 22 668 22 668 22 672 c 2,24,-1
 23 679 l 2,25,26
 24 680 24 680 23.5 680.5 c 128,-1,27
 23 681 23 681 24 683 c 1,28,-1
 23 683 l 1,29,30
 44 860 44 860 97 913 c 1,31,32
 97 921 97 921 101.5 926 c 128,-1,33
 106 931 106 931 111 938 c 1,34,-1
 111 937 l 1,35,36
 113 939 113 939 115.5 944.5 c 128,-1,37
 118 950 118 950 134 972 c 0,38,39
 232 1106 232 1106 396 1168 c 1,40,-1
 431 1181 l 1,41,42
 499 1215 499 1215 616 1229 c 1,43,-1
 648 1232 l 2,44,45
 664 1234 664 1234 681 1234 c 128,-1,46
 698 1234 698 1234 707 1238 c 1,47,-1
 750 1237 l 1,48,49
 753 1238 753 1238 757 1238 c 128,-1,50
 761 1238 761 1238 766 1237 c 1,51,-1
 765 1238 l 1,0,-1
786 897 m 0,52,53
 672 897 672 897 672 670 c 0,54,55
 672 298 672 298 781.5 298 c 128,-1,56
 891 298 891 298 887.5 597.5 c 128,-1,57
 884 897 884 897 786 897 c 0,52,53
EndSplineSet
EndChar

StartChar: p
Encoding: 112 112 83
Width: 1552
GlyphClass: 2
Flags: W
LayerCount: 2
Fore
SplineSet
625 1061 m 1,0,1
 818 1239 818 1239 964 1239 c 0,2,3
 1185 1239 1185 1239 1293.5 1144 c 128,-1,4
 1402 1049 1402 1049 1450 908 c 0,5,6
 1514 716 1514 716 1485 472.5 c 128,-1,7
 1456 229 1456 229 1276 64 c 1,8,-1
 1276 65 l 1,9,10
 1180 -21 1180 -21 1086 -21 c 1,11,12
 997 -62 997 -62 897 -12 c 1,13,14
 761 17 761 17 672 106 c 1,15,-1
 634 105 l 1,16,17
 643 48 643 48 643 7 c 1,18,-1
 642 -11 l 1,19,-1
 642 -317 l 1,20,-1
 338 -318 l 1,21,-1
 35 -318 l 1,22,-1
 34 439 l 1,23,-1
 34 1196 l 1,24,-1
 292 1197 l 1,25,-1
 553 1197 l 1,26,27
 573 1155 573 1155 587 1131 c 2,28,-1
 625 1061 l 1,0,1
758 905 m 0,29,30
 630 905 630 905 630 603.5 c 128,-1,31
 630 302 630 302 749 271 c 1,32,33
 857 279 857 279 871 503 c 1,34,-1
 876 566 l 1,35,36
 875 567 875 567 875 570 c 256,37,38
 875 573 875 573 876 575 c 1,39,-1
 876 592 l 2,40,41
 876 637 876 637 872 673 c 1,42,-1
 866 715 l 1,43,44
 862 732 862 732 856 778 c 0,45,46
 838 905 838 905 758 905 c 0,29,30
EndSplineSet
EndChar

StartChar: q
Encoding: 113 113 84
Width: 1556
GlyphClass: 2
Flags: W
LayerCount: 2
Fore
SplineSet
33 541 m 2,0,-1
 34 620 l 1,1,2
 34 874 34 874 178 1062 c 1,3,4
 331 1240 331 1240 521.5 1234 c 128,-1,5
 712 1228 712 1228 743.5 1203 c 128,-1,6
 775 1178 775 1178 885 1078 c 1,7,-1
 912 1061 l 1,8,9
 925 1095 925 1095 937 1118 c 128,-1,10
 949 1141 949 1141 960 1164 c 2,11,-1
 970 1185 l 2,12,13
 979 1203 979 1203 1015.5 1200 c 128,-1,14
 1052 1197 1052 1197 1206 1197 c 2,15,-1
 1492 1197 l 1,16,-1
 1493 858 l 1,17,-1
 1493 786 l 1,18,-1
 1495 559 l 2,19,20
 1498 224 1498 224 1498 -319 c 1,21,-1
 890 -319 l 1,22,-1
 889 120 l 1,23,24
 837 98 837 98 796 60.5 c 128,-1,25
 755 23 755 23 666 -5 c 0,26,27
 434 -78 434 -78 237 68 c 128,-1,28
 40 214 40 214 40 511 c 1,29,30
 33 524 33 524 33 541 c 2,0,-1
909 547 m 1,31,-1
 911 592 l 1,32,33
 911 879 911 879 789 906 c 1,34,35
 705 892 705 892 682 757 c 0,36,37
 678 734 678 734 669 697.5 c 128,-1,38
 660 661 660 661 661 617 c 1,39,-1
 661 570 l 2,40,41
 661 304 661 304 780 271 c 1,42,43
 862 276 862 276 893 411 c 1,44,-1
 910 533 l 1,45,-1
 909 547 l 1,31,-1
EndSplineSet
EndChar

StartChar: r
Encoding: 114 114 85
Width: 1186
GlyphClass: 2
Flags: W
LayerCount: 2
Fore
SplineSet
44 1197 m 1,0,-1
 310 1198 l 1,1,-1
 576 1198 l 1,2,-1
 598 1064 l 2,3,4
 604 1027 604 1027 610.5 983.5 c 128,-1,5
 617 940 617 940 625 904 c 1,6,-1
 660 904 l 1,7,8
 697 1075 697 1075 802 1147 c 1,9,-1
 842 1170 l 1,10,11
 846 1178 846 1178 878 1192 c 1,12,-1
 874 1191 l 1,13,-1
 897 1200 l 2,14,15
 993 1238 993 1238 1066 1240 c 1,16,-1
 1077 1240 l 2,17,18
 1082 1240 1082 1240 1086 1238 c 1,19,-1
 1123 1238 l 1,20,-1
 1123 680 l 1,21,22
 1101 685 1101 685 1050 685 c 0,23,24
 945 685 945 685 872 628 c 0,25,26
 754 535 754 535 754 289 c 1,27,-1
 756 184 l 1,28,-1
 756 0 l 1,29,-1
 400 -1 l 1,30,-1
 45 -1 l 1,31,-1
 44 596 l 1,32,-1
 44 1197 l 1,0,-1
EndSplineSet
EndChar

StartChar: s
Encoding: 115 115 86
Width: 1638
GlyphClass: 2
Flags: W
LayerCount: 2
Fore
SplineSet
959 297 m 0,0,1
 958 406 958 406 722 424 c 0,2,3
 690 426 690 426 647 433 c 128,-1,4
 604 440 604 440 535 449 c 128,-1,5
 466 458 466 458 396 472 c 0,6,7
 38 547 38 547 37 833 c 1,8,9
 37 1149 37 1149 498 1210 c 0,10,11
 522 1213 522 1213 572.5 1224 c 128,-1,12
 623 1235 623 1235 639.5 1235 c 128,-1,13
 656 1235 656 1235 662 1233 c 1,14,-1
 789 1240 l 1,15,-1
 965 1232 l 1,16,17
 1463 1193 1463 1193 1500 945 c 1,18,-1
 1493 947 l 1,19,-1
 1273 937 l 1,20,-1
 1182 938 l 1,21,22
 1059 938 1059 938 931 936 c 1,23,24
 901 1015 901 1015 801.5 1015 c 128,-1,25
 702 1015 702 1015 702 943 c 0,26,27
 702 832 702 832 1026 814 c 0,28,29
 1070 812 1070 812 1116 803.5 c 128,-1,30
 1162 795 1162 795 1270 783.5 c 128,-1,31
 1378 772 1378 772 1489 676 c 1,32,33
 1566 643 1566 643 1586 439 c 1,34,35
 1580 293 1580 293 1480 182 c 0,36,37
 1344 31 1344 31 1198 14 c 1,38,-1
 1164 6 l 1,39,40
 1065 -22 1065 -22 996 -22 c 1,41,42
 956 -36 956 -36 858 -36 c 1,43,-1
 833 -35 l 1,44,-1
 760 -35 l 1,45,-1
 749 -36 l 1,46,47
 591 -36 591 -36 417 14 c 1,48,-1
 417 13 l 1,49,50
 39 108 39 108 39 337 c 1,51,52
 92 333 92 333 207 333 c 128,-1,53
 322 333 322 333 440.5 334.5 c 128,-1,54
 559 336 559 336 684 336 c 1,55,56
 683 331 683 331 683 326 c 2,57,-1
 683 307 l 2,58,59
 683 216 683 216 821 216 c 128,-1,60
 959 216 959 216 959 297 c 0,0,1
EndSplineSet
EndChar

StartChar: t
Encoding: 116 116 87
Width: 1042
GlyphClass: 2
Flags: W
LayerCount: 2
Fore
SplineSet
789 498 m 1,0,-1
 788 483 l 1,1,2
 788 416 788 416 810.5 393 c 128,-1,3
 833 370 833 370 928 370 c 1,4,-1
 955 369 l 2,5,6
 970 369 970 369 982 372 c 1,7,-1
 983 -1 l 1,8,-1
 436 -1 l 1,9,-1
 402 -3 l 1,10,-1
 386 -3 l 2,11,12
 380 -3 380 -3 374 -1 c 0,13,14
 185 46 185 46 172 238 c 0,15,16
 169 292 169 292 169 348 c 2,17,-1
 169 902 l 1,18,-1
 51 902 l 1,19,-1
 50 1042 l 1,20,-1
 50 1185 l 1,21,-1
 165 1185 l 1,22,-1
 165 1516 l 1,23,-1
 474 1516 l 1,24,-1
 783 1517 l 1,25,-1
 784 1187 l 1,26,-1
 951 1187 l 1,27,-1
 952 1044 l 1,28,-1
 952 902 l 1,29,-1
 789 902 l 1,30,-1
 789 498 l 1,0,-1
EndSplineSet
EndChar

StartChar: u
Encoding: 117 117 88
Width: 1538
GlyphClass: 2
Flags: W
LayerCount: 2
Fore
SplineSet
689 465 m 2,0,1
 689 363 689 363 756 363 c 128,-1,2
 823 363 823 363 823 471 c 2,3,-1
 823 1195 l 1,4,-1
 1152 1196 l 1,5,-1
 1478 1196 l 1,6,-1
 1479 1 l 1,7,-1
 919 1 l 1,8,-1
 872 163 l 1,9,10
 742 -36 742 -36 536 -36 c 128,-1,11
 330 -36 330 -36 198 74 c 1,12,-1
 199 81 l 1,13,14
 174 88 174 88 114 176 c 128,-1,15
 54 264 54 264 54 519 c 1,16,-1
 55 551 l 1,17,-1
 55 1195 l 1,18,-1
 373 1195 l 1,19,-1
 691 1196 l 1,20,-1
 691 1100 l 1,21,-1
 689 465 l 2,0,1
EndSplineSet
EndChar

StartChar: v
Encoding: 118 118 89
Width: 1663
GlyphClass: 2
Flags: W
LayerCount: 2
Fore
SplineSet
-5 1196 m 1,0,-1
 375 1197 l 1,1,-1
 747 1197 l 1,2,3
 753 1165 753 1165 754 1149 c 128,-1,4
 755 1133 755 1133 757 1117 c 2,5,-1
 779 899 l 2,6,7
 783 854 783 854 789 802 c 128,-1,8
 795 750 795 750 801 697 c 128,-1,9
 807 644 807 644 813 593 c 128,-1,10
 819 542 819 542 824 497 c 1,11,-1
 826 497 l 1,12,-1
 934 1197 l 1,13,-1
 1639 1197 l 1,14,-1
 1636 1177 l 1,15,-1
 1633 1177 l 1,16,17
 1423 449 1423 449 1291 0 c 1,18,-1
 325 0 l 1,19,20
 250 256 250 256 204 419 c 1,21,-1
 186 491 l 1,22,23
 83 884 83 884 -5 1196 c 1,0,-1
EndSplineSet
EndChar

StartChar: w
Encoding: 119 119 90
Width: 1966
GlyphClass: 2
Flags: W
LayerCount: 2
Fore
SplineSet
1141 1186 m 1,0,-1
 1215 708 l 1,1,-1
 1217 708 l 1,2,3
 1233 792 1233 792 1253 926 c 2,4,-1
 1269 1030 l 1,5,-1
 1283 1104 l 1,6,7
 1289 1165 1289 1165 1297 1198 c 1,8,-1
 1952 1198 l 1,9,10
 1877 846 1877 846 1820 590.5 c 128,-1,11
 1763 335 1763 335 1738 219 c 1,12,-1
 1682 -1 l 1,13,-1
 1046 -1 l 1,14,-1
 1024 166 l 1,15,16
 999 328 999 328 985 456 c 128,-1,17
 971 584 971 584 968 583 c 1,18,-1
 880 -1 l 1,19,-1
 203 -1 l 1,20,21
 169 159 169 159 143.5 325 c 128,-1,22
 118 491 118 491 92 652 c 2,23,-1
 71 785 l 2,24,25
 55 886 55 886 36.5 991 c 128,-1,26
 18 1096 18 1096 1 1199 c 1,27,-1
 336 1199 l 1,28,-1
 669 1200 l 1,29,30
 672 1170 672 1170 674 1160 c 2,31,-1
 680 1117 l 1,32,33
 691 1019 691 1019 703.5 909.5 c 128,-1,34
 716 800 716 800 724 697 c 1,35,-1
 728 697 l 1,36,37
 735 739 735 739 740 780.5 c 128,-1,38
 745 822 745 822 753 865 c 2,39,-1
 802 1158 l 1,40,-1
 804 1184 l 1,41,42
 886 1186 886 1186 973 1186 c 2,43,-1
 1141 1186 l 1,0,-1
EndSplineSet
EndChar

StartChar: x
Encoding: 120 120 91
Width: 1624
GlyphClass: 2
Flags: W
LayerCount: 2
Fore
SplineSet
411 1197 m 1,0,-1
 726 1198 l 1,1,2
 740 1124 740 1124 755.5 1009.5 c 128,-1,3
 771 895 771 895 782 841 c 2,4,-1
 795 775 l 1,5,-1
 830 775 l 1,6,-1
 869 965 l 2,7,8
 874 990 874 990 888.5 1072.5 c 128,-1,9
 903 1155 903 1155 915 1198 c 1,10,-1
 1542 1198 l 1,11,-1
 1388 868 l 1,12,-1
 1371 828 l 1,13,14
 1354 792 1354 792 1335.5 758 c 128,-1,15
 1317 724 1317 724 1317 718 c 1,16,-1
 1290 668 l 1,17,18
 1367 480 1367 480 1428.5 320.5 c 128,-1,19
 1490 161 1490 161 1558 -1 c 1,20,-1
 923 -1 l 1,21,22
 876 188 876 188 799 540 c 1,23,-1
 763 540 l 1,24,25
 753 486 753 486 741 425.5 c 128,-1,26
 729 365 729 365 720 311 c 2,27,-1
 702 203 l 2,28,29
 689 122 689 122 665 -2 c 1,30,-1
 655 -2 l 1,31,32
 529 0 529 0 410 0 c 2,33,-1
 309 0 l 1,34,-1
 207 -1 l 1,35,-1
 33 -1 l 1,36,37
 45 38 45 38 65 87 c 2,38,-1
 84 135 l 1,39,40
 120 234 120 234 154.5 334 c 128,-1,41
 189 434 189 434 234 533 c 1,42,-1
 286 670 l 1,43,44
 263 726 263 726 242.5 785 c 128,-1,45
 222 844 222 844 202 901 c 1,46,-1
 203 901 l 1,47,-1
 186 952 l 1,48,49
 122 1129 122 1129 103 1197 c 1,50,-1
 411 1197 l 1,0,-1
EndSplineSet
EndChar

StartChar: y
Encoding: 121 121 92
Width: 1403
GlyphClass: 2
Flags: W
LayerCount: 2
Fore
SplineSet
329 -550 m 1,0,-1
 280 -549 l 1,1,-1
 269 -549 l 1,2,-1
 208 -546 l 1,3,-1
 169 -549 l 2,4,5
 160 -549 160 -549 144 -547 c 1,6,-1
 60 -547 l 1,7,-1
 41 -496 l 2,8,9
 39 -491 39 -491 39 -487 c 2,10,-1
 39 -474 l 2,11,12
 39 -470 39 -470 40 -467 c 1,13,-1
 40 -460 l 1,14,-1
 41 -450 l 1,15,-1
 41 -248 l 2,16,17
 41 -204 41 -204 40 -161 c 1,18,19
 51 -159 51 -159 58 -159 c 2,20,-1
 75 -159 l 2,21,22
 154 -159 154 -159 238 -138 c 1,23,-1
 238 -139 l 1,24,25
 386 -86 386 -86 293 219 c 1,26,-1
 277 269 l 1,27,28
 119 770 119 770 -16 1195 c 1,29,-1
 289 1195 l 1,30,-1
 590 1196 l 1,31,-1
 635 937 l 1,32,33
 643 871 643 871 651 813.5 c 128,-1,34
 659 756 659 756 667 696 c 1,35,-1
 764 1196 l 1,36,-1
 1355 1196 l 1,37,-1
 1355 1198 l 1,38,-1
 1375 1196 l 1,39,-1
 1370 1176 l 1,40,-1
 1368 1176 l 1,41,-1
 1104 444 l 1,42,43
 1064 348 1064 348 1041.5 271.5 c 128,-1,44
 1019 195 1019 195 1005 159 c 128,-1,45
 991 123 991 123 968 62 c 128,-1,46
 945 1 945 1 926 -54 c 0,47,48
 851 -270 851 -270 802 -358 c 0,49,50
 706 -529 706 -529 504 -545 c 1,51,-1
 410 -546 l 1,52,-1
 329 -550 l 1,0,-1
EndSplineSet
EndChar

StartChar: z
Encoding: 122 122 93
Width: 1440
GlyphClass: 2
Flags: W
LayerCount: 2
Fore
SplineSet
456 819 m 1,0,-1
 228 821 l 1,1,-1
 146 821 l 1,2,-1
 146 1196 l 1,3,-1
 1399 1196 l 1,4,5
 1399 1193 1399 1193 1395 1193 c 1,6,-1
 1282 1011 l 1,7,8
 1048 608 1048 608 917 370 c 1,9,-1
 1106 370 l 1,10,11
 1106 370 1106 370 1325 369 c 1,12,-1
 1325 -1 l 1,13,-1
 145 -1 l 1,14,-1
 58 -4 l 2,15,16
 32 -4 32 -4 11 -1 c 1,17,-1
 12 -2 l 1,18,19
 -12 -2 -12 -2 128.5 212 c 128,-1,20
 269 426 269 426 310 493 c 2,21,-1
 512 819 l 1,22,-1
 456 819 l 1,0,-1
EndSplineSet
EndChar

StartChar: braceleft
Encoding: 123 123 94
Width: 1032
GlyphClass: 2
Flags: W
LayerCount: 2
Fore
SplineSet
721 801 m 2,0,1
 721 664 721 664 520 597 c 1,2,-1
 605 565 l 1,3,4
 675 533 675 533 697.5 476 c 128,-1,5
 720 419 720 419 720 295 c 2,6,-1
 720 259 l 1,7,-1
 718 203 l 1,8,-1
 718 185 l 2,9,10
 718 91 718 91 746 57 c 128,-1,11
 774 23 774 23 875 23 c 2,12,-1
 889 23 l 2,13,14
 914 23 914 23 918 18 c 1,15,-1
 918 -4 l 1,16,-1
 917 -16 l 1,17,-1
 917 -96 l 1,18,-1
 918 -129 l 1,19,20
 918 -309 918 -309 905 -325 c 1,21,-1
 721 -317 l 1,22,23
 275 -317 275 -317 266 -82 c 0,24,25
 260 53 260 53 260 122.5 c 128,-1,26
 260 192 260 192 258.5 267 c 128,-1,27
 257 342 257 342 236 373 c 128,-1,28
 215 404 215 404 144 416 c 1,29,-1
 109 420 l 2,30,31
 90 422 90 422 75 423.5 c 128,-1,32
 60 425 60 425 60 427 c 0,33,34
 54 575 54 575 54 669.5 c 128,-1,35
 54 764 54 764 66 776 c 1,36,37
 248 776 248 776 257 886 c 1,38,-1
 255 1155 l 1,39,-1
 254 1163 l 1,40,-1
 254 1188 l 2,41,42
 254 1403 254 1403 372.5 1465.5 c 128,-1,43
 491 1528 491 1528 690 1532 c 2,44,-1
 818 1534 l 1,45,-1
 897 1531 l 1,46,-1
 905 1531 l 1,47,-1
 930 1508 l 1,48,-1
 929 1345 l 1,49,-1
 929 1262 l 1,50,-1
 930 1219 l 1,51,52
 930 1163 930 1163 911 1163 c 2,53,-1
 892 1164 l 1,54,-1
 844 1164 l 2,55,56
 736 1164 736 1164 726 1045 c 1,57,-1
 723 965 l 2,58,59
 721 924 721 924 721 884 c 2,60,-1
 721 801 l 2,0,1
EndSplineSet
EndChar

StartChar: bar
Encoding: 124 124 95
Width: 492
GlyphClass: 2
Flags: W
LayerCount: 2
Fore
SplineSet
177 1571 m 2,0,-1
 317 1571 l 2,1,2
 388 1571 388 1571 388 1567 c 2,3,-1
 388 1557 l 1,4,-1
 385 1500 l 1,5,-1
 389 1159 l 2,6,7
 390 1055 390 1055 391.5 944.5 c 128,-1,8
 393 834 393 834 394.5 703 c 128,-1,9
 396 572 396 572 402 280 c 1,10,-1
 407 -60 l 1,11,12
 396 -84 396 -84 312 -84 c 2,13,-1
 182 -84 l 2,14,15
 116 -84 116 -84 88 -56 c 1,16,17
 88 333 88 333 99 817 c 1,18,-1
 102 965 l 2,19,20
 105 1108 105 1108 106 1246 c 128,-1,21
 107 1384 107 1384 109 1519 c 1,22,-1
 109 1526 l 1,23,-1
 108 1534 l 1,24,-1
 108 1559 l 2,25,26
 108 1571 108 1571 177 1571 c 2,0,-1
EndSplineSet
EndChar

StartChar: braceright
Encoding: 125 125 96
Width: 1035
GlyphClass: 2
Flags: W
LayerCount: 2
Fore
SplineSet
315 1039 m 1,0,1
 315 1170 315 1170 180 1170 c 0,2,3
 114 1170 114 1170 114 1174 c 2,4,-1
 116 1315 l 1,5,-1
 116 1375 l 1,6,-1
 114 1439 l 1,7,8
 114 1497 114 1497 122 1515 c 1,9,10
 145 1513 145 1513 164 1513 c 2,11,-1
 232 1513 l 1,12,-1
 239 1512 l 1,13,-1
 258 1512 l 1,14,-1
 265 1513 l 1,15,-1
 363 1513 l 2,16,17
 623 1513 623 1513 695.5 1410.5 c 128,-1,18
 768 1308 768 1308 776 1128 c 1,19,-1
 776 1082 l 1,20,-1
 770 894 l 1,21,22
 770 772 770 772 963 772 c 1,23,-1
 967 773 l 1,24,25
 974 771 974 771 974 760 c 2,26,-1
 974 641 l 1,27,-1
 973 599 l 1,28,-1
 973 471 l 1,29,-1
 974 427 l 1,30,31
 966 416 966 416 907.5 413.5 c 128,-1,32
 849 411 849 411 812.5 393 c 128,-1,33
 776 375 776 375 776 329.5 c 128,-1,34
 776 284 776 284 778 260 c 2,35,-1
 781 192 l 1,36,37
 785 130 785 130 785 36 c 0,38,39
 785 -332 785 -332 444 -332 c 2,40,-1
 398 -332 l 1,41,-1
 382 -331 l 1,42,-1
 256 -332 l 1,43,-1
 227 -334 l 1,44,-1
 161 -334 l 1,45,-1
 136 -333 l 2,46,47
 128 -333 128 -333 124 -334 c 1,48,49
 114 -319 114 -319 108 -311 c 1,50,-1
 108 -312 l 1,51,-1
 100 -302 l 1,52,-1
 103 -147 l 1,53,-1
 102 -103 l 1,54,55
 102 22 102 22 119 31 c 1,56,-1
 174 31 l 2,57,58
 307 31 307 31 307 158 c 2,59,-1
 307 179 l 1,60,-1
 304 304 l 1,61,62
 308 439 308 439 350 497 c 128,-1,63
 392 555 392 555 525 601 c 1,64,65
 402 638 402 638 357 695 c 128,-1,66
 312 752 312 752 312 865 c 1,67,-1
 315 1039 l 1,0,1
EndSplineSet
EndChar

StartChar: asciitilde
Encoding: 126 126 97
Width: 1303
GlyphClass: 2
Flags: W
LayerCount: 2
Fore
SplineSet
651 370 m 1,0,1
 528 433 528 433 439 433 c 128,-1,2
 350 433 350 433 280 305 c 1,3,-1
 211 315 l 1,4,-1
 195 358 l 2,5,6
 193 364 193 364 189.5 371 c 128,-1,7
 186 378 186 378 184 386 c 1,8,-1
 185 385 l 1,9,10
 138 508 138 508 138 537 c 128,-1,11
 138 566 138 566 140 568 c 0,12,13
 257 772 257 772 427 772 c 0,14,15
 506 772 506 772 651 706 c 1,16,-1
 684 688 l 1,17,18
 690 686 690 686 723 669 c 0,19,20
 826 616 826 616 898 616 c 128,-1,21
 970 616 970 616 1056 745 c 1,22,23
 1053 751 1053 751 1050 766 c 1,24,-1
 1060 770 l 1,25,-1
 1070 760 l 1,26,-1
 1080 761 l 1,27,28
 1107 761 1107 761 1141.5 643 c 128,-1,29
 1176 525 1176 525 1176 518 c 2,30,-1
 1176 492 l 2,31,32
 1176 488 1176 488 1175 485 c 1,33,-1
 1175 480 l 1,34,35
 1042 295 1042 295 923 295 c 0,36,37
 751 295 751 295 675 358 c 1,38,-1
 651 370 l 1,0,1
EndSplineSet
EndChar

StartChar: exclamdown
Encoding: 161 161 99
Width: 784
GlyphClass: 2
Flags: W
LayerCount: 2
Fore
SplineSet
235 696 m 2,0,-1
 297 695 l 1,1,-1
 464 695 l 2,2,3
 587 695 587 695 597.5 677 c 128,-1,4
 608 659 608 659 610.5 642.5 c 128,-1,5
 613 626 613 626 613.5 602 c 128,-1,6
 614 578 614 578 620 545 c 1,7,-1
 628 488 l 1,8,9
 675 -8 675 -8 692 -253 c 2,10,-1
 698 -343 l 2,11,12
 700 -361 700 -361 700 -385 c 1,13,14
 693 -402 693 -402 660 -403 c 128,-1,15
 627 -404 627 -404 611 -406 c 1,16,-1
 99 -415 l 1,17,-1
 79 -400 l 2,18,19
 78 -400 78 -400 78 -399 c 256,20,21
 78 -398 78 -398 77.5 -398 c 128,-1,22
 77 -398 77 -398 77 -397 c 2,23,-1
 90 -259 l 1,24,25
 94 -183 94 -183 108 -69 c 0,26,27
 122 51 122 51 145.5 363 c 128,-1,28
 169 675 169 675 181 685.5 c 128,-1,29
 193 696 193 696 235 696 c 2,0,-1
593 1226 m 1,30,-1
 648 1225 l 1,31,32
 659 1199 659 1199 659 1007 c 2,33,-1
 659 888 l 1,34,35
 644 870 644 870 508 870 c 1,36,-1
 472 871 l 1,37,-1
 385 871 l 1,38,-1
 154 864 l 1,39,40
 138 880 138 880 129 893 c 1,41,-1
 134 1047 l 1,42,-1
 135 1070 l 1,43,-1
 135 1085 l 2,44,45
 135 1224 135 1224 143 1224 c 2,46,-1
 212 1224 l 1,47,-1
 424 1226 l 1,48,-1
 593 1226 l 1,30,-1
660 890 m 1,49,-1
 659 888 l 1,50,-1
 660 890 l 1,49,-1
EndSplineSet
EndChar

StartChar: cent
Encoding: 162 162 100
Width: 1497
GlyphClass: 2
Flags: W
LayerCount: 2
Fore
SplineSet
1374 322 m 0,0,1
 1372 70 1372 70 953 -53 c 1,2,3
 958 -153 958 -153 958 -218 c 128,-1,4
 958 -283 958 -283 936 -286 c 1,5,-1
 865 -286 l 2,6,7
 741 -286 741 -286 648 -281 c 1,8,-1
 623 -252 l 1,9,-1
 626 -60 l 1,10,11
 411 -5 411 -5 361 38 c 0,12,13
 183 188 183 188 171 341 c 1,14,15
 143 448 143 448 143 534 c 0,16,17
 143 942 143 942 630 1088 c 1,18,-1
 630 1143 l 1,19,-1
 628 1317 l 2,20,21
 628 1330 628 1330 732 1330 c 2,22,-1
 878 1330 l 2,23,24
 920 1330 920 1330 934 1322 c 1,25,-1
 934 1315 l 1,26,27
 932 1261 932 1261 932 1207.5 c 128,-1,28
 932 1154 932 1154 929 1095 c 1,29,-1
 938 1085 l 1,30,31
 1318 1063 1318 1063 1360 673 c 1,32,33
 1348 667 1348 667 1308 667 c 2,34,-1
 1249 667 l 1,35,-1
 1216 668 l 1,36,-1
 1158 668 l 1,37,-1
 942 665 l 2,38,39
 910 665 910 665 896 672 c 1,40,-1
 896 675 l 2,41,42
 896 833 896 833 798 833 c 1,43,44
 655 829 655 829 655 522 c 0,45,46
 655 443 655 443 661 404 c 1,47,-1
 661 397 l 2,48,49
 661 222 661 222 772 222 c 128,-1,50
 883 222 883 222 917 365 c 1,51,-1
 923 389 l 1,52,53
 1097 386 1097 386 1368 386 c 0,54,55
 1374 386 1374 386 1374 322 c 0,0,1
EndSplineSet
EndChar

StartChar: sterling
Encoding: 163 163 101
Width: 1440
GlyphClass: 2
Flags: W
LayerCount: 2
Fore
SplineSet
1426 15 m 1,0,1
 1423 -30 1423 -30 1362 -30 c 2,2,-1
 1324 -30 l 1,3,-1
 1303 -31 l 1,4,-1
 1088 -31 l 1,5,-1
 1035 -30 l 1,6,7
 684 -30 684 -30 446 -35 c 1,8,-1
 410 -37 l 2,9,10
 374 -39 374 -39 341 -39 c 2,11,-1
 288 -39 l 1,12,-1
 260 -38 l 1,13,-1
 142 -38 l 2,14,15
 94 -38 94 -38 69 -36 c 1,16,-1
 51 -13 l 1,17,-1
 50 5 l 1,18,-1
 50 25 l 1,19,-1
 45 271 l 1,20,21
 45 346 45 346 62 365 c 1,22,-1
 204 375 l 1,23,24
 207 486 207 486 207 540 c 2,25,-1
 207 569 l 1,26,-1
 208 610 l 1,27,-1
 125 610 l 1,28,-1
 105 611 l 1,29,-1
 76 611 l 1,30,-1
 63 610 l 1,31,32
 12 610 12 610 12 628 c 2,33,-1
 13 708 l 1,34,-1
 13 746 l 1,35,-1
 14 784 l 1,36,-1
 14 799 l 1,37,-1
 12 854 l 1,38,39
 12 893 12 893 24 905 c 1,40,-1
 65 904 l 1,41,-1
 106 904 l 1,42,-1
 212 903 l 1,43,44
 210 953 210 953 210 1076.5 c 128,-1,45
 210 1200 210 1200 280 1328 c 1,46,47
 447 1567 447 1567 839.5 1567 c 128,-1,48
 1232 1567 1232 1567 1385 1335 c 1,49,50
 1440 1268 1440 1268 1440 1170.5 c 128,-1,51
 1440 1073 1440 1073 1432 1069 c 1,52,53
 1327 1070 1327 1070 1216 1070 c 0,54,55
 934 1070 934 1070 929 1097 c 0,56,57
 910 1188 910 1188 837 1188 c 1,58,59
 735 1178 735 1178 735 1029 c 0,60,61
 735 974 735 974 738 948 c 1,62,-1
 738 942 l 1,63,64
 740 926 740 926 740 895 c 1,65,-1
 991 900 l 2,66,67
 1036 900 1036 900 1044 893 c 1,68,-1
 1047 641 l 2,69,70
 1047 619 1047 619 1037 619 c 2,71,-1
 1022 619 l 2,72,73
 1017 619 1017 619 1011 620 c 2,74,-1
 953 623 l 2,75,76
 938 624 938 624 924 624 c 2,77,-1
 893 624 l 2,78,79
 760 624 760 624 753 610.5 c 128,-1,80
 746 597 746 597 745 573.5 c 128,-1,81
 744 550 744 550 743 532 c 128,-1,82
 742 514 742 514 742 497 c 2,83,-1
 739 388 l 1,84,85
 909 392 909 392 1079 392 c 2,86,-1
 1135 392 l 1,87,-1
 1407 399 l 1,88,89
 1422 394 1422 394 1422 348 c 2,90,-1
 1422 318 l 1,91,-1
 1426 15 l 1,0,1
EndSplineSet
EndChar

StartChar: currency
Encoding: 164 164 102
Width: 1478
GlyphClass: 2
Flags: W
LayerCount: 2
Fore
SplineSet
1381 60 m 1,0,1
 1357 43 1357 43 1337.5 40 c 128,-1,2
 1318 37 1318 37 1252 108 c 2,3,-1
 1156 210 l 1,4,5
 1026 80 1026 80 812 60 c 1,6,-1
 767 59 l 1,7,-1
 672 72 l 1,8,9
 524 95 524 95 420 184 c 1,10,-1
 349 108 l 1,11,12
 289 38 289 38 276 38 c 0,13,14
 260 38 260 38 221 61 c 1,15,16
 259 127 259 127 310 180 c 2,17,-1
 367 240 l 1,18,19
 325 293 325 293 305 353 c 1,20,-1
 306 353 l 1,21,-1
 294 386 l 1,22,23
 265 451 265 451 255 516 c 1,24,-1
 249 626 l 1,25,26
 255 898 255 898 392 1038 c 1,27,-1
 339 1093 l 1,28,29
 222 1210 222 1210 222 1230 c 128,-1,30
 222 1250 222 1250 272 1263 c 1,31,-1
 442 1081 l 1,32,33
 587 1183 587 1183 787 1183 c 128,-1,34
 987 1183 987 1183 1108 1071 c 1,35,-1
 1131 1052 l 1,36,-1
 1331 1262 l 1,37,38
 1336 1260 1336 1260 1380 1225 c 1,39,40
 1378 1213 1378 1213 1335.5 1169.5 c 128,-1,41
 1293 1126 1293 1126 1272.5 1104 c 128,-1,42
 1252 1082 1252 1082 1231 1061 c 1,43,-1
 1232 1061 l 1,44,-1
 1179 1004 l 1,45,46
 1295 850 1295 850 1295 630.5 c 128,-1,47
 1295 411 1295 411 1206 269 c 1,48,-1
 1291 180 l 2,49,50
 1351 116 1351 116 1381 60 c 1,0,1
1329 1263 m 2,51,-1
 1333 1265 l 1,52,-1
 1331 1262 l 1,53,54
 1330 1263 1330 1263 1329 1263 c 2,51,-1
277 1262 m 1,55,-1
 273 1262 l 1,56,-1
 270 1265 l 1,57,-1
 277 1262 l 1,55,-1
767 301 m 2,58,59
 1049 301 1049 301 1049 612 c 1,60,61
 1050 830 1050 830 973 887 c 128,-1,62
 896 944 896 944 769 944 c 2,63,-1
 734 944 l 2,64,65
 568 944 568 944 504 792 c 0,66,67
 478 730 478 730 478 616 c 0,68,69
 478 400 478 400 639 329 c 1,70,71
 676 300 676 300 733 300 c 1,72,-1
 742 301 l 1,73,-1
 767 301 l 2,58,59
EndSplineSet
EndChar

StartChar: yen
Encoding: 165 165 103
Width: 1456
GlyphClass: 2
Flags: W
LayerCount: 2
Fore
SplineSet
131 782 m 2,0,1
 131 816 131 816 197 816 c 2,2,-1
 207 816 l 1,3,-1
 250 814 l 1,4,-1
 283 814 l 1,5,-1
 266 916 l 1,6,-1
 143 1168 l 2,7,8
 114 1228 114 1228 90 1283 c 128,-1,9
 66 1338 66 1338 18.5 1418 c 128,-1,10
 -29 1498 -29 1498 -29 1523 c 0,11,12
 -29 1531 -29 1531 152 1531 c 2,13,-1
 226 1531 l 1,14,-1
 374 1534 l 1,15,16
 539 1534 539 1534 557 1516 c 1,17,18
 562 1478 562 1478 577 1440 c 128,-1,19
 592 1402 592 1402 605 1364 c 2,20,-1
 643 1246 l 1,21,-1
 642 1246 l 1,22,-1
 671 1154 l 2,23,24
 680 1125 680 1125 691 1094.5 c 128,-1,25
 702 1064 702 1064 710 1035 c 1,26,-1
 735 955 l 1,27,-1
 762 856 l 1,28,29
 774 899 774 899 807 1001.5 c 128,-1,30
 840 1104 840 1104 891 1274 c 2,31,-1
 947 1460 l 1,32,33
 969 1529 969 1529 1146 1529 c 1,34,-1
 1291 1527 l 1,35,-1
 1330 1527 l 1,36,-1
 1360 1528 l 1,37,-1
 1389 1528 l 1,38,-1
 1443 1529 l 1,39,-1
 1463 1529 l 2,40,41
 1506 1529 1506 1529 1513 1519 c 1,42,43
 1481 1461 1481 1461 1455.5 1400 c 128,-1,44
 1430 1339 1430 1339 1397 1280 c 1,45,-1
 1314 1111 l 1,46,47
 1294 1063 1294 1063 1273 1008 c 128,-1,48
 1252 953 1252 953 1233 905 c 2,49,-1
 1199 820 l 1,50,51
 1238 817 1238 817 1259 817 c 2,52,-1
 1290 817 l 2,53,54
 1299 817 1299 817 1306 818 c 1,55,-1
 1319 818 l 1,56,-1
 1333 819 l 1,57,58
 1345 813 1345 813 1345 770 c 2,59,-1
 1346 674 l 2,60,61
 1346 598 1346 598 1333 591 c 1,62,-1
 1072 591 l 1,63,-1
 1026 621 l 1,64,65
 1026 515 1026 515 1036 380 c 1,66,67
 1142 390 1142 390 1228 390 c 128,-1,68
 1314 390 1314 390 1333 379 c 128,-1,69
 1352 368 1352 368 1352 339 c 1,70,-1
 1350 300 l 1,71,-1
 1350 206 l 2,72,73
 1350 149 1350 149 1303 149 c 2,74,-1
 1236 150 l 1,75,-1
 1203 150 l 1,76,-1
 1169 151 l 1,77,78
 1089 151 1089 151 1027 147 c 1,79,-1
 1027 130 l 1,80,-1
 1026 82 l 1,81,-1
 1026 61 l 1,82,-1
 1027 18 l 1,83,84
 1027 -33 1027 -33 1003 -36 c 1,85,-1
 959 -36 l 1,86,-1
 862 -37 l 1,87,-1
 728 -37 l 1,88,-1
 635 -38 l 1,89,-1
 616 -38 l 1,90,-1
 610 -37 l 1,91,-1
 461 -34 l 1,92,93
 456 -25 456 -25 450 -18.5 c 128,-1,94
 444 -12 444 -12 438 -4 c 1,95,-1
 438 10 l 2,96,97
 438 15 438 15 439 22 c 1,98,-1
 439 35 l 1,99,-1
 440 56 l 1,100,-1
 438 109 l 1,101,-1
 438 145 l 1,102,-1
 219 139 l 1,103,104
 130 139 130 139 127 162 c 1,105,-1
 127 252 l 1,106,-1
 128 284 l 1,107,-1
 125 341 l 1,108,109
 125 389 125 389 160 389 c 1,110,-1
 193 388 l 1,111,-1
 225 388 l 1,112,-1
 362 386 l 1,113,-1
 411 386 l 1,114,-1
 452 392 l 1,115,116
 452 590 452 590 392 590 c 1,117,118
 292 585 292 585 143 585 c 1,119,120
 129 594 129 594 129 674 c 2,121,-1
 129 699 l 1,122,-1
 131 782 l 2,0,1
1342 600 m 1,123,-1
 1342 604 l 1,124,-1
 1362 602 l 1,125,-1
 1342 600 l 1,123,-1
EndSplineSet
EndChar

StartChar: brokenbar
Encoding: 166 166 104
Width: 494
GlyphClass: 2
Flags: W
LayerCount: 2
Fore
SplineSet
178 1571 m 2,0,-1
 318 1571 l 2,1,2
 389 1571 389 1571 389 1567 c 2,3,-1
 389 1557 l 1,4,-1
 386 1500 l 1,5,-1
 390 1159 l 1,6,-1
 396 795 l 1,7,8
 386 769 386 769 290 769 c 2,9,-1
 218 769 l 1,10,-1
 177 767 l 1,11,12
 128 767 128 767 100 797 c 1,13,-1
 110 1519 l 1,14,-1
 110 1526 l 1,15,-1
 109 1534 l 1,16,-1
 109 1559 l 2,17,18
 109 1571 109 1571 178 1571 c 2,0,-1
177 -375 m 1,19,20
 128 -375 128 -375 100 -345 c 1,21,-1
 110 440 l 1,22,-1
 109 449 l 1,23,-1
 109 467 l 2,24,25
 109 494 109 494 195 494 c 128,-1,26
 281 494 281 494 389 491 c 1,27,-1
 388 489 l 1,28,-1
 389 477 l 1,29,-1
 388 442 l 1,30,-1
 388 430 l 2,31,32
 388 424 388 424 390 420 c 1,33,-1
 390 6 l 1,34,-1
 392 -10 l 1,35,-1
 396 -348 l 1,36,37
 386 -373 386 -373 290 -373 c 2,38,-1
 218 -373 l 1,39,-1
 177 -375 l 1,19,20
EndSplineSet
EndChar

StartChar: section
Encoding: 167 167 105
Width: 1819
GlyphClass: 2
Flags: W
LayerCount: 2
Fore
SplineSet
1279 248 m 0,0,1
 1279 -68 1279 -68 720 -68 c 0,2,3
 518 -68 518 -68 260 -21 c 1,4,-1
 236 7 l 1,5,6
 233 97 233 97 233 146 c 2,7,-1
 233 227 l 2,8,9
 233 299 233 299 253 299 c 1,10,11
 472 226 472 226 573.5 226 c 128,-1,12
 675 226 675 226 675 278 c 0,13,14
 675 336 675 336 519 391.5 c 128,-1,15
 363 447 363 447 306 489 c 1,16,-1
 307 489 l 1,17,18
 200 583 200 583 200 718 c 128,-1,19
 200 853 200 853 336 951 c 0,20,21
 381 983 381 983 438 1003 c 1,22,23
 271 1091 271 1091 265 1244 c 1,24,25
 308 1559 308 1559 731 1559 c 0,26,27
 950 1559 950 1559 1229 1515 c 1,28,-1
 1230 1327 l 1,29,-1
 1231 1262 l 2,30,31
 1231 1246 1231 1246 1227 1242 c 1,32,33
 1049 1281 1049 1281 957.5 1281 c 128,-1,34
 866 1281 866 1281 866 1237 c 128,-1,35
 866 1193 866 1193 1013 1144 c 2,36,-1
 1077 1123 l 1,37,-1
 1076 1124 l 1,38,-1
 1102 1115 l 1,39,40
 1334 1020 1334 1020 1363 820 c 1,41,42
 1363 595 1363 595 1136 476 c 1,43,44
 1279 379 1279 379 1279 248 c 0,0,1
653 830 m 1,45,-1
 638 842 l 1,46,47
 618 810 618 810 618 781 c 0,48,49
 618 728 618 728 671 692 c 0,50,51
 783 616 783 616 840.5 616 c 128,-1,52
 898 616 898 616 934.5 639 c 128,-1,53
 971 662 971 662 971 690 c 0,54,55
 971 733 971 733 897 767 c 0,56,57
 743 838 743 838 663 838 c 1,58,-1
 708 883 l 1,59,60
 664 883 664 883 638 843 c 1,61,-1
 653 830 l 1,45,-1
1341 672 m 1,62,-1
 1341 675 l 1,63,-1
 1341 672 l 1,62,-1
EndSplineSet
EndChar

StartChar: dieresis
Encoding: 168 168 106
Width: 659
GlyphClass: 2
Flags: W
LayerCount: 2
Fore
SplineSet
586 1810 m 1,0,-1
 756 1813 l 1,1,2
 817 1813 817 1813 820 1805 c 1,3,4
 824 1674 824 1674 824 1566 c 2,5,6
 824 1566 824 1566 824 1453 c 1,7,-1
 817 1454 l 1,8,-1
 484 1440 l 1,9,-1
 458 1469 l 1,10,11
 458 1789 458 1789 482 1813 c 1,12,13
 524 1810 524 1810 586 1810 c 1,0,-1
458 1468 m 1,14,-1
 458 1469 l 1,15,-1
 458 1468 l 1,14,-1
837 1451 m 1,16,17
 837 1434 837 1434 827 1434 c 128,-1,18
 817 1434 817 1434 813 1438 c 1,19,-1
 823 1452 l 1,20,-1
 837 1451 l 1,16,17
253 1741 m 1,21,-1
 255 1643 l 1,22,-1
 255 1534 l 2,23,24
 255 1491 255 1491 256 1456 c 1,25,26
 247 1445 247 1445 175 1445 c 1,27,-1
 154 1446 l 1,28,-1
 103 1446 l 1,29,-1
 -84 1439 l 1,30,-1
 -108 1474 l 1,31,32
 -108 1788 -108 1788 -86 1813 c 1,33,34
 -5 1811 -5 1811 79 1811.5 c 128,-1,35
 163 1812 163 1812 247 1809 c 1,36,37
 254 1807 254 1807 254 1784 c 1,38,-1
 253 1773 l 1,39,-1
 253 1741 l 1,21,-1
EndSplineSet
EndChar

StartChar: copyright
Encoding: 169 169 107
Width: 1646
GlyphClass: 2
Flags: W
LayerCount: 2
Fore
SplineSet
1475 242 m 1,0,1
 1212 -66 1212 -66 843 -66 c 0,2,3
 622 -66 622 -66 399 60 c 1,4,-1
 399 59 l 1,5,6
 71 264 71 264 12 745 c 1,7,8
 29 1262 29 1262 470 1476 c 1,9,10
 642 1558 642 1558 841.5 1558 c 128,-1,11
 1041 1558 1041 1558 1230 1447 c 0,12,13
 1630 1214 1630 1214 1655 733 c 1,14,15
 1647 445 1647 445 1475 241 c 1,16,-1
 1475 242 l 1,0,1
829 1356 m 2,17,18
 701 1356 701 1356 588 1304 c 1,19,20
 278 1158 278 1158 223 758 c 1,21,22
 223 514 223 514 401.5 327.5 c 128,-1,23
 580 141 580 141 822 141 c 0,24,25
 1072 142 1072 142 1254 326 c 128,-1,26
 1436 510 1436 510 1436 750 c 0,27,28
 1436 1108 1436 1108 1137 1276 c 0,29,30
 998 1354 998 1354 843 1356 c 1,31,-1
 829 1356 l 2,17,18
661 775 m 0,32,33
 661 516 661 516 838 516 c 0,34,35
 915 516 915 516 933.5 543.5 c 128,-1,36
 952 571 952 571 968 600 c 128,-1,37
 984 629 984 629 1004 648 c 1,38,39
 1024 650 1024 650 1040 650 c 2,40,-1
 1157 650 l 1,41,-1
 1171 651 l 1,42,-1
 1184 651 l 2,43,44
 1229 651 1229 651 1237 631 c 1,45,46
 1205 489 1205 489 1103.5 391.5 c 128,-1,47
 1002 294 1002 294 824 294 c 128,-1,48
 646 294 646 294 531.5 433 c 128,-1,49
 417 572 417 572 412 757 c 1,50,51
 424 943 424 943 558 1072 c 1,52,53
 694 1200 694 1200 890 1200 c 0,54,55
 1156 1200 1156 1200 1226 882 c 1,56,57
 1222 873 1222 873 1179 873 c 1,58,-1
 1156 874 l 1,59,-1
 1007 874 l 1,60,-1
 999 882 l 1,61,62
 962 996 962 996 857 996 c 128,-1,63
 752 996 752 996 706.5 921 c 128,-1,64
 661 846 661 846 661 775 c 0,32,33
1227 881 m 1,65,-1
 1226 882 l 2,66,67
 1226 883 1226 883 1227 883 c 1,68,-1
 1227 881 l 1,65,-1
EndSplineSet
EndChar

StartChar: ordfeminine
Encoding: 170 170 108
Width: 845
GlyphClass: 2
Flags: W
LayerCount: 2
Fore
SplineSet
64 1080 m 0,0,1
 64 1252 64 1252 355 1252 c 2,2,-1
 444 1252 l 2,3,4
 489 1252 489 1252 540 1249 c 1,5,-1
 540 1311 l 2,6,7
 540 1457 540 1457 425 1457 c 0,8,9
 342 1457 342 1457 311 1399 c 1,10,11
 257 1399 257 1399 204.5 1398 c 128,-1,12
 152 1397 152 1397 98 1397 c 1,13,14
 147 1513 147 1513 433 1513 c 2,15,-1
 489 1513 l 2,16,17
 667 1513 667 1513 756 1448 c 1,18,19
 792 1407 792 1407 792 1327 c 2,20,-1
 791 1217 l 1,21,-1
 791 938 l 1,22,-1
 784 937 l 1,23,-1
 776 938 l 1,24,-1
 758 938 l 2,25,26
 706 938 706 938 654 940 c 1,27,-1
 648 940 l 1,28,29
 598 942 598 942 550 942 c 1,30,-1
 548 963 l 1,31,-1
 547 967 l 1,32,-1
 547 1022 l 1,33,34
 406 924 406 924 276 924 c 0,35,36
 64 924 64 924 64 1080 c 0,0,1
540 1103 m 1,37,-1
 540 1134 l 1,38,-1
 541 1183 l 1,39,-1
 539 1217 l 1,40,-1
 539 1235 l 1,41,-1
 514 1235 l 2,42,43
 295 1235 295 1235 295 1105 c 0,44,45
 295 1003 295 1003 408.5 1003 c 128,-1,46
 522 1003 522 1003 540 1103 c 1,37,-1
EndSplineSet
EndChar

StartChar: guillemotleft
Encoding: 171 171 109
Width: 1335
GlyphClass: 2
Flags: W
LayerCount: 2
Fore
SplineSet
1255 1046 m 1,0,-1
 1326 1044 l 1,1,-1
 1354 1044 l 2,2,3
 1382 1044 1382 1044 1384 1035 c 1,4,-1
 1305 863 l 1,5,6
 1224 684 1224 684 1145 526 c 1,7,-1
 1160 490 l 1,8,-1
 1160 484 l 1,9,10
 1184 428 1184 428 1210 367 c 128,-1,11
 1236 306 1236 306 1263 248 c 2,12,-1
 1291 188 l 2,13,14
 1337 89 1337 89 1380 -10 c 1,15,16
 1373 -24 1373 -24 1321 -24 c 1,17,-1
 1305 -23 l 1,18,-1
 1264 -23 l 1,19,-1
 1195 -24 l 1,20,-1
 991 -24 l 2,21,22
 972 -24 972 -24 956 -14 c 1,23,24
 924 37 924 37 892.5 86 c 128,-1,25
 861 135 861 135 828 187 c 1,26,-1
 830 187 l 1,27,-1
 793 243 l 2,28,29
 695 392 695 392 633 500 c 1,30,-1
 635 516 l 1,31,32
 672 578 672 578 713 643 c 128,-1,33
 754 708 754 708 795.5 774.5 c 128,-1,34
 837 841 837 841 879 907 c 128,-1,35
 921 973 921 973 960 1037 c 1,36,37
 970 1043 970 1043 1016 1043 c 2,38,-1
 1038 1043 l 1,39,-1
 1255 1046 l 1,0,-1
1162 498 m 1,40,41
 1183 498 1183 498 1183 487 c 1,42,-1
 1184 481 l 1,43,-1
 1164 481 l 1,44,-1
 1162 498 l 1,40,41
654 -19 m 1,45,-1
 350 -25 l 2,46,47
 342 -25 342 -25 340 -14 c 1,48,-1
 302 42 l 2,49,50
 223 158 223 158 149 272 c 128,-1,51
 75 386 75 386 1 498 c 1,52,53
 6 549 6 549 92 671.5 c 128,-1,54
 178 794 178 794 197 825 c 1,55,-1
 196 825 l 1,56,-1
 333 1038 l 1,57,58
 339 1042 339 1042 347 1046 c 1,59,-1
 350 1046 l 1,60,61
 420 1044 420 1044 484 1044 c 2,62,-1
 579 1044 l 1,63,-1
 611 1045 l 1,64,-1
 742 1045 l 1,65,-1
 751 1042 l 2,66,67
 752 1042 752 1042 753 1043 c 1,68,69
 749 1002 749 1002 695 907 c 1,70,-1
 670 862 l 1,71,72
 667 854 667 854 662.5 845 c 128,-1,73
 658 836 658 836 654 827 c 2,74,-1
 515 521 l 1,75,-1
 752 -8 l 1,76,77
 744 -19 744 -19 654 -19 c 1,45,-1
EndSplineSet
EndChar

StartChar: logicalnot
Encoding: 172 172 110
Width: 1283
GlyphClass: 2
Flags: W
LayerCount: 2
Fore
SplineSet
1128 228 m 1,0,1
 1050 228 1050 228 915 223 c 1,2,-1
 885 257 l 1,3,-1
 885 617 l 1,4,-1
 113 620 l 1,5,6
 108 624 108 624 108 638 c 2,7,-1
 111 811 l 1,8,-1
 111 834 l 1,9,-1
 110 859 l 1,10,-1
 110 910 l 1,11,12
 110 910 110 910 1189 922 c 1,13,14
 1195 920 1195 920 1200 919 c 128,-1,15
 1205 918 1205 918 1208 916 c 1,16,-1
 1211 581 l 2,17,18
 1213 411 1213 411 1213 248 c 1,19,20
 1208 227 1208 227 1191 227 c 2,21,-1
 1144 227 l 1,22,-1
 1128 228 l 1,0,1
111 916 m 2,23,24
 111 915 111 915 110.5 913.5 c 128,-1,25
 110 912 110 912 110 910 c 1,26,27
 108 911 108 911 103 911 c 1,28,-1
 111 916 l 2,23,24
EndSplineSet
EndChar

StartChar: registered
Encoding: 174 174 111
Width: 1710
GlyphClass: 2
Flags: W
LayerCount: 2
Fore
SplineSet
402 79 m 1,0,1
 100 280 100 280 56 746 c 1,2,3
 74 1227 74 1227 437 1442 c 0,4,5
 632 1558 632 1558 858 1558 c 0,6,7
 1321 1558 1321 1558 1569 1154 c 0,8,9
 1686 963 1686 963 1698 733 c 1,10,11
 1684 204 1684 204 1162 -18 c 0,12,13
 1048 -66 1048 -66 837.5 -66 c 128,-1,14
 627 -66 627 -66 401 79 c 1,15,-1
 402 79 l 1,0,1
1338 1153 m 1,16,17
 1140 1351 1140 1351 865.5 1351 c 128,-1,18
 591 1351 591 1351 471 1215 c 128,-1,19
 351 1079 351 1079 316.5 986 c 128,-1,20
 282 893 282 893 282 703.5 c 128,-1,21
 282 514 282 514 441 336.5 c 128,-1,22
 600 159 600 159 861.5 159 c 128,-1,23
 1123 159 1123 159 1293 336 c 0,24,25
 1462 513 1462 513 1462 753 c 128,-1,26
 1462 993 1462 993 1338 1153 c 1,16,17
884 1125 m 1,27,28
 1156 1125 1156 1125 1156 925 c 0,29,30
 1156 817 1156 817 1091.5 772 c 128,-1,31
 1027 727 1027 727 964 727 c 1,32,-1
 1070 526 l 1,33,34
 1079 515 1079 515 1084.5 504.5 c 128,-1,35
 1090 494 1090 494 1097 481.5 c 128,-1,36
 1104 469 1104 469 1112 454 c 1,37,-1
 1144 402 l 1,38,-1
 1144 392 l 1,39,40
 1089 387 1089 387 1024 387 c 1,41,42
 989 450 989 450 961 517 c 128,-1,43
 933 584 933 584 899 650 c 2,44,-1
 866 713 l 1,45,-1
 729 713 l 1,46,-1
 729 616 l 2,47,48
 729 557 729 557 726.5 498 c 128,-1,49
 724 439 724 439 724 392 c 1,50,51
 717 393 717 393 710 393 c 2,52,-1
 638 393 l 1,53,-1
 616 394 l 1,54,-1
 616 906 l 1,55,56
 614 976 614 976 614 1043 c 2,57,-1
 614 1118 l 1,58,-1
 620 1118 l 1,59,-1
 884 1125 l 1,27,28
724 379 m 1,60,-1
 724 392 l 1,61,62
 744 391 744 391 744 379 c 1,63,-1
 724 379 l 1,60,-1
1144 392 m 1,64,65
 1150 394 1150 394 1151 394 c 2,66,-1
 1154 394 l 1,67,-1
 1144 383 l 1,68,-1
 1144 392 l 1,64,65
1028 380 m 1,69,-1
 1018 387 l 1,70,-1
 1024 387 l 1,71,-1
 1028 380 l 1,69,-1
902 804 m 1,72,73
 1047 804 1047 804 1047 913 c 0,74,75
 1047 960 1047 960 1012 1005.5 c 128,-1,76
 977 1051 977 1051 729 1024 c 1,77,-1
 728 964 l 1,78,-1
 728 808 l 1,79,-1
 902 804 l 1,72,73
EndSplineSet
EndChar

StartChar: macron
Encoding: 175 175 112
Width: 678
GlyphClass: 2
Flags: W
LayerCount: 2
Fore
SplineSet
800 1233 m 2,0,1
 800 1208 800 1208 769 1208 c 2,2,-1
 739 1208 l 1,3,-1
 727 1209 l 1,4,-1
 591 1207 l 1,5,-1
 566 1206 l 1,6,-1
 540 1206 l 2,7,8
 465 1206 465 1206 389 1202 c 1,9,-1
 120 1199 l 2,10,11
 12 1197 12 1197 -96 1195 c 1,12,-1
 -117 1219 l 1,13,-1
 -117 1283 l 1,14,-1
 -116 1301 l 1,15,-1
 -116 1358 l 1,16,-1
 -117 1379 l 1,17,18
 -117 1440 -117 1440 -99 1480 c 1,19,20
 303 1454 303 1454 576 1454 c 2,21,-1
 643 1454 l 1,22,-1
 795 1458 l 1,23,24
 799 1452 799 1452 799 1441 c 128,-1,25
 799 1430 799 1430 798 1417 c 1,26,-1
 798 1316 l 2,27,28
 798 1299 798 1299 799 1287 c 1,29,-1
 799 1261 l 1,30,-1
 800 1233 l 2,0,1
EndSplineSet
EndChar

StartChar: degree
Encoding: 176 176 113
Width: 878
GlyphClass: 2
Flags: W
LayerCount: 2
Fore
SplineSet
748 1251 m 1,0,1
 746 1138 746 1138 660.5 1046 c 128,-1,2
 575 954 575 954 453 954 c 128,-1,3
 331 954 331 954 228.5 1034.5 c 128,-1,4
 126 1115 126 1115 124 1270 c 1,5,6
 162 1473 162 1473 317 1543 c 0,7,8
 372 1568 372 1568 467.5 1568 c 128,-1,9
 563 1568 563 1568 655.5 1482.5 c 128,-1,10
 748 1397 748 1397 748 1265 c 2,11,-1
 748 1251 l 1,0,1
EndSplineSet
EndChar

StartChar: plusminus
Encoding: 177 177 114
Width: 1266
GlyphClass: 2
Flags: W
LayerCount: 2
Fore
SplineSet
484 1158 m 2,0,1
 484 1202 484 1202 520 1202 c 1,2,-1
 542 1201 l 1,3,-1
 748 1201 l 1,4,-1
 761 1202 l 1,5,6
 794 1202 794 1202 800 1191 c 1,7,-1
 799 1180 l 1,8,-1
 796 967 l 1,9,-1
 976 967 l 1,10,-1
 1032 966 l 1,11,-1
 1182 966 l 1,12,13
 1189 962 1189 962 1189 939 c 2,14,-1
 1186 703 l 1,15,-1
 1187 694 l 1,16,17
 1187 676 1187 676 1181 676 c 2,18,-1
 790 676 l 1,19,-1
 789 570 l 1,20,21
 791 538 791 538 791 503 c 2,22,-1
 791 462 l 2,23,24
 791 453 791 453 792 453 c 2,25,-1
 753 453 l 1,26,-1
 737 454 l 1,27,-1
 515 451 l 1,28,-1
 503 451 l 1,29,30
 494 559 494 559 494 665 c 1,31,32
 450 669 450 669 385 669 c 2,33,-1
 187 666 l 1,34,-1
 141 666 l 2,35,36
 98 666 98 666 98 679 c 2,37,-1
 98 760 l 1,38,-1
 97 788 l 1,39,-1
 97 957 l 2,40,41
 97 972 97 972 170 972 c 2,42,-1
 281 972 l 1,43,-1
 307 973 l 1,44,-1
 484 976 l 1,45,-1
 484 1158 l 2,0,1
499 455 m 1,46,-1
 504 446 l 1,47,48
 492 439 492 439 485 439 c 128,-1,49
 478 439 478 439 478 454 c 1,50,-1
 499 455 l 1,46,-1
94 163 m 1,51,-1
 92 212 l 1,52,53
 92 271 92 271 116 289 c 1,54,-1
 140 286 l 1,55,56
 298 273 298 273 410 273 c 2,57,-1
 544 273 l 1,58,-1
 634 274 l 1,59,-1
 760 274 l 1,60,-1
 844 275 l 1,61,62
 1070 275 1070 275 1182 266 c 1,63,64
 1186 262 1186 262 1186 229 c 2,65,-1
 1186 181 l 1,66,-1
 1185 153 l 1,67,-1
 1185 -18 l 1,68,69
 1182 -25 1182 -25 1156 -25 c 1,70,-1
 1147 -24 l 1,71,-1
 783 -28 l 2,72,73
 699 -29 699 -29 618 -31 c 128,-1,74
 537 -33 537 -33 453 -32 c 1,75,-1
 360 -32 l 1,76,-1
 225 -34 l 1,77,-1
 152 -34 l 2,78,79
 122 -34 122 -34 112 -35 c 1,80,-1
 91 -6 l 1,81,-1
 94 149 l 1,82,-1
 94 163 l 1,51,-1
EndSplineSet
EndChar

StartChar: twosuperior
Encoding: 178 178 115
Width: 1160
GlyphClass: 2
Flags: W
LayerCount: 2
Fore
SplineSet
1008 258 m 2,0,1
 1073 258 1073 258 1073 148 c 1,2,-1
 1069 10 l 1,3,-1
 1069 -3 l 2,4,5
 1069 -15 1069 -15 1061 -16 c 1,6,-1
 1008 -15 l 1,7,8
 843 -10 843 -10 666 -10 c 128,-1,9
 489 -10 489 -10 147 -23 c 1,10,11
 129 -2 129 -2 129 48 c 2,12,-1
 132 254 l 2,13,14
 132 260 132 260 162.5 280 c 128,-1,15
 193 300 193 300 216 316 c 2,16,-1
 382 428 l 1,17,18
 670 631 670 631 670 734.5 c 128,-1,19
 670 838 670 838 590 838 c 128,-1,20
 510 838 510 838 496 748 c 0,21,22
 493 728 493 728 484 720 c 1,23,24
 465 719 465 719 451 719 c 2,25,-1
 241 719 l 1,26,-1
 208 720 l 1,27,-1
 152 720 l 2,28,29
 132 720 132 720 129 722 c 1,30,31
 139 883 139 883 199 943 c 0,32,33
 339 1083 339 1083 625 1083 c 128,-1,34
 911 1083 911 1083 1023 910 c 0,35,36
 1062 849 1062 849 1062 735 c 0,37,38
 1062 532 1062 532 712 308 c 1,39,-1
 713 309 l 1,40,41
 697 299 697 299 651 253 c 1,42,-1
 1008 258 l 2,0,1
EndSplineSet
EndChar

StartChar: threesuperior
Encoding: 179 179 116
Width: 1227
GlyphClass: 2
Flags: W
LayerCount: 2
Fore
SplineSet
1088 275 m 0,0,1
 1088 -43 1088 -43 599 -43 c 0,2,3
 332 -43 332 -43 206 83 c 1,4,5
 138 144 138 144 135.5 226.5 c 128,-1,6
 133 309 133 309 134 309 c 2,7,-1
 456 313 l 1,8,-1
 480 314 l 2,9,10
 484 314 484 314 488 284 c 0,11,12
 498 196 498 196 599 196 c 128,-1,13
 700 196 700 196 700 298 c 0,14,15
 700 428 700 428 560 425 c 0,16,17
 518 424 518 424 514 424 c 2,18,-1
 509 424 l 2,19,20
 468 424 468 424 468 520.5 c 128,-1,21
 468 617 468 617 488 617 c 1,22,-1
 501 616 l 1,23,-1
 545 616 l 2,24,25
 689 616 689 616 689 753 c 1,26,27
 688 846 688 846 611 846 c 128,-1,28
 534 846 534 846 522.5 811 c 128,-1,29
 511 776 511 776 508 755.5 c 128,-1,30
 505 735 505 735 493 723 c 1,31,32
 361 723 361 723 223 727 c 1,33,-1
 186 727 l 2,34,35
 156 727 156 727 150 733 c 1,36,37
 154 748 154 748 154 762 c 0,38,39
 166 1083 166 1083 638 1084 c 0,40,41
 808 1084 808 1084 936.5 1005.5 c 128,-1,42
 1065 927 1065 927 1065 788 c 0,43,44
 1065 625 1065 625 829 553 c 1,45,46
 1033 490 1033 490 1074 381 c 0,47,48
 1088 344 1088 344 1088 275 c 0,0,1
169 859 m 2,49,50
 169 858 169 858 168 857 c 2,51,-1
 169 859 l 2,49,50
EndSplineSet
EndChar

StartChar: acute
Encoding: 180 180 117
Width: 641
GlyphClass: 2
Flags: W
LayerCount: 2
Fore
SplineSet
125 1410 m 1,0,-1
 109 1409 l 1,1,-1
 60 1409 l 1,2,-1
 45 1438 l 1,3,-1
 213 1724 l 1,4,5
 227 1745 227 1745 238 1762.5 c 128,-1,6
 249 1780 249 1780 262 1794 c 1,7,-1
 332 1794 l 1,8,-1
 750 1784 l 1,9,-1
 750 1781 l 1,10,11
 682 1703 682 1703 615 1628.5 c 128,-1,12
 548 1554 548 1554 495.5 1493.5 c 128,-1,13
 443 1433 443 1433 409 1423 c 128,-1,14
 375 1413 375 1413 308 1413 c 1,15,-1
 125 1410 l 1,0,-1
EndSplineSet
EndChar

StartChar: mu
Encoding: 181 181 118
Width: 1358
GlyphClass: 2
Flags: W
LayerCount: 2
Fore
SplineSet
590 1060 m 1,0,1
 607 1053 607 1053 607 915 c 1,2,-1
 603 560 l 1,3,-1
 602 543 l 1,4,-1
 602 525 l 1,5,-1
 600 456 l 1,6,7
 600 274 600 274 687.5 274 c 128,-1,8
 775 274 775 274 775 429 c 1,9,-1
 774 497 l 1,10,-1
 774 514 l 1,11,-1
 777 642 l 2,12,13
 778 677 778 677 778 712 c 2,14,-1
 778 1044 l 2,15,16
 778 1052 778 1052 929 1052 c 1,17,-1
 949 1049 l 1,18,-1
 968 1049 l 1,19,-1
 1299 1055 l 1,20,21
 1308 1050 1308 1050 1312 1029 c 1,22,-1
 1313 945 l 1,23,-1
 1303 302 l 2,24,25
 1303 284 1303 284 1304.5 282.5 c 128,-1,26
 1306 281 1306 281 1306 279 c 1,27,-1
 1307 280 l 1,28,29
 1307 264 1307 264 1308 246 c 128,-1,30
 1309 228 1309 228 1310 208 c 2,31,-1
 1313 139 l 2,32,33
 1313 134 1313 134 1319 131 c 1,34,-1
 1311 -7 l 1,35,36
 1304 -20 1304 -20 1271 -20 c 2,37,-1
 1260 -20 l 1,38,-1
 1250 -19 l 1,39,-1
 1156 -19 l 1,40,-1
 1104 -20 l 1,41,-1
 971 -20 l 2,42,43
 890 -20 890 -20 806 -16 c 1,44,45
 795 -9 795 -9 795 72 c 2,46,-1
 795 93 l 1,47,-1
 761 99 l 1,48,-1
 744 67 l 1,49,50
 681 -48 681 -48 625 -48 c 0,51,52
 622 -48 622 -48 585 -37 c 1,53,-1
 585 -119 l 1,54,-1
 589 -416 l 1,55,-1
 583 -416 l 2,56,57
 565 -416 565 -416 544.5 -417.5 c 128,-1,58
 524 -419 524 -419 507 -420 c 2,59,-1
 467 -422 l 2,60,61
 374 -427 374 -427 324 -427 c 2,62,-1
 272 -427 l 1,63,-1
 253 -426 l 1,64,-1
 147 -426 l 1,65,-1
 138 -427 l 1,66,-1
 106 -427 l 2,67,68
 90 -427 90 -427 85 -425 c 1,69,-1
 92 -401 l 1,70,-1
 86 -64 l 2,71,72
 79 333 79 333 79 610 c 1,73,-1
 76 825 l 1,74,-1
 76 894 l 1,75,-1
 74 1033 l 2,76,77
 74 1052 74 1052 83 1060 c 1,78,79
 125 1061 125 1061 164 1061 c 2,80,-1
 247 1061 l 1,81,-1
 276 1060 l 1,82,-1
 590 1060 l 1,0,1
609 -422 m 1,83,84
 611 -428 611 -428 611 -434 c 128,-1,85
 611 -440 611 -440 599.5 -440 c 128,-1,86
 588 -440 588 -440 588 -432 c 128,-1,87
 588 -424 588 -424 592 -416 c 1,88,-1
 609 -422 l 1,83,84
EndSplineSet
EndChar

StartChar: paragraph
Encoding: 182 182 119
Width: 1323
GlyphClass: 2
Flags: W
LayerCount: 2
Fore
SplineSet
810 1303 m 1,0,1
 795 1123 795 1123 795 317 c 2,2,-1
 795 227 l 1,3,-1
 796 139 l 1,4,-1
 796 -31 l 1,5,-1
 562 -34 l 1,6,-1
 528 -34 l 2,7,8
 503 -34 503 -34 503 -25 c 2,9,-1
 503 174 l 1,10,-1
 506 799 l 1,11,12
 47 817 47 817 33 1158 c 1,13,14
 59 1511 59 1511 603 1511 c 1,15,-1
 626 1509 l 1,16,-1
 725 1509 l 1,17,-1
 736 1511 l 1,18,-1
 930 1515 l 2,19,20
 1080 1519 1080 1519 1230 1519 c 0,21,22
 1260 1519 1260 1519 1260 1477 c 2,23,-1
 1260 1430 l 1,24,-1
 1261 1415 l 1,25,-1
 1260 1399 l 1,26,-1
 1256 1037 l 2,27,28
 1254 901 1254 901 1254 767 c 128,-1,29
 1254 633 1254 633 1252 500 c 2,30,-1
 1243 -25 l 1,31,-1
 1244 -31 l 1,32,33
 1237 -51 1237 -51 1129 -51 c 1,34,-1
 955 -48 l 2,35,36
 947 -48 947 -48 927 -14 c 1,37,-1
 927 -3 l 1,38,-1
 926 12 l 1,39,-1
 926 46 l 2,40,41
 926 169 926 169 928.5 294.5 c 128,-1,42
 931 420 931 420 933 548 c 2,43,-1
 944 1285 l 1,44,-1
 881 1290 l 2,45,46
 854 1293 854 1293 810 1303 c 1,0,1
797 -31 m 2,47,48
 798 -31 798 -31 798 -32 c 1,49,50
 796 -32 796 -32 796 -31 c 1,51,-1
 797 -31 l 2,47,48
EndSplineSet
EndChar

StartChar: periodcentered
Encoding: 183 183 120
Width: 791
GlyphClass: 2
Flags: W
LayerCount: 2
Fore
SplineSet
208 697 m 1,0,1
 279 779 279 779 393 779 c 2,2,-1
 404 779 l 2,3,4
 413 779 413 779 425 777 c 1,5,-1
 437 777 l 2,6,7
 523 777 523 777 593 696 c 128,-1,8
 663 615 663 615 663 509.5 c 128,-1,9
 663 404 663 404 587 324 c 128,-1,10
 511 244 511 244 400 244 c 128,-1,11
 289 244 289 244 215 320 c 128,-1,12
 141 396 141 396 130 503 c 1,13,14
 141 532 141 532 155.5 593.5 c 128,-1,15
 170 655 170 655 209 697 c 1,16,-1
 208 697 l 1,0,1
EndSplineSet
EndChar

StartChar: cedilla
Encoding: 184 184 121
Width: 605
GlyphClass: 2
Flags: W
LayerCount: 2
Fore
SplineSet
121 -197 m 1,0,1
 232 -3 232 -3 242 -1 c 1,2,-1
 247 -1 l 1,3,-1
 255 -2 l 1,4,-1
 272 -2 l 1,5,-1
 410 -4 l 1,6,7
 421 -6 421 -6 421 -14 c 1,8,-1
 362 -121 l 1,9,10
 614 -121 614 -121 614 -311 c 0,11,12
 614 -413 614 -413 519 -474 c 128,-1,13
 424 -535 424 -535 273 -535 c 128,-1,14
 122 -535 122 -535 63 -509.5 c 128,-1,15
 4 -484 4 -484 4 -467.5 c 128,-1,16
 4 -451 4 -451 33 -398 c 1,17,-1
 46 -369 l 2,18,19
 47 -366 47 -366 48.5 -363 c 128,-1,20
 50 -360 50 -360 54 -348.5 c 128,-1,21
 58 -337 58 -337 69 -331 c 1,22,23
 202 -378 202 -378 221 -378 c 0,24,25
 353 -378 353 -378 353 -324 c 0,26,27
 353 -256 353 -256 243 -279 c 1,28,-1
 221 -286 l 1,29,30
 210 -286 210 -286 186 -270 c 2,31,-1
 164 -256 l 1,32,-1
 165 -256 l 1,33,34
 121 -231 121 -231 121 -197 c 1,0,1
221 -306 m 1,35,-1
 216 -307 l 1,36,-1
 214 -288 l 1,37,-1
 221 -286 l 1,38,-1
 221 -306 l 1,35,-1
EndSplineSet
EndChar

StartChar: onesuperior
Encoding: 185 185 122
Width: 1030
GlyphClass: 2
Flags: W
LayerCount: 2
Fore
SplineSet
409 -23 m 1,0,1
 383 -20 383 -20 383 14 c 0,2,3
 383 362 383 362 391 692 c 1,4,5
 271 609 271 609 216 591 c 128,-1,6
 161 573 161 573 161 574 c 2,7,-1
 161 861 l 1,8,-1
 254 906 l 1,9,10
 257 909 257 909 262 909 c 1,11,-1
 281 918 l 1,12,13
 435 987 435 987 482 1055 c 1,14,15
 587 1052 587 1052 674 1052 c 2,16,-1
 769 1052 l 2,17,18
 776 1052 776 1052 784 1053 c 1,19,20
 785 1048 785 1048 785 1018 c 2,21,-1
 785 938 l 1,22,-1
 784 897 l 1,23,-1
 784 774 l 2,24,25
 784 600 784 600 787 420 c 2,26,-1
 792 -14 l 1,27,28
 784 -22 784 -22 708 -22 c 1,29,-1
 686 -21 l 1,30,-1
 489 -21 l 1,31,-1
 437 -22 l 1,32,-1
 427 -22 l 1,33,-1
 409 -23 l 1,0,1
EndSplineSet
EndChar

StartChar: ordmasculine
Encoding: 186 186 123
Width: 938
GlyphClass: 2
Flags: W
LayerCount: 2
Fore
SplineSet
429 870 m 0,0,1
 27 870 27 870 -17 1215 c 1,2,-1
 -17 1225 l 1,3,4
 11 1392 11 1392 137 1475.5 c 128,-1,5
 263 1559 263 1559 426 1559 c 0,6,7
 939 1559 939 1559 959 1223 c 1,8,9
 930 870 930 870 429 870 c 0,0,1
EndSplineSet
EndChar

StartChar: guillemotright
Encoding: 187 187 124
Width: 1332
GlyphClass: 2
Flags: W
LayerCount: 2
Fore
SplineSet
809 -19 m 1,0,1
 751 -22 751 -22 669 -22 c 2,2,-1
 639 -22 l 2,3,4
 603 -22 603 -22 600 -19 c 1,5,-1
 819 516 l 1,6,-1
 804 549 l 1,7,-1
 809 554 l 1,8,-1
 602 1034 l 2,9,10
 601 1035 601 1035 601 1040 c 128,-1,11
 601 1045 601 1045 662 1045 c 2,12,-1
 881 1045 l 1,13,-1
 981 1048 l 1,14,15
 1019 1048 1019 1048 1047 1005 c 1,16,-1
 1047 1006 l 1,17,18
 1055 990 1055 990 1061 980 c 2,19,-1
 1238 696 l 1,20,-1
 1237 696 l 1,21,-1
 1266 649 l 1,22,23
 1345 534 1345 534 1345 517.5 c 128,-1,24
 1345 501 1345 501 1336.5 483.5 c 128,-1,25
 1328 466 1328 466 1315 446 c 128,-1,26
 1302 426 1302 426 1286.5 404.5 c 128,-1,27
 1271 383 1271 383 1258 363 c 2,28,-1
 1236 331 l 2,29,30
 1196 273 1196 273 1129.5 160.5 c 128,-1,31
 1063 48 1063 48 1022 -12 c 1,32,33
 1004 -21 1004 -21 915 -21 c 1,34,-1
 828 -19 l 1,35,-1
 809 -19 l 1,0,1
9 1043 m 1,36,37
 9 1052 9 1052 81.5 1052 c 128,-1,38
 154 1052 154 1052 418 1046 c 1,39,-1
 418 1045 l 2,40,41
 418 1042 418 1042 419 1041 c 2,42,-1
 579 787 l 2,43,44
 621 719 621 719 660.5 651.5 c 128,-1,45
 700 584 700 584 744 515 c 1,46,-1
 741 512 l 1,47,48
 715 468 715 468 688.5 424 c 128,-1,49
 662 380 662 380 635 335 c 1,50,-1
 636 335 l 1,51,52
 591 264 591 264 543 183 c 2,53,-1
 431 -6 l 1,54,55
 416 -15 416 -15 352 -15 c 2,56,-1
 320 -15 l 1,57,-1
 255 -16 l 1,58,59
 8 -35 8 -35 8 -17 c 0,60,61
 8 16 8 16 58 110 c 1,62,-1
 115 242 l 2,63,64
 126 268 126 268 137.5 296 c 128,-1,65
 149 324 149 324 163 352 c 1,66,-1
 229 507 l 1,67,-1
 11 1028 l 1,68,-1
 9 1043 l 1,36,37
801 559 m 1,69,-1
 804 549 l 1,70,-1
 773 517 l 1,71,-1
 781 559 l 1,72,-1
 801 559 l 1,69,-1
444 -23 m 1,73,-1
 430 -9 l 1,74,-1
 433 -6 l 1,75,-1
 447 -20 l 1,76,-1
 444 -23 l 1,73,-1
745 516 m 1,77,-1
 744 520 l 1,78,-1
 746 516 l 1,79,-1
 745 516 l 1,77,-1
744 515 m 1,80,-1
 745 516 l 1,81,-1
 744 515 l 1,80,-1
EndSplineSet
EndChar

StartChar: questiondown
Encoding: 191 191 128
Width: 1121
GlyphClass: 2
Flags: W
LayerCount: 2
Fore
SplineSet
659 337 m 1,0,1
 674 245 674 245 797 245 c 1,2,-1
 801 246 l 1,3,4
 934 250 934 250 1072 306 c 1,5,6
 1079 301 1079 301 1105 278 c 1,7,-1
 1105 263 l 1,8,9
 1103 83 1103 83 1103 -94 c 0,10,11
 1103 -172 1103 -172 776 -178.5 c 128,-1,12
 449 -185 449 -185 285 -111 c 1,13,-1
 240 -88 l 1,14,-1
 241 -89 l 1,15,16
 157 -36 157 -36 116 32 c 1,17,-1
 102 57 l 1,18,19
 84 94 84 94 72 161 c 128,-1,20
 60 228 60 228 52 246 c 1,21,22
 61 462 61 462 253.5 608.5 c 128,-1,23
 446 755 446 755 451 851 c 1,24,-1
 441 946 l 1,25,26
 444 949 444 949 448 951 c 1,27,-1
 449 951 l 1,28,29
 455 953 455 953 469 953 c 2,30,-1
 589 955 l 1,31,-1
 627 954 l 1,32,33
 696 954 696 954 852 960 c 1,34,-1
 954 963 l 1,35,36
 965 952 965 952 965 907 c 2,37,-1
 965 838 l 2,38,39
 965 694 965 694 868.5 605.5 c 128,-1,40
 772 517 772 517 723 463 c 128,-1,41
 674 409 674 409 659 337 c 1,0,1
949 1493 m 1,42,43
 971 1460 971 1460 971 1417 c 2,44,-1
 971 1380 l 1,45,-1
 970 1361 l 1,46,-1
 970 1259 l 1,47,-1
 971 1236 l 1,48,49
 971 1138 971 1138 953 1117 c 1,50,-1
 868 1120 l 1,51,52
 770 1126 770 1126 631.5 1129 c 128,-1,53
 493 1132 493 1132 471 1140.5 c 128,-1,54
 449 1149 449 1149 449 1188 c 2,55,-1
 449 1213 l 1,56,-1
 450 1226 l 1,57,-1
 447 1318 l 1,58,-1
 447 1473 l 1,59,60
 556 1475 556 1475 661.5 1480 c 128,-1,61
 767 1485 767 1485 879 1490 c 2,62,-1
 949 1493 l 1,42,43
447 1475 m 1,63,-1
 419 1473 l 1,64,65
 441 1495 441 1495 447 1495 c 1,66,-1
 447 1475 l 1,63,-1
EndSplineSet
EndChar

StartChar: AE
Encoding: 198 198 135
Width: 2383
GlyphClass: 2
Flags: W
LayerCount: 2
Fore
SplineSet
1144 1512 m 1,0,-1
 1870 1516 l 1,1,2
 1882 1508 1882 1508 1884 1505 c 1,3,-1
 1936 1327 l 2,4,5
 1951 1274 1951 1274 1965.5 1223.5 c 128,-1,6
 1980 1173 1980 1173 1993 1121 c 1,7,8
 1987 1115 1987 1115 1942 1115 c 2,9,-1
 1935 1115 l 2,10,11
 1671 1115 1671 1115 1421 1123 c 1,12,13
 1442 996 1442 996 1462 918 c 1,14,-1
 1758 925 l 2,15,16
 1820 927 1820 927 1906 927 c 128,-1,17
 1992 927 1992 927 2007 897 c 1,18,-1
 2014 865 l 1,19,20
 2030 808 2030 808 2060 720 c 1,21,-1
 2059 720 l 1,22,-1
 2099 583 l 1,23,24
 1806 568 1806 568 1625 568 c 2,25,-1
 1568 568 l 1,26,-1
 1624 377 l 1,27,-1
 2100 394 l 1,28,29
 2207 394 2207 394 2226 377 c 1,30,-1
 2307 99 l 2,31,32
 2310 87 2310 87 2315 73 c 128,-1,33
 2320 59 2320 59 2328 34 c 128,-1,34
 2336 9 2336 9 2336 -1.5 c 128,-1,35
 2336 -12 2336 -12 2326 -14 c 1,36,-1
 1994 -11 l 1,37,-1
 1597 -24 l 1,38,-1
 1546 -24 l 1,39,40
 1512 -26 1512 -26 1462 -26 c 1,41,-1
 1422 -25 l 1,42,-1
 1273 -27 l 1,43,44
 1084 -23 1084 -23 1078 -7 c 1,45,-1
 1072 15 l 1,46,47
 1039 213 1039 213 966 213 c 2,48,-1
 597 209 l 1,49,50
 583 153 583 153 568 95 c 128,-1,51
 553 37 553 37 539 -19 c 1,52,53
 528 -29 528 -29 443 -29 c 1,54,-1
 420 -28 l 1,55,-1
 361 -28 l 1,56,-1
 101 -34 l 1,57,-1
 70 -34 l 1,58,-1
 43 -35 l 1,59,-1
 -27 -35 l 1,60,61
 -35 -28 -35 -28 -42 -17 c 1,62,63
 52 307 52 307 213.5 791 c 128,-1,64
 375 1275 375 1275 410 1390 c 128,-1,65
 445 1505 445 1505 447 1507 c 1,66,-1
 614 1507 l 1,67,-1
 969 1512 l 1,68,-1
 1065 1507 l 1,69,-1
 1144 1512 l 1,0,-1
2099 583 m 1,70,-1
 2106 584 l 1,71,72
 2108 582 2108 582 2109 582 c 2,73,-1
 2110 581 l 1,74,75
 2102 581 2102 581 2102 577 c 2,76,-1
 2102 574 l 1,77,-1
 2099 583 l 1,70,-1
1284 -34 m 1,78,-1
 1270 -49 l 1,79,-1
 1265 -45 l 1,80,-1
 1278 -29 l 1,81,-1
 1284 -34 l 1,78,-1
744 534 m 1,82,83
 976 534 976 534 982 595 c 1,84,85
 982 624 982 624 974 652.5 c 128,-1,86
 966 681 966 681 960 710 c 2,87,-1
 922 881 l 1,88,89
 897 976 897 976 862 1146 c 1,90,-1
 847 1180 l 2,91,92
 841 1192 841 1192 816 1203 c 1,93,94
 761 1197 761 1197 712 982 c 128,-1,95
 663 767 663 767 649.5 705.5 c 128,-1,96
 636 644 636 644 625 601 c 1,97,-1
 664 535 l 1,98,-1
 703 535 l 1,99,-1
 744 534 l 1,82,83
EndSplineSet
EndChar

StartChar: Eth
Encoding: 208 208 145
Width: 1645
GlyphClass: 2
Flags: W
LayerCount: 2
Fore
SplineSet
1393 1346 m 1,0,1
 1622 1140 1622 1140 1622 768.5 c 128,-1,2
 1622 397 1622 397 1404.5 188 c 128,-1,3
 1187 -21 1187 -21 879 -23 c 1,4,-1
 875 -27 l 1,5,-1
 850 -27 l 1,6,-1
 586 -24 l 1,7,8
 390 -24 390 -24 133 -33 c 1,9,10
 112 -2 112 -2 112 45 c 1,11,-1
 113 88 l 1,12,-1
 113 244 l 1,13,-1
 115 466 l 1,14,-1
 115 634 l 1,15,-1
 46 633 l 1,16,-1
 -27 633 l 1,17,-1
 -51 648 l 1,18,-1
 -50 662 l 1,19,-1
 -50 678 l 1,20,-1
 -48 760 l 1,21,-1
 -48 771 l 1,22,-1
 -50 812 l 1,23,24
 -50 857 -50 857 -35 857 c 2,25,-1
 114 857 l 1,26,-1
 113 938 l 1,27,-1
 113 1184 l 1,28,-1
 114 1207 l 1,29,-1
 114 1493 l 2,30,31
 114 1512 114 1512 397 1512 c 2,32,-1
 513 1512 l 1,33,-1
 698 1515 l 1,34,35
 1177 1515 1177 1515 1394 1346 c 1,36,-1
 1393 1346 l 1,0,1
854 302 m 1,37,38
 1053 372 1053 372 1053 793 c 128,-1,39
 1053 1214 1053 1214 789 1214 c 0,40,41
 714 1214 714 1214 685 1216 c 1,42,43
 672 1198 672 1198 661 1176 c 1,44,-1
 661 1177 l 1,45,-1
 641 1140 l 1,46,-1
 641 1039 l 1,47,-1
 643 893 l 1,48,-1
 643 858 l 1,49,-1
 693 858 l 1,50,-1
 735 857 l 1,51,-1
 801 857 l 1,52,53
 817 841 817 841 817 756 c 1,54,-1
 816 728 l 1,55,-1
 816 676 l 2,56,57
 816 645 816 645 788 645 c 1,58,-1
 770 646 l 1,59,-1
 649 646 l 1,60,-1
 652 467 l 1,61,-1
 651 400 l 1,62,63
 651 294 651 294 695 288 c 1,64,65
 805 291 805 291 854 302 c 1,37,38
EndSplineSet
EndChar

StartChar: multiply
Encoding: 215 215 152
Width: 1283
GlyphClass: 2
Flags: W
LayerCount: 2
Fore
SplineSet
1103 297 m 2,0,1
 1135 267 1135 267 1135 258.5 c 128,-1,2
 1135 250 1135 250 972 87 c 1,3,-1
 973 87 l 1,4,-1
 939 53 l 1,5,-1
 663 320 l 1,6,7
 627 279 627 279 580.5 235 c 128,-1,8
 534 191 534 191 493 150 c 2,9,-1
 393 51 l 1,10,-1
 383 48 l 1,11,12
 368 50 368 50 336.5 81.5 c 128,-1,13
 305 113 305 113 295 120 c 1,14,-1
 266 150 l 1,15,16
 250 165 250 165 208 203.5 c 128,-1,17
 166 242 166 242 166 255 c 128,-1,18
 166 268 166 268 218 319 c 2,19,-1
 292 391 l 2,20,21
 314 413 314 413 335 433 c 128,-1,22
 356 453 356 453 371 468 c 2,23,-1
 435 533 l 1,24,25
 342 633 342 633 210 765 c 1,26,-1
 190 782 l 2,27,28
 171 799 171 799 168.5 814 c 128,-1,29
 166 829 166 829 225 880 c 1,30,-1
 286 941 l 2,31,32
 295 950 295 950 329 986.5 c 128,-1,33
 363 1023 363 1023 383 1023 c 1,34,-1
 479 925 l 2,35,36
 520 883 520 883 568 835 c 2,37,-1
 658 745 l 1,38,-1
 932 1021 l 1,39,-1
 934 1021 l 2,40,41
 951 1021 951 1021 1064 895 c 1,42,-1
 1108 850 l 2,43,44
 1143 815 1143 815 1123 804 c 1,45,-1
 1047 729 l 1,46,47
 914 602 914 602 855 540 c 1,48,49
 931 468 931 468 1083 316 c 1,50,-1
 1103 297 l 2,0,1
939 53 m 1,51,52
 938 52 938 52 937 52 c 1,53,54
 939 52 939 52 939 53 c 1,51,52
EndSplineSet
EndChar

StartChar: Oslash
Encoding: 216 216 153
Width: 1645
GlyphClass: 2
Flags: W
LayerCount: 2
Fore
SplineSet
1320 1420 m 1,0,1
 1608 1205 1608 1205 1608 781 c 0,2,3
 1608 418 1608 418 1460 230 c 1,4,-1
 1414 169 l 1,5,6
 1222 -55 1222 -55 790 -57 c 0,7,8
 599 -58 599 -58 429 14 c 1,9,-1
 388 -54 l 1,10,11
 307 -181 307 -181 286 -184 c 1,12,-1
 267 -178 l 1,13,14
 263 -178 263 -178 257.5 -175.5 c 128,-1,15
 252 -173 252 -173 247 -171 c 1,16,-1
 279 -90 l 1,17,-1
 364 46 l 1,18,-1
 351 58 l 1,19,20
 35 266 35 266 35 752 c 1,21,-1
 37 774 l 1,22,23
 79 1278 79 1278 438 1460 c 1,24,25
 624 1552 624 1552 848.5 1552 c 128,-1,26
 1073 1552 1073 1552 1268 1451 c 1,27,-1
 1387 1638 l 2,28,29
 1384 1633 1384 1633 1384 1632 c 0,30,31
 1434 1616 1434 1616 1434 1603.5 c 128,-1,32
 1434 1591 1434 1591 1320 1420 c 1,0,1
1010 1052 m 1,33,34
 947 1178 947 1178 833 1178 c 0,35,36
 657 1178 657 1178 626 932 c 0,37,38
 618 868 618 868 614 811 c 2,39,-1
 610 760 l 1,40,-1
 609 755 l 1,41,-1
 609 752 l 1,42,43
 605 720 605 720 605 653 c 128,-1,44
 605 586 605 586 627 456 c 1,45,-1
 1010 1052 l 1,33,34
666 380 m 1,46,47
 720 304 720 304 842 302 c 0,48,49
 1036 298 1036 298 1046 639 c 0,50,51
 1048 731 1048 731 1048 788.5 c 128,-1,52
 1048 846 1048 846 1037 969 c 1,53,-1
 666 380 l 1,46,47
EndSplineSet
EndChar

StartChar: Thorn
Encoding: 222 222 159
Width: 1527
GlyphClass: 2
Flags: W
LayerCount: 2
Fore
SplineSet
997 1367 m 1,0,1
 1023 1369 1023 1369 1040 1369 c 0,2,3
 1246 1369 1246 1369 1388.5 1236 c 128,-1,4
 1531 1103 1531 1103 1531 873 c 0,5,6
 1531 407 1531 407 945 356 c 1,7,-1
 729 347 l 1,8,9
 724 239 724 239 719 106 c 1,10,-1
 720 75 l 1,11,-1
 720 -7 l 1,12,13
 717 -22 717 -22 706 -25 c 1,14,-1
 134 -34 l 1,15,16
 117 12 117 12 117 120 c 2,17,-1
 117 527 l 1,18,-1
 119 938 l 1,19,-1
 118 1358 l 1,20,-1
 119 1361 l 1,21,-1
 119 1468 l 2,22,23
 119 1575 119 1575 136 1622 c 1,24,-1
 708 1613 l 1,25,26
 719 1610 719 1610 722 1594 c 1,27,-1
 722 1513 l 1,28,-1
 721 1483 l 1,29,-1
 724 1377 l 1,30,31
 901 1374 901 1374 990 1367 c 1,32,-1
 997 1367 l 1,0,1
737 640 m 1,33,34
 1007 646 1007 646 1007 866 c 1,35,36
 1010 1019 1010 1019 888 1050 c 0,37,38
 813 1069 813 1069 686 1069 c 1,39,40
 696 999 696 999 696 699 c 1,41,-1
 737 640 l 1,33,34
EndSplineSet
EndChar

StartChar: germandbls
Encoding: 223 223 160
Width: 1559
GlyphClass: 2
Flags: W
LayerCount: 2
Fore
SplineSet
1606 328 m 0,0,1
 1606 -66 1606 -66 1025 -66 c 0,2,3
 838 -66 838 -66 725 32 c 1,4,-1
 722 31 l 1,5,6
 662 90 662 90 631 213 c 1,7,-1
 593 211 l 1,8,-1
 593 93 l 2,9,10
 593 -14 593 -14 597 -18 c 1,11,12
 521 -22 521 -22 448 -22 c 2,13,-1
 111 -18 l 1,14,-1
 78 -18 l 1,15,-1
 73 721 l 1,16,-1
 73 810 l 2,17,18
 73 1147 73 1147 100 1240.5 c 128,-1,19
 127 1334 127 1334 174 1383 c 1,20,21
 385 1565 385 1565 726 1565 c 0,22,23
 869 1565 869 1565 1011 1537 c 1,24,25
 1343 1502 1343 1502 1424 1298 c 0,26,27
 1443 1250 1443 1250 1443 1165 c 128,-1,28
 1443 1080 1443 1080 1402 1031.5 c 128,-1,29
 1361 983 1361 983 1334.5 959.5 c 128,-1,30
 1308 936 1308 936 1267 896 c 128,-1,31
 1226 856 1226 856 1226 828.5 c 128,-1,32
 1226 801 1226 801 1251 779 c 128,-1,33
 1276 757 1276 757 1307.5 738.5 c 128,-1,34
 1339 720 1339 720 1368.5 705.5 c 128,-1,35
 1398 691 1398 691 1407 682 c 1,36,-1
 1407 683 l 1,37,38
 1606 560 1606 560 1606 328 c 0,0,1
939 1178 m 0,39,40
 939 1286 939 1286 814 1286 c 0,41,42
 603 1286 603 1286 596 1009 c 1,43,-1
 592 1000 l 1,44,45
 593 921 593 921 593 840 c 2,46,-1
 593 313 l 1,47,-1
 639 358 l 1,48,-1
 1001 361 l 1,49,50
 1018 359 1018 359 1020 305 c 128,-1,51
 1022 251 1022 251 1067 251 c 0,52,53
 1073 251 1073 251 1084 254 c 1,54,-1
 1104 255 l 1,55,56
 1120 297 1120 297 1120 318 c 0,57,58
 1120 389 1120 389 995 457 c 1,59,60
 953 490 953 490 901 524 c 128,-1,61
 849 558 849 558 771 626 c 128,-1,62
 693 694 693 694 693 806.5 c 128,-1,63
 693 919 693 919 799 1014 c 1,64,-1
 798 1014 l 1,65,-1
 830 1037 l 1,66,67
 939 1117 939 1117 939 1178 c 0,39,40
727 15 m 1,68,-1
 713 0 l 1,69,-1
 696 12 l 1,70,-1
 713 32 l 1,71,-1
 722 31 l 2,72,73
 723 31 723 31 723 30 c 1,74,-1
 720 30 l 1,75,-1
 727 15 l 1,68,-1
77 -22 m 1,76,77
 77 -19 77 -19 76 -19 c 2,78,-1
 72 -19 l 1,79,80
 74 -18 74 -18 78 -18 c 1,81,-1
 78 -20 l 2,82,83
 78 -21 78 -21 77.5 -21 c 128,-1,84
 77 -21 77 -21 77 -22 c 1,76,77
EndSplineSet
EndChar

StartChar: ae
Encoding: 230 230 167
Width: 2100
GlyphClass: 2
Flags: W
LayerCount: 2
Fore
SplineSet
957 1397 m 1,0,-1
 1350 1396 l 1,1,-1
 1403 1396 l 1,2,-1
 1428 1397 l 1,3,-1
 1624 1397 l 1,4,5
 1643 1393 1643 1393 1660 1329.5 c 128,-1,6
 1677 1266 1677 1266 1682 1250 c 2,7,-1
 1747 1037 l 1,8,9
 1739 1030 1739 1030 1731 1030 c 128,-1,10
 1723 1030 1723 1030 1720 1031 c 1,11,-1
 1706 1031 l 1,12,-1
 1693 1032 l 1,13,-1
 1480 1034 l 1,14,-1
 1438 1033 l 1,15,16
 1360 1033 1360 1033 1323 1038 c 1,17,-1
 1246 1042 l 1,18,-1
 1257 972 l 1,19,-1
 1279 884 l 1,20,-1
 1297 883 l 1,21,-1
 1343 883 l 1,22,-1
 1716 889 l 2,23,24
 1753 889 1753 889 1757.5 862 c 128,-1,25
 1762 835 1762 835 1768 824 c 1,26,-1
 1779 785 l 1,27,28
 1787 774 1787 774 1787 766.5 c 128,-1,29
 1787 759 1787 759 1792 749 c 1,30,-1
 1807 698 l 1,31,32
 1812 677 1812 677 1826 637.5 c 128,-1,33
 1840 598 1840 598 1849 571 c 1,34,-1
 1580 563 l 1,35,-1
 1470 563 l 2,36,37
 1438 563 1438 563 1387 566 c 1,38,-1
 1396 530 l 1,39,40
 1396 523 1396 523 1401 514 c 1,41,-1
 1432 407 l 1,42,-1
 1450 406 l 1,43,-1
 1465 406 l 1,44,-1
 1900 416 l 2,45,46
 1926 416 1926 416 1964 400 c 1,47,-1
 1986 329 l 1,48,-1
 1997 301 l 1,49,-1
 1996 302 l 1,50,-1
 2050 122 l 2,51,52
 2052 112 2052 112 2056 108 c 128,-1,53
 2060 104 2060 104 2060 93 c 1,54,-1
 2067 69 l 2,55,56
 2072 54 2072 54 2072 49 c 256,57,58
 2072 44 2072 44 2063 44 c 2,59,-1
 2049 44 l 1,60,-1
 1980 47 l 1,61,-1
 1930 47 l 1,62,-1
 1918 48 l 1,63,-1
 1826 48 l 1,64,-1
 1818 49 l 1,65,-1
 1767 49 l 1,66,-1
 1491 47 l 1,67,-1
 1394 47 l 1,68,69
 1373 46 1373 46 1340 46 c 2,70,-1
 1280 46 l 2,71,72
 1254 46 1254 46 1238 47 c 1,73,-1
 1150 43 l 1,74,-1
 1150 47 l 1,75,-1
 1088 47 l 1,76,-1
 1034 45 l 1,77,78
 971 45 971 45 968 64 c 1,79,-1
 927 217 l 1,80,81
 921 247 921 247 914.5 252.5 c 128,-1,82
 908 258 908 258 874 258 c 2,83,-1
 540 258 l 1,84,85
 522 199 522 199 515 170 c 2,86,-1
 489 59 l 1,87,88
 479 42 479 42 396 42 c 1,89,-1
 384 43 l 1,90,-1
 313 43 l 1,91,92
 264 40 264 40 188 40 c 2,93,-1
 -21 40 l 1,94,-1
 -29 39 l 1,95,-1
 -45 55 l 1,96,97
 -45 57 -45 57 -47 59 c 1,98,-1
 -24 129 l 2,99,100
 -18 149 -18 149 -13.5 168.5 c 128,-1,101
 -9 188 -9 188 3 208 c 1,102,-1
 2 208 l 1,103,104
 26 274 26 274 66 394 c 1,105,-1
 90 473 l 1,106,-1
 89 473 l 1,107,108
 144 641 144 641 196.5 795 c 128,-1,109
 249 949 249 949 290 1074 c 1,110,-1
 311 1135 l 1,111,112
 338 1205 338 1205 396 1386 c 1,113,-1
 395 1386 l 1,114,-1
 403 1401 l 1,115,116
 430 1400 430 1400 456 1400 c 2,117,-1
 658 1400 l 1,118,119
 665 1399 665 1399 674 1399 c 2,120,-1
 793 1399 l 1,121,-1
 827 1398 l 1,122,-1
 862 1398 l 1,123,-1
 941 1397 l 1,124,-1
 957 1397 l 1,0,-1
821 562 m 2,125,126
 882 562 882 562 882 607 c 0,127,128
 882 625 882 625 877 644.5 c 128,-1,129
 872 664 872 664 867 684 c 1,130,-1
 867 681 l 1,131,-1
 859 711 l 2,132,133
 857 718 857 718 855 724.5 c 128,-1,134
 853 731 853 731 853 736 c 1,135,-1
 825 862 l 1,136,137
 819 884 819 884 815 911 c 1,138,-1
 800 989 l 1,139,140
 797 994 797 994 796 999.5 c 128,-1,141
 795 1005 795 1005 793 1010 c 1,142,-1
 793 1007 l 1,143,-1
 775 1087 l 2,144,145
 767 1119 767 1119 738 1132 c 1,146,147
 698 1118 698 1118 666 972 c 1,148,-1
 657 923 l 1,149,150
 653 915 653 915 651 905 c 2,151,-1
 645 882 l 1,152,153
 629 804 629 804 594 658 c 1,154,-1
 585 606 l 1,155,-1
 590 564 l 1,156,-1
 602 564 l 1,157,-1
 650 566 l 1,158,-1
 811 561 l 1,159,-1
 816 562 l 1,160,-1
 821 562 l 2,125,126
-46 55 m 1,161,162
 -44 55 -44 55 -42.5 44 c 128,-1,163
 -41 33 -41 33 -45 32 c 1,164,-1
 -56 5 l 1,165,166
 -64 13 -64 13 -64 27 c 128,-1,167
 -64 41 -64 41 -59 53 c 1,168,-1
 -57 53 l 1,169,-1
 -59 53 l 1,170,171
 -56 59 -56 59 -50 65 c 1,172,-1
 -47 59 l 1,173,-1
 -48 56 l 2,174,175
 -48 53 -48 53 -57 53 c 2,176,-1
 -46 53 l 1,177,-1
 -46 55 l 1,161,162
1151 33 m 1,178,-1
 1141 59 l 1,179,-1
 1150 43 l 1,180,-1
 1151 33 l 1,178,-1
1754 1033 m 1,181,182
 1751 1033 1751 1033 1747 1037 c 1,183,184
 1749 1038 1749 1038 1751.5 1038 c 128,-1,185
 1754 1038 1754 1038 1754 1033 c 1,181,182
1856 570 m 1,186,187
 1852 569 1852 569 1852 567 c 2,188,-1
 1852 565 l 1,189,-1
 1850 570 l 1,190,-1
 1849 571 l 1,191,-1
 1850 570 l 1,192,-1
 1856 570 l 1,186,187
400 1401 m 1,193,-1
 407 1404 l 1,194,-1
 400 1401 l 1,193,-1
EndSplineSet
EndChar

StartChar: eth
Encoding: 240 240 177
Width: 1453
GlyphClass: 2
Flags: W
LayerCount: 2
Fore
SplineSet
111 1384 m 1,0,-1
 458 1402 l 1,1,-1
 592 1402 l 2,2,3
 1119 1402 1119 1402 1274 1201 c 128,-1,4
 1429 1000 1429 1000 1429 700 c 128,-1,5
 1429 400 1429 400 1237 226.5 c 128,-1,6
 1045 53 1045 53 805 43 c 1,7,-1
 799 46 l 1,8,-1
 755 44 l 1,9,10
 737 42 737 42 692 42 c 128,-1,11
 647 42 647 42 605 45 c 1,12,-1
 494 45 l 1,13,-1
 470 46 l 1,14,-1
 121 40 l 1,15,16
 105 72 105 72 105 106 c 2,17,-1
 105 243 l 1,18,19
 107 306 107 306 107 367 c 2,20,-1
 107 559 l 1,21,-1
 108 643 l 1,22,23
 85 642 85 642 54 642 c 2,24,-1
 -2 642 l 1,25,26
 -13 646 -13 646 -26 657 c 1,27,-1
 -25 670 l 1,28,-1
 -25 686 l 1,29,-1
 -23 770 l 1,30,-1
 -23 781 l 1,31,-1
 -25 822 l 1,32,33
 -25 869 -25 869 -10 869 c 2,34,-1
 109 869 l 1,35,36
 106 896 106 896 106 916 c 1,37,-1
 103 965 l 1,38,-1
 103 1128 l 1,39,40
 95 1261 95 1261 95 1331 c 2,41,-1
 95 1377 l 1,42,-1
 90 1381 l 1,43,44
 91 1384 91 1384 100 1384 c 2,45,-1
 111 1384 l 1,0,-1
595 493 m 2,46,47
 595 347 595 347 626 328 c 1,48,-1
 662 328 l 2,49,50
 899 328 899 328 915 656 c 0,51,52
 917 698 917 698 918 731 c 1,53,-1
 918 812 l 1,54,55
 916 828 916 828 912 890 c 0,56,57
 896 1131 896 1131 643 1130 c 1,58,-1
 616 1130 l 1,59,-1
 605 1093 l 1,60,-1
 605 1095 l 1,61,-1
 591 1072 l 1,62,-1
 591 1052 l 2,63,64
 591 1041 591 1041 592 1035 c 1,65,-1
 592 1024 l 1,66,-1
 593 1012 l 1,67,-1
 593 952 l 1,68,-1
 591 901 l 1,69,-1
 591 870 l 1,70,-1
 640 870 l 1,71,-1
 658 869 l 1,72,-1
 714 869 l 2,73,74
 727 869 727 869 727 766 c 1,75,-1
 726 737 l 1,76,-1
 726 684 l 2,77,78
 726 656 726 656 714 656 c 2,79,-1
 654 656 l 2,80,81
 620 656 620 656 595 655 c 1,82,-1
 595 600 l 1,83,-1
 596 585 l 1,84,-1
 596 542 l 1,85,-1
 595 515 l 1,86,-1
 595 493 l 2,46,47
EndSplineSet
EndChar

StartChar: divide
Encoding: 247 247 184
Width: 1282
GlyphClass: 2
Flags: W
LayerCount: 2
Fore
SplineSet
892 664 m 1,0,-1
 1199 665 l 1,1,-1
 1190 462 l 1,2,-1
 1190 416 l 1,3,-1
 1191 405 l 1,4,5
 1186 398 1186 398 1161 398 c 1,6,-1
 1161 399 l 1,7,8
 927 393 927 393 839 393 c 2,9,-1
 814 393 l 2,10,11
 750 393 750 393 649 385 c 1,12,-1
 395 376 l 2,13,14
 326 374 326 374 259 371 c 128,-1,15
 192 368 192 368 120 367 c 1,16,17
 104 389 104 389 104 515.5 c 128,-1,18
 104 642 104 642 140 675 c 1,19,-1
 199 675 l 1,20,-1
 892 664 l 1,0,-1
670 -24 m 0,21,22
 511 -24 511 -24 511 114 c 0,23,24
 511 179 511 179 552.5 224 c 128,-1,25
 594 269 594 269 674 269 c 0,26,27
 807 269 807 269 807 126 c 0,28,29
 807 41 807 41 755.5 8.5 c 128,-1,30
 704 -24 704 -24 670 -24 c 0,21,22
517 938 m 0,31,32
 517 1082 517 1082 665 1082 c 128,-1,33
 813 1082 813 1082 813 938 c 0,34,35
 813 900 813 900 775 847.5 c 128,-1,36
 737 795 737 795 668 795 c 0,37,38
 517 795 517 795 517 938 c 0,31,32
EndSplineSet
EndChar

StartChar: oslash
Encoding: 248 248 185
Width: 1455
GlyphClass: 2
Flags: W
LayerCount: 2
Fore
SplineSet
1247 1612 m 1,0,-1
 1120 1349 l 1,1,2
 1137 1337 1137 1337 1181.5 1306.5 c 128,-1,3
 1226 1276 1226 1276 1257 1236 c 1,4,-1
 1278 1207 l 1,5,6
 1424 1023 1424 1023 1424 729.5 c 128,-1,7
 1424 436 1424 436 1290 267 c 2,8,-1
 1248 214 l 1,9,10
 1160 111 1160 111 938.5 42.5 c 128,-1,11
 717 -26 717 -26 441 57 c 1,12,13
 326 -160 326 -160 301 -160 c 1,14,-1
 273 -153 l 1,15,-1
 260 -153 l 1,16,-1
 228 -142 l 1,17,-1
 247 -62 l 2,18,19
 247 -60 247 -60 256.5 -43 c 128,-1,20
 266 -26 266 -26 273 -12 c 2,21,-1
 334 104 l 1,22,-1
 306 123 l 2,23,24
 213 186 213 186 139 288 c 1,25,-1
 139 287 l 1,26,27
 48 431 48 431 27 671 c 1,28,-1
 24 732 l 1,29,-1
 28 754 l 1,30,31
 62 1073 62 1073 202 1238 c 1,32,-1
 226 1264 l 2,33,34
 278 1319 278 1319 372 1360 c 2,35,-1
 412 1377 l 2,36,37
 523 1425 523 1425 593.5 1429 c 128,-1,38
 664 1433 664 1433 681 1434 c 1,39,-1
 685 1434 l 2,40,41
 891 1434 891 1434 1024 1389 c 1,42,-1
 1163 1646 l 1,43,44
 1171 1644 1171 1644 1183 1639 c 128,-1,45
 1195 1634 1195 1634 1198 1633 c 2,46,-1
 1230 1618 l 1,47,48
 1230 1612 1230 1612 1247 1612 c 1,0,-1
531 925 m 1,49,50
 512 872 512 872 512 774 c 2,51,-1
 512 724 l 2,52,53
 512 613 512 613 535 480 c 1,54,-1
 843 1054 l 1,55,56
 790 1098 790 1098 715 1098 c 0,57,58
 579 1098 579 1098 530 925 c 1,59,-1
 531 925 l 1,49,50
730 339 m 0,60,61
 936 339 936 339 937 723 c 1,62,-1
 937 761 l 2,63,64
 937 840 937 840 914 963 c 1,65,-1
 605 367 l 1,66,67
 668 339 668 339 730 339 c 0,60,61
1239 1616 m 2,68,-1
 1241 1615 l 2,69,70
 1240 1615 1240 1615 1239 1616 c 2,68,-1
EndSplineSet
EndChar

StartChar: thorn
Encoding: 254 254 191
Width: 1366
GlyphClass: 2
Flags: W
LayerCount: 2
Fore
SplineSet
1197 1311 m 1,0,1
 1371 1187 1371 1187 1371 960 c 128,-1,2
 1371 733 1371 733 1174 573 c 1,3,4
 1051 511 1051 511 874 499 c 1,5,-1
 839 497 l 1,6,7
 803 490 803 490 696 490 c 2,8,-1
 682 490 l 2,9,10
 670 490 670 490 645 487 c 1,11,-1
 645 379 l 2,12,13
 645 203 645 203 654 57 c 1,14,15
 646 42 646 42 591 42 c 2,16,-1
 116 42 l 1,17,18
 107 67 107 67 103 87 c 1,19,-1
 103 424 l 2,20,21
 103 437 103 437 105 451 c 1,22,-1
 105 714 l 1,23,-1
 108 1375 l 1,24,-1
 108 1640 l 1,25,-1
 101 1745 l 1,26,27
 108 1759 108 1759 162 1759 c 2,28,-1
 627 1759 l 1,29,30
 630 1754 630 1754 630 1725 c 2,31,-1
 630 1400 l 1,32,-1
 884 1390 l 1,33,-1
 900 1390 l 1,34,-1
 907 1391 l 1,35,-1
 929 1391 l 2,36,37
 1076 1391 1076 1391 1198 1311 c 1,38,-1
 1197 1311 l 1,0,1
664 763 m 0,39,40
 892 763 892 763 892 954 c 0,41,42
 892 1101 892 1101 736 1115 c 0,43,44
 691 1119 691 1119 644 1119 c 2,45,-1
 628 1119 l 1,46,47
 620 1111 620 1111 606 1083 c 1,48,-1
 606 1012 l 1,49,-1
 602 975 l 2,50,51
 593 891 593 891 593 855.5 c 128,-1,52
 593 820 593 820 614 774 c 1,53,-1
 613 774 l 1,54,55
 613 768 613 768 616.5 763 c 128,-1,56
 620 758 620 758 620 756 c 1,57,-1
 630 766 l 1,58,59
 638 763 638 763 664 763 c 0,39,40
EndSplineSet
EndChar

StartChar: dotlessi
Encoding: 305 305 193
Width: 669
GlyphClass: 2
Flags: W
LayerCount: 2
Fore
SplineSet
614 154 m 1,0,1
 614 -25 614 -25 587 -25 c 2,2,-1
 293 -25 l 1,3,4
 252 -34 252 -34 82 -29 c 1,5,-1
 63 -13 l 1,6,-1
 63 0 l 1,7,-1
 62 21 l 1,8,-1
 62 66 l 2,9,10
 62 231 62 231 66 393 c 1,11,-1
 69 607 l 1,12,-1
 77 1018 l 1,13,-1
 77 1046 l 1,14,-1
 207 1047 l 1,15,-1
 226 1046 l 1,16,-1
 294 1046 l 1,17,-1
 319 1047 l 1,18,-1
 584 1043 l 1,19,-1
 589 1044 l 2,20,21
 591 1044 591 1044 591 1039 c 2,22,-1
 592 976 l 1,23,-1
 591 938 l 1,24,-1
 591 862 l 2,25,26
 591 694 591 694 601 592 c 2,27,-1
 605 550 l 2,28,29
 611 490 611 490 613 375 c 1,30,-1
 613 348 l 1,31,-1
 612 344 l 1,32,-1
 612 313 l 1,33,-1
 613 304 l 1,34,-1
 614 154 l 1,0,1
EndSplineSet
EndChar

StartChar: Lslash
Encoding: 321 321 194
Width: 1264
GlyphClass: 2
Flags: W
LayerCount: 2
Fore
SplineSet
934 1159 m 1,0,1
 1021 978 1021 978 1021 953 c 128,-1,2
 1021 928 1021 928 1010 923 c 2,3,-1
 716 817 l 1,4,-1
 707 791 l 1,5,-1
 707 413 l 1,6,-1
 749 390 l 1,7,8
 929 401 929 401 1098.5 401 c 128,-1,9
 1268 401 1268 401 1269 392 c 128,-1,10
 1270 383 1270 383 1270 381 c 2,11,-1
 1270 380 l 1,12,13
 1264 364 1264 364 1264 324 c 2,14,-1
 1264 301 l 2,15,16
 1264 249 1264 249 1271 225 c 1,17,-1
 1271 108 l 2,18,19
 1271 53 1271 53 1270 -8 c 1,20,21
 1266 -29 1266 -29 937.5 -31 c 128,-1,22
 609 -33 609 -33 532 -33.5 c 128,-1,23
 455 -34 455 -34 390 -34 c 2,24,-1
 283 -34 l 2,25,26
 210 -34 210 -34 134 -32 c 1,27,28
 117 -1 117 -1 117 33 c 128,-1,29
 117 67 117 67 120 132 c 1,30,-1
 120 591 l 1,31,-1
 99 589 l 2,32,33
 94 588 94 588 83 583.5 c 128,-1,34
 72 579 72 579 67 577 c 2,35,-1
 29 562 l 1,36,37
 13 566 13 566 0 573 c 1,38,-1
 -24 650 l 1,39,-1
 -39 683 l 1,40,41
 -68 767 -68 767 -68 785.5 c 128,-1,42
 -68 804 -68 804 -61.5 808.5 c 128,-1,43
 -55 813 -55 813 -45 817 c 128,-1,44
 -35 821 -35 821 -25 824 c 128,-1,45
 -15 827 -15 827 -7 830 c 2,46,-1
 19 839 l 1,47,-1
 18 838 l 1,48,-1
 121 872 l 1,49,-1
 121 1070 l 1,50,-1
 122 1118 l 2,51,52
 122 1150 122 1150 120 1198 c 1,53,-1
 120 1209 l 1,54,-1
 115 1353 l 1,55,56
 115 1472 115 1472 138 1518 c 1,57,58
 152 1517 152 1517 163 1517 c 2,59,-1
 239 1517 l 1,60,-1
 407 1519 l 1,61,62
 694 1519 694 1519 725 1482 c 1,63,-1
 716 1134 l 1,64,-1
 716 1086 l 1,65,-1
 838 1131 l 1,66,-1
 837 1130 l 1,67,68
 895 1159 895 1159 934 1159 c 1,0,1
1270 380 m 1,69,70
 1280 397 1280 397 1290 397 c 1,71,-1
 1297 380 l 1,72,-1
 1287 372 l 1,73,-1
 1286 372 l 1,74,-1
 1270 380 l 1,69,70
EndSplineSet
EndChar

StartChar: lslash
Encoding: 322 322 195
Width: 1128
GlyphClass: 2
Flags: W
LayerCount: 2
Fore
SplineSet
410 1397 m 1,0,-1
 649 1394 l 1,1,-1
 654 1394 l 1,2,3
 661 1387 661 1387 671 1369 c 1,4,-1
 671 1358 l 2,5,6
 671 1318 671 1318 668 1293 c 1,7,-1
 668 1249 l 1,8,9
 665 1231 665 1231 665.5 1209 c 128,-1,10
 666 1187 666 1187 664 1165 c 1,11,-1
 662 1061 l 1,12,-1
 797 1121 l 2,13,14
 817 1129 817 1129 837.5 1138 c 128,-1,15
 858 1147 858 1147 870 1147 c 1,16,-1
 949 978 l 1,17,-1
 950 973 l 1,18,19
 948 973 948 973 938 969 c 2,20,-1
 649 837 l 1,21,-1
 649 774 l 1,22,23
 646 723 646 723 646 638 c 2,24,-1
 646 577 l 2,25,26
 646 515 646 515 640 425 c 1,27,-1
 793 425 l 1,28,-1
 813 424 l 1,29,-1
 1030 424 l 1,30,-1
 1106 426 l 2,31,32
 1136 426 1136 426 1136 410 c 2,33,-1
 1136 171 l 1,34,-1
 1137 63 l 1,35,36
 1129 46 1129 46 1057 46 c 2,37,-1
 985 46 l 1,38,-1
 713 42 l 1,39,-1
 420 42 l 1,40,41
 388 40 388 40 353 40 c 2,42,-1
 345 40 l 1,43,44
 327 38 327 38 306 38 c 2,45,-1
 206 38 l 1,46,-1
 178 39 l 1,47,-1
 108 40 l 2,48,49
 104 40 104 40 97 56 c 1,50,-1
 97 296 l 2,51,52
 97 347 97 347 99 385 c 2,53,-1
 102 487 l 1,54,-1
 101 500 l 1,55,56
 101 528 101 528 113 593 c 1,57,-1
 -22 531 l 1,58,-1
 -43 534 l 2,59,60
 -48 534 -48 534 -54 536 c 1,61,-1
 -66 565 l 1,62,-1
 -65 564 l 1,63,64
 -68 573 -68 573 -70.5 579 c 128,-1,65
 -73 585 -73 585 -76 594 c 1,66,-1
 -89 618 l 1,67,68
 -118 683 -118 683 -118 699 c 128,-1,69
 -118 715 -118 715 -115 717 c 2,70,-1
 109 816 l 1,71,72
 110 872 110 872 110 932 c 2,73,-1
 110 1049 l 1,74,-1
 103 1245 l 1,75,76
 103 1372 103 1372 128 1402 c 1,77,78
 330 1397 330 1397 410 1397 c 1,0,-1
EndSplineSet
EndChar

StartChar: OE
Encoding: 338 338 196
Width: 1992
GlyphClass: 2
Flags: W
LayerCount: 2
Fore
SplineSet
435 1444 m 1,0,1
 627 1511 627 1511 800 1511 c 128,-1,2
 973 1511 973 1511 1133 1494 c 1,3,-1
 1965 1512 l 1,4,5
 1982 1509 1982 1509 1985 1112 c 1,6,-1
 1957 1085 l 1,7,8
 1848 1088 1848 1088 1738 1088 c 128,-1,9
 1628 1088 1628 1088 1513 1090 c 1,10,-1
 1510 947 l 1,11,12
 1740 952 1740 952 1825 952 c 128,-1,13
 1910 952 1910 952 1919 943 c 128,-1,14
 1928 934 1928 934 1928 897 c 2,15,-1
 1926 629 l 1,16,-1
 1926 547 l 1,17,18
 1923 539 1923 539 1917 536 c 1,19,-1
 1869 536 l 2,20,21
 1690 536 1690 536 1506 540 c 1,22,-1
 1506 376 l 1,23,24
 1532 377 1532 377 1566 377 c 2,25,-1
 1626 377 l 1,26,-1
 1701 376 l 1,27,-1
 1891 376 l 2,28,29
 1959 376 1959 376 1971 378 c 1,30,-1
 1977 369 l 1,31,-1
 1973 -10 l 1,32,33
 1971 -10 1971 -10 1970 -9 c 1,34,-1
 1043 -19 l 2,35,36
 989 -20 989 -20 937 -21.5 c 128,-1,37
 885 -23 885 -23 735.5 -23 c 128,-1,38
 586 -23 586 -23 433 56 c 1,39,40
 246 127 246 127 143.5 311.5 c 128,-1,41
 41 496 41 496 41 692.5 c 128,-1,42
 41 889 41 889 76 1021 c 1,43,44
 178 1306 178 1306 335 1386 c 1,45,-1
 437 1444 l 1,46,-1
 435 1444 l 1,0,1
1971 -25 m 1,47,-1
 1973 -19 l 1,48,-1
 1973 -10 l 1,49,-1
 1982 -15 l 1,50,-1
 1971 -25 l 1,47,-1
592 662 m 0,51,52
 592 278 592 278 819 278 c 0,53,54
 880 278 880 278 961 312 c 1,55,-1
 981 351 l 1,56,57
 962 809 962 809 962 1133 c 1,58,59
 959 1160 959 1160 850 1187 c 1,60,-1
 842 1187 l 1,61,-1
 828 1189 l 1,62,-1
 816 1189 l 2,63,64
 588 1189 588 1189 588 736 c 1,65,66
 592 707 592 707 592 662 c 0,51,52
874 394 m 1,67,-1
 885 361 l 1,68,69
 874 350 874 350 853 350 c 1,70,-1
 845 383 l 1,71,-1
 874 394 l 1,67,-1
EndSplineSet
EndChar

StartChar: oe
Encoding: 339 339 197
Width: 1942
GlyphClass: 2
Flags: W
LayerCount: 2
Fore
SplineSet
1484.5 287 m 128,-1,1
 1509 288 1509 288 1714.5 288 c 128,-1,2
 1920 288 1920 288 1920 272 c 128,-1,3
 1920 256 1920 256 1913 240.5 c 128,-1,4
 1906 225 1906 225 1886 178 c 1,5,6
 1757 -54 1757 -54 1439.5 -54 c 128,-1,7
 1122 -54 1122 -54 996 75 c 1,8,9
 863 -44 863 -44 607 -44 c 128,-1,10
 351 -44 351 -44 193 99.5 c 128,-1,11
 35 243 35 243 35 484 c 128,-1,12
 35 725 35 725 145 870 c 1,13,14
 350 1090 350 1090 598 1090 c 0,15,16
 608 1090 608 1090 618 1090 c 2,17,-1
 691 1092 l 1,18,19
 852 1092 852 1092 1015 988 c 1,20,21
 1169 1106 1169 1106 1405 1106 c 0,22,23
 1959 1106 1959 1106 1959 479 c 0,24,25
 1959 437 1959 437 1937 408 c 1,26,-1
 1923 408 l 1,27,-1
 1666 410 l 1,28,-1
 1396 410 l 2,29,30
 1284 410 1284 410 1224 411 c 1,31,-1
 1224 374 l 2,32,33
 1224 224 1224 224 1356 224 c 0,34,35
 1409 224 1409 224 1434.5 255 c 128,-1,0
 1460 286 1460 286 1484.5 287 c 128,-1,1
664 843 m 0,36,37
 484 843 484 843 484 520.5 c 128,-1,38
 484 198 484 198 648 198 c 0,39,40
 833 198 833 198 833 459.5 c 128,-1,41
 833 721 833 721 786.5 782 c 128,-1,42
 740 843 740 843 664 843 c 0,36,37
1446 611 m 1,43,44
 1558 611 1558 611 1558 670 c 2,45,-1
 1558 703 l 2,46,47
 1558 759 1558 759 1506 814 c 256,48,49
 1454 869 1454 869 1380 869 c 0,50,51
 1222 869 1222 869 1213 661 c 1,52,53
 1213 616 1213 616 1263 616 c 2,54,-1
 1279 616 l 1,55,-1
 1288 617 l 1,56,-1
 1446 611 l 1,43,44
EndSplineSet
EndChar

StartChar: Scaron
Encoding: 352 352 198
Width: 1486
GlyphClass: 2
Flags: W
LayerCount: 2
Fore
SplineSet
1472 478 m 0,0,1
 1472 -58 1472 -58 696 -58 c 0,2,3
 247 -58 247 -58 136 163 c 1,4,5
 75 246 75 246 68 296 c 128,-1,6
 61 346 61 346 54 414 c 1,7,8
 59 413 59 413 64 413 c 2,9,-1
 75 413 l 1,10,-1
 591 422 l 2,11,12
 610 422 610 422 628 380 c 0,13,14
 670 286 670 286 766 286 c 0,15,16
 913 286 913 286 913 415 c 1,17,18
 912 500 912 500 748 536 c 0,19,20
 704 546 704 546 666 557 c 1,21,-1
 610 570 l 2,22,23
 607 570 607 570 603 572 c 1,24,25
 314 634 314 634 190 739 c 128,-1,26
 66 844 66 844 66 1028 c 128,-1,27
 66 1212 66 1212 219 1385 c 128,-1,28
 372 1558 372 1558 720.5 1558 c 128,-1,29
 1069 1558 1069 1558 1236 1457 c 1,30,-1
 1237 1455 l 1,31,32
 1411 1336 1411 1336 1431 1121 c 1,33,-1
 1408 1097 l 1,34,-1
 1316 1092 l 1,35,36
 1206 1085 1206 1085 1051.5 1085 c 128,-1,37
 897 1085 897 1085 887 1096 c 0,38,39
 873 1110 873 1110 858 1149.5 c 128,-1,40
 843 1189 843 1189 789.5 1189 c 128,-1,41
 736 1189 736 1189 698 1174.5 c 128,-1,42
 660 1160 660 1160 638 1142 c 128,-1,43
 616 1124 616 1124 616 1100 c 0,44,45
 616 1007 616 1007 882 973 c 1,46,47
 1244 890 1244 890 1358 762 c 128,-1,48
 1472 634 1472 634 1472 478 c 0,0,1
524 2239 m 2,49,50
 660 2239 660 2239 695 2168 c 1,51,-1
 695 2169 l 1,52,53
 702 2155 702 2155 714.5 2136 c 128,-1,54
 727 2117 727 2117 742 2094 c 1,55,-1
 768 2093 l 1,56,57
 807 2145 807 2145 825 2180 c 1,58,-1
 855 2232 l 1,59,-1
 943 2231 l 1,60,-1
 1218 2231 l 1,61,-1
 1222 2225 l 1,62,63
 1216 2195 1216 2195 1176 2143 c 128,-1,64
 1136 2091 1136 2091 1114 2051 c 0,65,66
 1018 1880 1018 1880 944 1869 c 0,67,68
 910 1863 910 1863 815.5 1863 c 128,-1,69
 721 1863 721 1863 529 1858 c 1,70,71
 492 1881 492 1881 432 1984 c 1,72,-1
 416 2009 l 1,73,-1
 418 2009 l 1,74,75
 401 2032 401 2032 384 2060 c 2,76,-1
 346 2121 l 2,77,78
 344 2123 344 2123 336 2135 c 2,79,-1
 318 2161 l 2,80,81
 281 2214 281 2214 281 2227 c 128,-1,82
 281 2240 281 2240 329 2240 c 1,83,-1
 362 2239 l 1,84,-1
 524 2239 l 2,49,50
1240 1455 m 1,85,86
 1238 1455 1238 1455 1236 1457 c 1,87,-1
 1235 1463 l 1,88,-1
 1240 1455 l 1,85,86
826 2185 m 2,89,90
 826 2183 826 2183 825 2182 c 2,91,-1
 826 2185 l 2,89,90
EndSplineSet
EndChar

StartChar: scaron
Encoding: 353 353 199
Width: 1314
GlyphClass: 2
Flags: W
LayerCount: 2
Fore
SplineSet
82 451 m 1,0,-1
 170 452 l 1,1,-1
 247 453 l 1,2,-1
 472 455 l 1,3,-1
 518 455 l 1,4,5
 538 452 538 452 565 391.5 c 128,-1,6
 592 331 592 331 678 331 c 2,7,-1
 684 331 l 1,8,9
 799 330 799 330 803 430 c 0,10,11
 806 503 806 503 577 563 c 0,12,13
 546 571 546 571 520 579 c 1,14,-1
 459 595 l 1,15,16
 48 715 48 715 48 987 c 0,17,18
 48 1151 48 1151 164.5 1266 c 128,-1,19
 281 1381 281 1381 415 1412 c 128,-1,20
 549 1443 549 1443 712 1443 c 128,-1,21
 875 1443 875 1443 999 1391.5 c 128,-1,22
 1123 1340 1123 1340 1164 1288 c 1,23,-1
 1200 1248 l 2,24,25
 1259 1181 1259 1181 1271 1053 c 1,26,-1
 1247 1027 l 1,27,-1
 1248 1025 l 1,28,-1
 1088 1024 l 1,29,-1
 1066 1024 l 1,30,-1
 886 1027 l 1,31,-1
 880 1027 l 2,32,33
 836 1027 836 1027 815 1069 c 128,-1,34
 794 1111 794 1111 675 1111 c 128,-1,35
 556 1111 556 1111 556 1050 c 128,-1,36
 556 989 556 989 637 972 c 128,-1,37
 718 955 718 955 732 946 c 1,38,-1
 773 934 l 1,39,40
 995 880 995 880 1112 812 c 0,41,42
 1304 702 1304 702 1304 462.5 c 128,-1,43
 1304 223 1304 223 1117 126.5 c 128,-1,44
 930 30 930 30 646 11 c 1,45,46
 341 25 341 25 222 112 c 1,47,-1
 202 124 l 1,48,49
 60 236 60 236 36 450 c 0,50,51
 36 454 36 454 38 454 c 2,52,-1
 76 451 l 1,53,-1
 82 451 l 1,0,-1
1266 1025 m 1,54,-1
 1258 1013 l 1,55,-1
 1248 1025 l 1,56,-1
 1266 1025 l 1,54,-1
1257 1011 m 1,57,-1
 1259 1012 l 1,58,-1
 1257 1011 l 1,57,-1
727 1859 m 1,59,-1
 773 1932 l 1,60,-1
 828 1932 l 1,61,-1
 890 1931 l 1,62,-1
 1148 1931 l 2,63,64
 1151 1931 1151 1931 1151 1921 c 128,-1,65
 1151 1911 1151 1911 1093 1833 c 1,66,-1
 959 1635 l 1,67,68
 914 1559 914 1559 811 1559 c 1,69,-1
 638 1557 l 2,70,71
 621 1557 621 1557 564 1554 c 1,72,-1
 551 1555 l 1,73,-1
 433 1553 l 1,74,-1
 413 1570 l 1,75,76
 372 1630 372 1630 327.5 1695 c 128,-1,77
 283 1760 283 1760 242 1820 c 1,78,-1
 221 1849 l 2,79,80
 172 1916 172 1916 172 1925.5 c 128,-1,81
 172 1935 172 1935 183 1942 c 1,82,-1
 494 1933 l 1,83,-1
 506 1933 l 2,84,85
 572 1933 572 1933 610 1866 c 1,86,-1
 664 1767 l 1,87,88
 693 1806 693 1806 727 1860 c 1,89,-1
 727 1859 l 1,59,-1
772 1956 m 1,90,-1
 781 1942 l 1,91,-1
 772 1932 l 1,92,-1
 757 1932 l 1,93,-1
 753 1949 l 1,94,-1
 772 1956 l 1,90,-1
EndSplineSet
EndChar

StartChar: florin
Encoding: 402 402 203
Width: 1497
GlyphClass: 2
Flags: W
LayerCount: 2
Fore
SplineSet
1018 917 m 1,0,-1
 1210 889 l 1,1,-1
 1219 890 l 1,2,-1
 1235 890 l 2,3,4
 1242 890 1242 890 1243 889 c 1,5,-1
 1243 805 l 1,6,7
 1250 612 1250 612 1250 592 c 2,8,-1
 1250 562 l 2,9,10
 1250 545 1250 545 1142 544 c 128,-1,11
 1034 543 1034 543 960 535 c 1,12,-1
 912 271 l 2,13,14
 907 247 907 247 904 217 c 128,-1,15
 901 187 901 187 896 156 c 2,16,-1
 892 127 l 1,17,18
 852 -150 852 -150 797 -258 c 1,19,20
 684 -451 684 -451 391.5 -450.5 c 128,-1,21
 99 -450 99 -450 99 -390 c 0,22,23
 99 -376 99 -376 106 -358 c 1,24,-1
 120 -272 l 1,25,26
 143 -83 143 -83 154.5 -77 c 128,-1,27
 166 -71 166 -71 181 -86 c 1,28,-1
 187 -80 l 1,29,30
 222 -94 222 -94 258 -94 c 0,31,32
 336 -94 336 -94 358 25.5 c 128,-1,33
 380 145 380 145 402 297 c 2,34,-1
 408 340 l 2,35,36
 420 423 420 423 439 525 c 1,37,-1
 389 524 l 2,38,39
 377 524 377 524 357 529 c 1,40,-1
 333 529 l 1,41,-1
 310 530 l 1,42,-1
 270 530 l 2,43,44
 252 530 252 530 239 531 c 1,45,46
 213 557 213 557 213 722 c 128,-1,47
 213 887 213 887 243 905 c 1,48,49
 336 914 336 914 500 933 c 1,50,-1
 508 995 l 1,51,52
 558 1312 558 1312 674.5 1435.5 c 128,-1,53
 791 1559 791 1559 996 1561 c 1,54,55
 1003 1560 1003 1560 1027.5 1559.5 c 128,-1,56
 1052 1559 1052 1559 1172.5 1555.5 c 128,-1,57
 1293 1552 1293 1552 1306 1528.5 c 128,-1,58
 1319 1505 1319 1505 1317.5 1499 c 128,-1,59
 1316 1493 1316 1493 1315 1485 c 2,60,-1
 1268 1190 l 1,61,-1
 1257 1181 l 1,62,63
 1229 1181 1229 1181 1179 1196 c 1,64,-1
 1179 1207 l 1,65,-1
 1158 1208 l 1,66,-1
 1144 1208 l 2,67,68
 1079 1208 1079 1208 1056 1106 c 1,69,-1
 1058 1107 l 1,70,71
 1025 1005 1025 1005 1018 917 c 1,0,-1
189 -78 m 1,72,-1
 181 -76 l 1,73,-1
 180 -76 l 1,74,-1
 169 -64 l 1,75,-1
 178 -12 l 1,76,-1
 219 -37 l 1,77,-1
 189 -78 l 1,72,-1
1179 1188 m 1,78,-1
 1176 1171 l 1,79,-1
 1158 1171 l 1,80,-1
 1142 1199 l 1,81,-1
 1163 1199 l 1,82,-1
 1179 1198 l 1,83,-1
 1179 1188 l 1,78,-1
1088 1125 m 1,84,-1
 1082 1120 l 1,85,-1
 1067 1130 l 1,86,87
 1073 1142 1073 1142 1081 1142 c 1,88,-1
 1088 1125 l 1,84,-1
1270 1181 m 1,89,90
 1267 1181 1267 1181 1267 1184 c 128,-1,91
 1267 1187 1267 1187 1267.5 1187.5 c 128,-1,92
 1268 1188 1268 1188 1268 1190 c 1,93,-1
 1277 1178 l 1,94,-1
 1270 1181 l 1,89,90
EndSplineSet
EndChar

StartChar: uni0219
Encoding: 537 537 229
Width: 1181
GlyphClass: 2
Flags: W
LayerCount: 2
Fore
SplineSet
82 451 m 1,0,-1
 170 452 l 1,1,-1
 247 453 l 1,2,-1
 472 455 l 1,3,-1
 518 455 l 1,4,5
 538 452 538 452 565 391.5 c 128,-1,6
 592 331 592 331 678 331 c 2,7,-1
 684 331 l 1,8,9
 799 330 799 330 803 430 c 0,10,11
 806 503 806 503 577 563 c 0,12,13
 546 571 546 571 520 579 c 1,14,-1
 459 595 l 1,15,16
 48 715 48 715 48 987 c 0,17,18
 48 1151 48 1151 164.5 1266 c 128,-1,19
 281 1381 281 1381 415 1412 c 128,-1,20
 549 1443 549 1443 712 1443 c 128,-1,21
 875 1443 875 1443 999 1391.5 c 128,-1,22
 1123 1340 1123 1340 1164 1288 c 1,23,-1
 1200 1248 l 2,24,25
 1259 1181 1259 1181 1271 1053 c 1,26,-1
 1247 1027 l 1,27,-1
 1248 1025 l 1,28,-1
 1088 1024 l 1,29,-1
 1066 1024 l 1,30,-1
 886 1027 l 1,31,-1
 880 1027 l 2,32,33
 836 1027 836 1027 815 1069 c 128,-1,34
 794 1111 794 1111 675 1111 c 128,-1,35
 556 1111 556 1111 556 1050 c 128,-1,36
 556 989 556 989 637 972 c 128,-1,37
 718 955 718 955 732 946 c 1,38,-1
 773 934 l 1,39,40
 995 880 995 880 1112 812 c 0,41,42
 1304 702 1304 702 1304 462.5 c 128,-1,43
 1304 223 1304 223 1117 126.5 c 128,-1,44
 930 30 930 30 646 11 c 1,45,46
 341 25 341 25 222 112 c 1,47,-1
 202 124 l 1,48,49
 60 236 60 236 36 450 c 0,50,51
 36 454 36 454 38 454 c 2,52,-1
 76 451 l 1,53,-1
 82 451 l 1,0,-1
1266 1025 m 1,54,-1
 1258 1013 l 1,55,-1
 1248 1025 l 1,56,-1
 1266 1025 l 1,54,-1
1257 1011 m 1,57,-1
 1259 1012 l 1,58,-1
 1257 1011 l 1,57,-1
786 -260 m 1,59,60
 923 -260 923 -260 923 -272 c 2,61,-1
 923 -276 l 1,62,63
 903 -337 903 -337 883 -396.5 c 128,-1,64
 863 -456 863 -456 844 -518 c 2,65,-1
 827 -574 l 2,66,67
 813 -620 813 -620 797 -668 c 1,68,-1
 778 -731 l 1,69,70
 732 -879 732 -879 714 -915 c 1,71,72
 694 -932 694 -932 510 -932 c 1,73,-1
 468 -931 l 1,74,-1
 279 -931 l 1,75,-1
 260 -911 l 1,76,77
 388 -288 388 -288 410 -275.5 c 128,-1,78
 432 -263 432 -263 493 -263 c 2,79,-1
 660 -263 l 1,80,-1
 786 -260 l 1,59,60
EndSplineSet
EndChar

StartChar: circumflex
Encoding: 710 710 232
Width: 710
GlyphClass: 2
Flags: W
LayerCount: 2
Fore
SplineSet
368 1545 m 1,0,-1
 259 1410 l 1,1,-1
 -19 1410 l 1,2,-1
 -68 1407 l 1,3,4
 -125 1407 -125 1407 -125 1414 c 0,5,6
 -125 1435 -125 1435 57 1678 c 1,7,-1
 79 1713 l 1,8,9
 107 1763 107 1763 193.5 1768 c 128,-1,10
 280 1773 280 1773 420 1775 c 2,11,-1
 597 1778 l 1,12,13
 616 1770 616 1770 642.5 1730.5 c 128,-1,14
 669 1691 669 1691 680 1675 c 1,15,-1
 680 1676 l 1,16,-1
 742 1584 l 2,17,18
 753 1567 753 1567 765.5 1550.5 c 128,-1,19
 778 1534 778 1534 789 1519 c 2,20,-1
 809 1491 l 2,21,22
 825 1468 825 1468 841 1447 c 128,-1,23
 857 1426 857 1426 857 1415.5 c 128,-1,24
 857 1405 857 1405 843.5 1405 c 128,-1,25
 830 1405 830 1405 819 1406 c 1,26,-1
 757 1406 l 1,27,-1
 462 1399 l 1,28,29
 435 1413 435 1413 398 1485 c 2,30,-1
 368 1545 l 1,0,-1
EndSplineSet
EndChar

StartChar: caron
Encoding: 711 711 233
Width: 710
GlyphClass: 2
Flags: W
LayerCount: 2
Fore
SplineSet
427 1699 m 1,0,-1
 473 1772 l 1,1,-1
 528 1772 l 1,2,-1
 590 1771 l 1,3,-1
 848 1771 l 2,4,5
 851 1771 851 1771 851 1761 c 128,-1,6
 851 1751 851 1751 793 1673 c 1,7,-1
 659 1475 l 1,8,9
 614 1399 614 1399 511 1399 c 1,10,-1
 338 1397 l 2,11,12
 321 1397 321 1397 264 1394 c 1,13,-1
 251 1395 l 1,14,-1
 133 1393 l 1,15,-1
 113 1410 l 1,16,17
 72 1470 72 1470 27.5 1535 c 128,-1,18
 -17 1600 -17 1600 -58 1660 c 1,19,-1
 -79 1689 l 2,20,21
 -128 1756 -128 1756 -128 1765.5 c 128,-1,22
 -128 1775 -128 1775 -117 1782 c 1,23,-1
 194 1773 l 1,24,-1
 206 1773 l 2,25,26
 272 1773 272 1773 310 1706 c 1,27,-1
 364 1607 l 1,28,29
 393 1646 393 1646 427 1700 c 1,30,-1
 427 1699 l 1,0,-1
472 1796 m 1,31,-1
 481 1782 l 1,32,-1
 472 1772 l 1,33,-1
 457 1772 l 1,34,-1
 453 1789 l 1,35,-1
 472 1796 l 1,31,-1
EndSplineSet
EndChar

StartChar: breve
Encoding: 728 728 234
Width: 683
GlyphClass: 2
Flags: W
LayerCount: 2
Fore
SplineSet
753 1783 m 1,0,-1
 761 1784 l 1,1,2
 799 1784 799 1784 802 1754 c 1,3,4
 758 1567 758 1567 691 1508 c 0,5,6
 531 1368 531 1368 304 1368 c 0,7,8
 -28 1368 -28 1368 -112 1756 c 1,9,-1
 -77 1804 l 1,10,11
 -66 1800 -66 1800 -56 1800 c 2,12,-1
 -44 1800 l 1,13,-1
 -31 1802 l 1,14,-1
 60 1798 l 2,15,16
 75 1797 75 1797 92.5 1796.5 c 128,-1,17
 110 1796 110 1796 127 1795 c 1,18,-1
 132 1795 l 1,19,20
 182 1793 182 1793 208 1792 c 128,-1,21
 234 1791 234 1791 250 1785 c 128,-1,22
 266 1779 266 1779 282.5 1722.5 c 128,-1,23
 299 1666 299 1666 352 1666 c 128,-1,24
 405 1666 405 1666 416.5 1694 c 128,-1,25
 428 1722 428 1722 432 1734 c 1,26,-1
 431 1734 l 1,27,28
 444 1774 444 1774 465 1789 c 1,29,30
 504 1787 504 1787 542.5 1786.5 c 128,-1,31
 581 1786 581 1786 620 1785 c 2,32,-1
 753 1783 l 1,0,-1
-77 1800 m 1,33,-1
 -75 1798 l 1,34,-1
 -75 1801 l 1,35,-1
 -77 1801 l 1,36,-1
 -77 1800 l 1,33,-1
EndSplineSet
EndChar

StartChar: dotaccent
Encoding: 729 729 235
Width: 655
GlyphClass: 2
Flags: W
LayerCount: 2
Fore
SplineSet
169 1135 m 1,0,1
 145 1159 145 1159 145 1174.5 c 128,-1,2
 145 1190 145 1190 146.5 1205 c 128,-1,3
 148 1220 148 1220 149 1237 c 2,4,-1
 152 1288 l 2,5,6
 154 1312 154 1312 155 1408.5 c 128,-1,7
 156 1505 156 1505 167 1512 c 1,8,-1
 240 1512 l 2,9,10
 309 1512 309 1512 377.5 1509.5 c 128,-1,11
 446 1507 446 1507 512 1505 c 1,12,13
 516 1502 516 1502 516 1480 c 1,14,-1
 515 1471 l 1,15,-1
 518 1350 l 2,16,17
 519 1326 519 1326 519 1296.5 c 128,-1,18
 519 1267 519 1267 520 1251 c 1,19,-1
 520 1185 l 2,20,21
 520 1170 520 1170 519 1153 c 1,22,23
 516 1140 516 1140 431 1140 c 2,24,-1
 392 1140 l 1,25,-1
 380 1141 l 1,26,-1
 169 1135 l 1,0,1
EndSplineSet
EndChar

StartChar: ring
Encoding: 730 730 236
Width: 598
GlyphClass: 2
Flags: W
LayerCount: 2
Fore
SplineSet
502.5 1896 m 128,-1,1
 591 1815 591 1815 591 1695 c 128,-1,2
 591 1575 591 1575 505.5 1493 c 128,-1,3
 420 1411 420 1411 302.5 1411 c 128,-1,4
 185 1411 185 1411 107.5 1494 c 128,-1,5
 30 1577 30 1577 12 1689 c 0,6,7
 12 1690 12 1690 12.5 1689.5 c 128,-1,8
 13 1689 13 1689 16 1716 c 0,9,10
 29 1809 29 1809 100.5 1893.5 c 128,-1,11
 172 1978 172 1978 293 1977.5 c 128,-1,0
 414 1977 414 1977 502.5 1896 c 128,-1,1
436 1680 m 0,12,13
 436 1830 436 1830 310.5 1830 c 128,-1,14
 185 1830 185 1830 161 1708 c 1,15,16
 161 1640 161 1640 205.5 1600 c 128,-1,17
 250 1560 250 1560 303.5 1560 c 128,-1,18
 357 1560 357 1560 396.5 1596 c 128,-1,19
 436 1632 436 1632 436 1680 c 0,12,13
EndSplineSet
EndChar

StartChar: ogonek
Encoding: 731 731 237
Width: 633
GlyphClass: 2
Flags: W
LayerCount: 2
Fore
SplineSet
639 -40 m 1,0,1
 426 -168 426 -168 426 -259 c 0,2,3
 426 -324 426 -324 514 -324 c 128,-1,4
 602 -324 602 -324 614 -303 c 1,5,-1
 617 -308 l 1,6,7
 619 -307 619 -307 621 -307 c 2,8,-1
 628 -304 l 1,9,-1
 630 -304 l 1,10,11
 634 -303 634 -303 645.5 -303 c 128,-1,12
 657 -303 657 -303 674 -362 c 128,-1,13
 691 -421 691 -421 688 -475 c 128,-1,14
 685 -529 685 -529 397.5 -529 c 128,-1,15
 110 -529 110 -529 110 -320 c 0,16,17
 110 -200 110 -200 205 -103 c 0,18,19
 326 21 326 21 436 21 c 2,20,-1
 454 21 l 1,21,-1
 627 18 l 2,22,23
 643 18 643 18 653.5 5 c 128,-1,24
 664 -8 664 -8 664 -12 c 1,25,-1
 652 -41 l 1,26,-1
 639 -40 l 1,0,1
EndSplineSet
EndChar

StartChar: tilde
Encoding: 732 732 238
Width: 699
GlyphClass: 2
Flags: W
LayerCount: 2
Fore
SplineSet
-126 1434 m 0,0,1
 -126 1775 -126 1775 170 1775 c 0,2,3
 225 1775 225 1775 356 1738 c 1,4,-1
 356 1739 l 1,5,6
 399 1724 399 1724 443 1713 c 1,7,-1
 473 1707 l 2,8,9
 477 1707 477 1707 487 1697 c 1,10,-1
 512 1725 l 1,11,12
 515 1732 515 1732 518 1751 c 1,13,-1
 541 1770 l 1,14,-1
 794 1763 l 1,15,16
 798 1761 798 1761 807 1748 c 1,17,18
 785 1404 785 1404 523 1404 c 0,19,20
 470 1404 470 1404 381 1425 c 1,21,-1
 323 1443 l 2,22,23
 154 1495 154 1495 144 1450 c 0,24,25
 141 1436 141 1436 140 1426 c 128,-1,26
 139 1416 139 1416 28 1416 c 2,27,-1
 -120 1416 l 1,28,29
 -126 1422 -126 1422 -126 1434 c 0,0,1
488 1755 m 1,30,-1
 495 1738 l 1,31,-1
 479 1745 l 1,32,-1
 488 1755 l 1,30,-1
EndSplineSet
EndChar

StartChar: hungarumlaut
Encoding: 733 733 239
Width: 774
GlyphClass: 2
Flags: W
LayerCount: 2
Fore
SplineSet
-222 1406 m 1,0,-1
 -241 1435 l 1,1,-1
 -74 1713 l 1,2,3
 -54 1758 -54 1758 -23 1794 c 1,4,-1
 190 1789 l 1,5,-1
 454 1781 l 1,6,-1
 454 1778 l 1,7,-1
 198 1486 l 1,8,9
 132 1414 132 1414 35 1414 c 2,10,-1
 16 1414 l 1,11,-1
 -222 1406 l 1,0,-1
379 1410 m 1,12,13
 362 1410 362 1410 356 1407 c 1,14,-1
 339 1438 l 1,15,16
 437 1592 437 1592 497 1697 c 1,17,-1
 506 1716 l 1,18,-1
 511 1724 l 1,19,-1
 511 1723 l 1,20,21
 538 1774 538 1774 556 1792 c 1,22,-1
 567 1791 l 1,23,-1
 579 1791 l 1,24,25
 587 1790 587 1790 597 1790 c 2,26,-1
 615 1790 l 1,27,-1
 825 1786 l 2,28,29
 874 1785 874 1785 929.5 1783.5 c 128,-1,30
 985 1782 985 1782 1034 1782 c 1,31,-1
 904 1629 l 2,32,33
 873 1591 873 1591 823 1537 c 1,34,-1
 768 1471 l 2,35,36
 759 1460 759 1460 751 1448 c 128,-1,37
 743 1436 743 1436 736 1427 c 1,38,39
 730 1441 730 1441 728 1460 c 1,40,41
 656 1447 656 1447 577 1438 c 1,42,-1
 379 1410 l 1,12,13
580 1814 m 1,43,44
 558 1792 558 1792 547 1792 c 1,45,-1
 544 1810 l 1,46,-1
 580 1814 l 1,43,44
737 1425 m 1,47,48
 737 1411 737 1411 732 1411 c 0,49,50
 727 1412 727 1412 727 1424 c 128,-1,51
 727 1436 727 1436 737 1425 c 1,47,48
1038 1787 m 1,52,53
 1038 1781 1038 1781 1037 1781 c 256,54,55
 1036 1781 1036 1781 1036 1781.5 c 128,-1,56
 1036 1782 1036 1782 1035 1782 c 2,57,-1
 1034 1782 l 1,58,-1
 1038 1787 l 1,52,53
EndSplineSet
EndChar

StartChar: uni030F
Encoding: 783 783 240
Width: 782
GlyphClass: 2
Flags: W
LayerCount: 2
Fore
SplineSet
198 1410 m 2,0,1
 198 1410 198 1410 106 1411 c 0,2,3
 72 1411 72 1411 34 1460 c 2,4,-1
 9 1492 l 1,5,6
 -86 1598 -86 1598 -240 1781 c 1,7,-1
 -240 1782 l 1,8,9
 -189 1782 -189 1782 -134.5 1783.5 c 128,-1,10
 -80 1785 -80 1785 -30 1786 c 2,11,-1
 179 1790 l 1,12,-1
 196 1790 l 2,13,14
 207 1790 207 1790 214 1791 c 1,15,-1
 226 1791 l 1,16,-1
 238 1792 l 1,17,18
 249 1781 249 1781 260 1763 c 128,-1,19
 271 1745 271 1745 282 1728 c 1,20,-1
 293 1707 l 1,21,-1
 293 1708 l 1,22,-1
 338 1629 l 2,23,24
 366 1580 366 1580 396 1533 c 128,-1,25
 426 1486 426 1486 456 1438 c 1,26,-1
 437 1407 l 1,27,28
 426 1410 426 1410 415 1410 c 2,29,-1
 248 1406 l 1,30,31
 224 1410 224 1410 198 1410 c 2,0,1
425 1782 m 1,32,-1
 688 1789 l 1,33,-1
 822 1792 l 1,34,-1
 899 1794 l 1,35,36
 926 1762 926 1762 952 1713 c 1,37,-1
 1119 1435 l 1,38,-1
 1100 1406 l 1,39,-1
 885 1413 l 1,40,-1
 861 1414 l 1,41,-1
 841 1414 l 2,42,43
 775 1414 775 1414 748 1425.5 c 128,-1,44
 721 1437 721 1437 657.5 1510.5 c 128,-1,45
 594 1584 594 1584 423 1779 c 1,46,-1
 425 1782 l 1,32,-1
246 1812 m 1,47,-1
 246 1792 l 1,48,-1
 241 1792 l 2,49,50
 234 1792 234 1792 219 1821 c 1,51,-1
 246 1812 l 1,47,-1
432 1396 m 1,52,-1
 434 1401 l 1,53,-1
 439 1407 l 1,54,55
 440 1406 440 1406 442 1406 c 1,56,-1
 432 1396 l 1,52,-1
-240 1781 m 1,57,-1
 -242 1781 l 1,58,-1
 -241 1782 l 1,59,-1
 -240 1781 l 1,57,-1
EndSplineSet
EndChar

StartChar: uni0311
Encoding: 785 785 241
Width: 683
GlyphClass: 2
Flags: W
LayerCount: 2
Fore
SplineSet
451 1441 m 1,0,1
 424 1525 424 1525 355.5 1525 c 128,-1,2
 287 1525 287 1525 266.5 1461 c 128,-1,3
 246 1397 246 1397 194 1397 c 1,4,-1
 60 1392 l 1,5,-1
 -32 1389 l 2,6,7
 -43 1388 -43 1388 -50 1387 c 128,-1,8
 -57 1386 -57 1386 -63 1387 c 1,9,-1
 -66 1387 l 1,10,-1
 -89 1418 l 1,11,12
 -10 1783 -10 1783 347 1783 c 0,13,14
 521 1783 521 1783 610.5 1705.5 c 128,-1,15
 700 1628 700 1628 725 1584 c 128,-1,16
 750 1540 750 1540 782 1414 c 1,17,18
 779 1406 779 1406 761 1406 c 2,19,-1
 753 1406 l 1,20,-1
 746 1407 l 1,21,-1
 469 1401 l 1,22,23
 463 1406 463 1406 450 1441 c 1,24,-1
 451 1441 l 1,0,1
-81 1388 m 1,25,-1
 -61 1387 l 1,26,-1
 -58 1355 l 1,27,-1
 -85 1371 l 1,28,-1
 -81 1388 l 1,25,-1
EndSplineSet
EndChar

StartChar: uni0326
Encoding: 806 806 242
Width: 735
GlyphClass: 2
Flags: W
LayerCount: 2
Fore
SplineSet
534 -240 m 1,0,1
 671 -240 671 -240 671 -252 c 2,2,-1
 671 -256 l 1,3,4
 651 -317 651 -317 631 -376.5 c 128,-1,5
 611 -436 611 -436 592 -498 c 2,6,-1
 575 -554 l 2,7,8
 561 -600 561 -600 545 -648 c 1,9,-1
 526 -711 l 1,10,11
 480 -859 480 -859 462 -895 c 1,12,13
 442 -912 442 -912 258 -912 c 1,14,-1
 216 -911 l 1,15,-1
 27 -911 l 1,16,-1
 8 -891 l 1,17,18
 136 -268 136 -268 158 -255.5 c 128,-1,19
 180 -243 180 -243 241 -243 c 2,20,-1
 408 -243 l 1,21,-1
 534 -240 l 1,0,1
EndSplineSet
EndChar

StartChar: uni03A9
Encoding: 937 937 243
Width: 1851
GlyphClass: 2
Flags: W
LayerCount: 2
Fore
SplineSet
881 243 m 1,0,-1
 882 116 l 1,1,2
 884 12 884 12 884 -20 c 1,3,-1
 874 -17 l 1,4,-1
 879 -17 l 2,5,6
 880 -17 880 -17 880 -16 c 2,7,-1
 77 -32 l 1,8,9
 62 -21 62 -21 62 27 c 2,10,-1
 65 316 l 2,11,12
 65 327 65 327 80 336 c 1,13,-1
 368 336 l 1,14,15
 95 580 95 580 95 873 c 128,-1,16
 95 1166 95 1166 326 1348 c 1,17,18
 540 1551 540 1551 958 1551 c 128,-1,19
 1376 1551 1376 1551 1628 1259 c 1,20,-1
 1628 1260 l 1,21,22
 1771 1083 1771 1083 1771 878 c 0,23,24
 1771 579 1771 579 1450 319 c 1,25,-1
 1778 322 l 2,26,27
 1795 322 1795 322 1795 294 c 2,28,-1
 1795 284 l 2,29,30
 1795 278 1795 278 1794 273 c 1,31,-1
 1794 262 l 1,32,-1
 1793 251 l 1,33,-1
 1793 119 l 2,34,35
 1793 1 1793 1 1800 -11 c 1,36,-1
 1795 -6 l 1,37,38
 1575 -27 1575 -27 1355 -27 c 128,-1,39
 1135 -27 1135 -27 1002 -17 c 1,40,-1
 1003 -15 l 1,41,-1
 1003 62 l 1,42,-1
 1002 100 l 1,43,-1
 1002 156 l 2,44,45
 1002 226 1002 226 998 230 c 1,46,47
 1289 433 1289 433 1289 762 c 0,48,49
 1289 934 1289 934 1204.5 1064 c 128,-1,50
 1120 1194 1120 1194 952.5 1194 c 128,-1,51
 785 1194 785 1194 685 1079 c 128,-1,52
 585 964 585 964 585 766 c 128,-1,53
 585 568 585 568 663.5 449 c 128,-1,54
 742 330 742 330 779.5 307 c 128,-1,55
 817 284 817 284 845.5 267 c 128,-1,56
 874 250 874 250 881 243 c 1,0,-1
1802 -13 m 1,57,58
 1800 -13 1800 -13 1800 -11 c 1,59,-1
 1802 -13 l 1,57,58
887 -21 m 1,60,-1
 890 -22 l 1,61,-1
 887 -21 l 1,60,-1
EndSplineSet
EndChar

StartChar: pi
Encoding: 960 960 244
Width: 1587
GlyphClass: 2
Flags: W
LayerCount: 2
Fore
SplineSet
-14 1081 m 1,0,1
 -14 1191 -14 1191 738 1191 c 1,2,-1
 1235 1187 l 1,3,4
 1441 1187 1441 1187 1529.5 1190.5 c 128,-1,5
 1618 1194 1618 1194 1622 1180 c 1,6,7
 1613 1138 1613 1138 1612 1098.5 c 128,-1,8
 1611 1059 1611 1059 1607 1017 c 2,9,-1
 1596 908 l 1,10,11
 1596 875 1596 875 1587 837 c 1,12,-1
 1560 813 l 1,13,-1
 1554 812 l 1,14,-1
 1544 812 l 1,15,16
 1486 809 1486 809 1430 805 c 1,17,18
 1425 522 1425 522 1425 322 c 128,-1,19
 1425 122 1425 122 1451 -10 c 1,20,21
 1449 -27 1449 -27 1434 -34 c 1,22,23
 1274 -32 1274 -32 1138 -28 c 2,24,-1
 993 -24 l 1,25,26
 937 -10 937 -10 937 220 c 128,-1,27
 937 450 937 450 942 770 c 1,28,-1
 942 790 l 1,29,-1
 943 822 l 1,30,-1
 719 830 l 1,31,32
 694 367 694 367 617 75 c 2,33,-1
 611 52 l 1,34,35
 598 -8 598 -8 584 -20 c 1,36,37
 377 -20 377 -20 133 -9 c 1,38,39
 250 442 250 442 252 778 c 0,40,41
 252 815 252 815 226 822 c 1,42,43
 128 822 128 822 37 804 c 1,44,45
 22 810 22 810 13 871 c 2,46,-1
 0 960 l 2,47,48
 -6 1000 -6 1000 -14 1081 c 1,0,1
131 -40 m 1,49,50
 98 -9 98 -9 98 -2.5 c 128,-1,51
 98 4 98 4 101 4.5 c 128,-1,52
 104 5 104 5 108 6 c 1,53,-1
 131 21 l 1,54,-1
 131 -9 l 1,55,-1
 133 -9 l 1,56,57
 131 -11 131 -11 131 -14 c 2,58,-1
 131 -40 l 1,49,50
EndSplineSet
EndChar

StartChar: endash
Encoding: 8211 8211 245
Width: 1054
GlyphClass: 2
Flags: W
LayerCount: 2
Fore
SplineSet
1063 378 m 1,0,-1
 10 359 l 1,1,-1
 9 359 l 1,2,3
 -15 379 -15 379 -15 415 c 2,4,-1
 -12 526 l 1,5,-1
 -12 551 l 1,6,-1
 -13 635 l 1,7,8
 -13 737 -13 737 0 737 c 2,9,-1
 435 733 l 1,10,11
 729 733 729 733 927 738 c 2,12,-1
 972 739 l 1,13,-1
 1031 741 l 1,14,15
 1065 741 1065 741 1074 730 c 1,16,17
 1081 541 1081 541 1081 459.5 c 128,-1,18
 1081 378 1081 378 1066 378 c 2,19,-1
 1063 378 l 1,0,-1
EndSplineSet
EndChar

StartChar: emdash
Encoding: 8212 8212 246
Width: 2046
GlyphClass: 2
Flags: W
LayerCount: 2
Fore
SplineSet
2099 598 m 2,0,-1
 2097 544 l 1,1,-1
 2097 526 l 1,2,-1
 2094 387 l 1,3,4
 2090 383 2090 383 1938 386 c 128,-1,5
 1786 389 1786 389 1335 389 c 2,6,-1
 1288 389 l 2,7,8
 927 389 927 389 146 364 c 1,9,-1
 72 361 l 2,10,11
 38 359 38 359 4 359 c 1,12,13
 -17 387 -17 387 -18 391 c 1,14,-1
 -18 523 l 2,15,16
 -18 725 -18 725 -24 734 c 1,17,18
 -21 734 -21 734 -8 729 c 1,19,-1
 390 729 l 2,20,21
 589 729 589 729 787 731 c 128,-1,22
 985 733 985 733 1185 735 c 1,23,-1
 1964 738 l 1,24,-1
 1993 738 l 1,25,-1
 2064 739 l 1,26,-1
 2094 739 l 1,27,28
 2101 736 2101 736 2101 691 c 128,-1,29
 2101 646 2101 646 2099 598 c 2,0,-1
EndSplineSet
EndChar

StartChar: quoteleft
Encoding: 8216 8216 247
Width: 727
GlyphClass: 2
Flags: W
LayerCount: 2
Fore
SplineSet
273 1528 m 1,0,1
 285 1534 285 1534 483 1534 c 128,-1,2
 681 1534 681 1534 681 1519 c 0,3,4
 681 1461 681 1461 654 1359.5 c 128,-1,5
 627 1258 627 1258 620 1224 c 2,6,-1
 610 1176 l 1,7,8
 600 1134 600 1134 574.5 1007.5 c 128,-1,9
 549 881 549 881 526 880 c 1,10,-1
 524 880 l 1,11,12
 419 874 419 874 249 874 c 2,13,-1
 147 874 l 1,14,-1
 99 875 l 1,15,-1
 59 875 l 1,16,17
 47 894 47 894 38 917 c 1,18,19
 63 977 63 977 82.5 1034 c 128,-1,20
 102 1091 102 1091 125 1148 c 2,21,-1
 273 1528 l 1,0,1
EndSplineSet
EndChar

